<svg width="335" height="90" viewBox="0 0 335 90" fill="none" xmlns="http://www.w3.org/2000/svg">
<rect width="335" height="89.3333" rx="12" fill="url(#paint0_linear)"/>
<path d="M220 81.44C220 74.4928 220 71.0192 221.395 68.3848C222.52 66.259 224.259 64.5204 226.385 63.3948C229.019 62 232.493 62 239.44 62H335V69.56C335 76.5072 335 79.9808 333.605 82.6152C332.48 84.741 330.741 86.4796 328.615 87.6052C325.981 89 322.507 89 315.56 89H220V81.44Z" fill="url(#paint1_linear)"/>
<path d="M111.44 26.444V24.806H106.848V22.314H110.908V20.676H106.848V18.31H111.44V16.672H105V26.444H111.44Z" fill="white"/>
<path d="M115.075 26.444V21.614C115.075 20.83 115.789 20.438 116.531 20.438C117.385 20.438 117.735 20.97 117.735 22.006V26.444H119.527V21.824C119.527 20.004 118.687 18.968 117.189 18.968C116.055 18.968 115.439 19.57 115.145 20.354H115.075V19.136H113.283V26.444H115.075Z" fill="white"/>
<path d="M121.513 27.816H120.393V29.244H121.373C122.717 29.244 123.305 28.544 123.305 27.326V19.136H121.513V27.816ZM122.409 18.072C123.137 18.072 123.459 17.694 123.459 17.176V16.896C123.459 16.378 123.137 16 122.409 16C121.667 16 121.359 16.378 121.359 16.896V17.176C121.359 17.694 121.667 18.072 122.409 18.072Z" fill="white"/>
<path d="M128.28 26.612C130.38 26.612 131.682 25.128 131.682 22.776C131.682 20.438 130.38 18.968 128.28 18.968C126.194 18.968 124.892 20.438 124.892 22.776C124.892 25.128 126.194 26.612 128.28 26.612ZM128.28 25.17C127.356 25.17 126.768 24.568 126.768 23.462V22.104C126.768 21.012 127.356 20.41 128.28 20.41C129.218 20.41 129.806 21.012 129.806 22.104V23.462C129.806 24.568 129.218 25.17 128.28 25.17Z" fill="white"/>
<path d="M136.354 23L135.85 24.848H135.766L135.29 23L134.016 19.136H132.238L134.856 26.794L134.52 27.816H133.204V29.244H134.282C135.486 29.244 136.004 28.796 136.368 27.746L139.308 19.136H137.628L136.354 23Z" fill="white"/>
<path d="M148.166 26.444H149.958V19.136H148.166V23.966C148.166 24.75 147.452 25.128 146.738 25.128C145.884 25.128 145.506 24.582 145.506 23.574V19.136H143.714V23.756C143.714 25.576 144.554 26.612 146.052 26.612C147.256 26.612 147.844 25.954 148.096 25.226H148.166V26.444Z" fill="white"/>
<path d="M152.029 29.244H153.821V25.226H153.877C154.157 26.052 154.927 26.612 155.893 26.612C157.741 26.612 158.763 25.226 158.763 22.776C158.763 20.34 157.741 18.968 155.893 18.968C154.927 18.968 154.143 19.5 153.877 20.34H153.821V19.136H152.029V29.244ZM155.319 25.128C154.465 25.128 153.821 24.694 153.821 23.938V21.614C153.821 20.9 154.465 20.438 155.319 20.438C156.243 20.438 156.887 21.124 156.887 22.16V23.42C156.887 24.456 156.243 25.128 155.319 25.128Z" fill="white"/>
<path d="M166.014 26.444H167.302V25.016H165.916V20.564H167.414V19.136H165.916V17.134H164.306V18.38C164.306 18.884 164.138 19.136 163.606 19.136H163.046V20.564H164.124V24.582C164.124 25.772 164.782 26.444 166.014 26.444Z" fill="white"/>
<path d="M171.811 26.612C173.911 26.612 175.213 25.128 175.213 22.776C175.213 20.438 173.911 18.968 171.811 18.968C169.725 18.968 168.423 20.438 168.423 22.776C168.423 25.128 169.725 26.612 171.811 26.612ZM171.811 25.17C170.887 25.17 170.299 24.568 170.299 23.462V22.104C170.299 21.012 170.887 20.41 171.811 20.41C172.749 20.41 173.337 21.012 173.337 22.104V23.462C173.337 24.568 172.749 25.17 171.811 25.17Z" fill="white"/>
<path d="M186.285 16.672H180.531L180.167 22.16L181.679 22.37C181.973 22.02 182.463 21.642 183.261 21.642C184.283 21.642 184.899 22.258 184.899 23.266V23.378C184.899 24.442 184.311 25.1 183.219 25.1C182.155 25.1 181.623 24.512 181.189 23.756L179.845 24.792C180.433 25.744 181.399 26.612 183.205 26.612C185.515 26.612 186.817 25.184 186.817 23.224C186.817 21.278 185.515 20.13 183.835 20.13C182.659 20.13 182.183 20.704 181.763 21.544H181.665L181.889 18.268H186.285V16.672Z" fill="white"/>
<path d="M194.679 16.672H188.925L188.561 22.16L190.073 22.37C190.367 22.02 190.857 21.642 191.655 21.642C192.677 21.642 193.293 22.258 193.293 23.266V23.378C193.293 24.442 192.705 25.1 191.613 25.1C190.549 25.1 190.017 24.512 189.583 23.756L188.239 24.792C188.827 25.744 189.793 26.612 191.599 26.612C193.909 26.612 195.211 25.184 195.211 23.224C195.211 21.278 193.909 20.13 192.229 20.13C191.053 20.13 190.577 20.704 190.157 21.544H190.059L190.283 18.268H194.679V16.672Z" fill="white"/>
<path d="M200.008 26.444L206.784 16.672H205.16L198.384 26.444H200.008ZM199.056 22.048C200.624 22.048 201.478 21.082 201.478 19.276C201.478 17.47 200.624 16.504 199.056 16.504C197.488 16.504 196.62 17.47 196.62 19.276C196.62 21.082 197.488 22.048 199.056 22.048ZM199.056 20.984C198.482 20.984 198.188 20.564 198.188 19.654V18.898C198.188 17.988 198.482 17.568 199.056 17.568C199.63 17.568 199.924 17.988 199.924 18.898V19.654C199.924 20.564 199.63 20.984 199.056 20.984ZM206.112 26.612C207.68 26.612 208.548 25.646 208.548 23.84C208.548 22.034 207.68 21.068 206.112 21.068C204.558 21.068 203.69 22.034 203.69 23.84C203.69 25.646 204.558 26.612 206.112 26.612ZM206.112 25.548C205.538 25.548 205.244 25.128 205.244 24.218V23.462C205.244 22.552 205.538 22.132 206.112 22.132C206.686 22.132 206.98 22.552 206.98 23.462V24.218C206.98 25.128 206.686 25.548 206.112 25.548Z" fill="white"/>
<path d="M216.546 26.612C218.646 26.612 219.948 25.128 219.948 22.776C219.948 20.438 218.646 18.968 216.546 18.968C214.46 18.968 213.158 20.438 213.158 22.776C213.158 25.128 214.46 26.612 216.546 26.612ZM216.546 25.17C215.622 25.17 215.034 24.568 215.034 23.462V22.104C215.034 21.012 215.622 20.41 216.546 20.41C217.484 20.41 218.072 21.012 218.072 22.104V23.462C218.072 24.568 217.484 25.17 216.546 25.17Z" fill="white"/>
<path d="M221.818 26.444H223.61V20.55H225.108V19.136H223.61V17.512H225.108V16.084H223.834C222.518 16.084 221.818 16.798 221.818 18.086V19.136H220.74V20.55H221.818V26.444Z" fill="white"/>
<path d="M226.754 26.444H228.546V20.55H230.044V19.136H228.546V17.512H230.044V16.084H228.77C227.454 16.084 226.754 16.798 226.754 18.086V19.136H225.676V20.55H226.754V26.444Z" fill="white"/>
<path d="M237.799 23L237.295 24.848H237.211L236.735 23L235.461 19.136H233.683L236.301 26.794L235.965 27.816H234.649V29.244H235.727C236.931 29.244 237.449 28.796 237.813 27.746L240.753 19.136H239.073L237.799 23Z" fill="white"/>
<path d="M244.737 26.612C246.837 26.612 248.139 25.128 248.139 22.776C248.139 20.438 246.837 18.968 244.737 18.968C242.651 18.968 241.349 20.438 241.349 22.776C241.349 25.128 242.651 26.612 244.737 26.612ZM244.737 25.17C243.813 25.17 243.225 24.568 243.225 23.462V22.104C243.225 21.012 243.813 20.41 244.737 20.41C245.675 20.41 246.263 21.012 246.263 22.104V23.462C246.263 24.568 245.675 25.17 244.737 25.17Z" fill="white"/>
<path d="M254.096 26.444H255.888V19.136H254.096V23.966C254.096 24.75 253.382 25.128 252.668 25.128C251.814 25.128 251.436 24.582 251.436 23.574V19.136H249.644V23.756C249.644 25.576 250.484 26.612 251.982 26.612C253.186 26.612 253.774 25.954 254.026 25.226H254.096V26.444Z" fill="white"/>
<path d="M259.75 26.444V21.964C259.75 21.166 260.38 20.83 261.584 20.83H262.144V19.136H261.752C260.59 19.136 260.002 19.878 259.82 20.648H259.75V19.136H257.958V26.444H259.75Z" fill="white"/>
<path d="M268.555 26.444V21.614C268.555 20.83 269.227 20.438 269.913 20.438C270.711 20.438 271.089 20.956 271.089 22.006V26.444H272.881V21.614C272.881 20.83 273.539 20.438 274.239 20.438C275.037 20.438 275.415 20.956 275.415 22.006V26.444H277.207V21.824C277.207 20.004 276.395 18.968 274.967 18.968C273.805 18.968 272.993 19.626 272.727 20.438H272.699C272.349 19.458 271.579 18.968 270.585 18.968C269.493 18.968 268.905 19.584 268.625 20.354H268.555V19.136H266.763V26.444H268.555Z" fill="white"/>
<path d="M282.145 26.612C283.503 26.612 284.567 26.094 285.169 25.268L284.203 24.19C283.755 24.764 283.223 25.184 282.341 25.184C281.165 25.184 280.563 24.47 280.563 23.42V23.238H285.421V22.65C285.421 20.648 284.371 18.968 282.089 18.968C279.947 18.968 278.701 20.466 278.701 22.776C278.701 25.114 279.989 26.612 282.145 26.612ZM282.117 20.312C283.041 20.312 283.559 20.998 283.559 22.006V22.132H280.563V22.02C280.563 21.012 281.179 20.312 282.117 20.312Z" fill="white"/>
<path d="M288.803 26.612C289.895 26.612 290.693 26.122 290.931 25.184H291.015C291.127 25.94 291.603 26.444 292.373 26.444H293.367V25.016H292.639V21.572C292.639 19.906 291.589 18.968 289.615 18.968C288.145 18.968 287.291 19.528 286.759 20.368L287.823 21.32C288.173 20.816 288.649 20.396 289.489 20.396C290.441 20.396 290.847 20.872 290.847 21.684V22.216H289.601C287.613 22.216 286.479 22.958 286.479 24.456C286.479 25.758 287.319 26.612 288.803 26.612ZM289.405 25.31C288.705 25.31 288.299 25.016 288.299 24.428V24.19C288.299 23.616 288.761 23.294 289.699 23.294H290.847V24.26C290.847 24.946 290.203 25.31 289.405 25.31Z" fill="white"/>
<path d="M297.576 26.444V25.016H296.61V16.084H294.818V24.68C294.818 25.8 295.392 26.444 296.61 26.444H297.576Z" fill="white"/>
<path d="M301.327 26.612C303.147 26.612 304.337 25.632 304.337 24.218C304.337 23 303.567 22.286 301.971 22.062L301.229 21.964C300.543 21.852 300.277 21.628 300.277 21.138C300.277 20.69 300.613 20.382 301.383 20.382C302.097 20.382 302.713 20.718 303.133 21.166L304.183 20.116C303.483 19.388 302.755 18.968 301.327 18.968C299.661 18.968 298.555 19.864 298.555 21.278C298.555 22.608 299.423 23.294 300.991 23.49L301.719 23.588C302.363 23.672 302.615 23.938 302.615 24.358C302.615 24.876 302.251 25.198 301.397 25.198C300.571 25.198 299.927 24.82 299.395 24.204L298.303 25.268C299.031 26.108 299.941 26.612 301.327 26.612Z" fill="white"/>
<path d="M306.874 26.598C307.644 26.598 307.994 26.164 307.994 25.576V25.324C307.994 24.722 307.644 24.288 306.874 24.288C306.118 24.288 305.754 24.722 305.754 25.324V25.576C305.754 26.164 306.118 26.598 306.874 26.598Z" fill="white"/>
<g opacity="0.8">
<path d="M109.144 44.7247C108.509 44.7247 107.935 44.6174 107.422 44.4027C106.918 44.1787 106.484 43.8567 106.12 43.4367C105.765 43.0074 105.49 42.4801 105.294 41.8547C105.098 41.2201 105 40.4921 105 39.6707C105 38.8494 105.098 38.1261 105.294 37.5007C105.49 36.8754 105.765 36.3481 106.12 35.9187C106.484 35.4894 106.918 35.1674 107.422 34.9527C107.935 34.7287 108.509 34.6167 109.144 34.6167C109.769 34.6167 110.339 34.7287 110.852 34.9527C111.365 35.1674 111.799 35.4894 112.154 35.9187C112.518 36.3481 112.798 36.8754 112.994 37.5007C113.19 38.1261 113.288 38.8494 113.288 39.6707C113.288 40.4921 113.19 41.2201 112.994 41.8547C112.798 42.4801 112.518 43.0074 112.154 43.4367C111.799 43.8567 111.365 44.1787 110.852 44.4027C110.339 44.6174 109.769 44.7247 109.144 44.7247ZM109.144 43.6747C109.564 43.6747 109.951 43.6001 110.306 43.4507C110.661 43.3014 110.964 43.0867 111.216 42.8067C111.477 42.5267 111.678 42.1907 111.818 41.7987C111.958 41.4067 112.028 40.9681 112.028 40.4827V38.8587C112.028 38.3734 111.958 37.9347 111.818 37.5427C111.678 37.1507 111.477 36.8147 111.216 36.5347C110.964 36.2547 110.661 36.0401 110.306 35.8907C109.951 35.7414 109.564 35.6667 109.144 35.6667C108.724 35.6667 108.337 35.7414 107.982 35.8907C107.627 36.0401 107.319 36.2547 107.058 36.5347C106.806 36.8147 106.61 37.1507 106.47 37.5427C106.33 37.9347 106.26 38.3734 106.26 38.8587V40.4827C106.26 40.9681 106.33 41.4067 106.47 41.7987C106.61 42.1907 106.806 42.5267 107.058 42.8067C107.319 43.0867 107.627 43.3014 107.982 43.4507C108.337 43.6001 108.724 43.6747 109.144 43.6747Z" fill="white"/>
<path d="M115.29 44.5567V37.3327H116.41V38.5087H116.466C116.643 38.0981 116.891 37.7714 117.208 37.5287C117.535 37.2861 117.969 37.1647 118.51 37.1647C119.257 37.1647 119.845 37.4074 120.274 37.8927C120.713 38.3687 120.932 39.0454 120.932 39.9227V44.5567H119.812V40.1187C119.812 38.8214 119.266 38.1727 118.174 38.1727C117.95 38.1727 117.731 38.2007 117.516 38.2567C117.311 38.3127 117.124 38.3967 116.956 38.5087C116.788 38.6207 116.653 38.7654 116.55 38.9427C116.457 39.1107 116.41 39.3114 116.41 39.5447V44.5567H115.29Z" fill="white"/>
<path d="M124.437 44.5567C124.045 44.5567 123.746 44.4494 123.541 44.2347C123.345 44.0107 123.247 43.7307 123.247 43.3947V34.1967H124.367V43.5767H125.431V44.5567H124.437Z" fill="white"/>
<path d="M131.377 37.3327H132.483L129.249 46.2367C129.165 46.4514 129.081 46.6287 128.997 46.7687C128.913 46.9181 128.81 47.0347 128.689 47.1187C128.568 47.2027 128.414 47.2634 128.227 47.3007C128.05 47.3381 127.83 47.3567 127.569 47.3567H126.995V46.3767H128.129L128.675 44.8367L125.973 37.3327H127.093L128.829 42.2467L129.165 43.4227H129.235L129.627 42.2467L131.377 37.3327Z" fill="white"/>
<path d="M137.332 44.5567V34.7847H143.156V35.8207H138.508V39.0967H142.75V40.1327H138.508V44.5567H137.332Z" fill="white"/>
<path d="M147.415 44.7247C146.929 44.7247 146.486 44.6361 146.085 44.4587C145.683 44.2814 145.338 44.0294 145.049 43.7027C144.769 43.3667 144.549 42.9701 144.391 42.5127C144.232 42.0461 144.153 41.5234 144.153 40.9447C144.153 40.3754 144.232 39.8574 144.391 39.3907C144.549 38.9241 144.769 38.5274 145.049 38.2007C145.338 37.8647 145.683 37.6081 146.085 37.4307C146.486 37.2534 146.929 37.1647 147.415 37.1647C147.9 37.1647 148.339 37.2534 148.731 37.4307C149.132 37.6081 149.477 37.8647 149.767 38.2007C150.056 38.5274 150.28 38.9241 150.439 39.3907C150.597 39.8574 150.677 40.3754 150.677 40.9447C150.677 41.5234 150.597 42.0461 150.439 42.5127C150.28 42.9701 150.056 43.3667 149.767 43.7027C149.477 44.0294 149.132 44.2814 148.731 44.4587C148.339 44.6361 147.9 44.7247 147.415 44.7247ZM147.415 43.7307C148.021 43.7307 148.516 43.5441 148.899 43.1707C149.281 42.7974 149.473 42.2281 149.473 41.4627V40.4267C149.473 39.6614 149.281 39.0921 148.899 38.7187C148.516 38.3454 148.021 38.1587 147.415 38.1587C146.808 38.1587 146.313 38.3454 145.931 38.7187C145.548 39.0921 145.357 39.6614 145.357 40.4267V41.4627C145.357 42.2281 145.548 42.7974 145.931 43.1707C146.313 43.5441 146.808 43.7307 147.415 43.7307Z" fill="white"/>
<path d="M152.519 44.5567V37.3327H153.639V38.6627H153.709C153.839 38.3174 154.073 38.0094 154.409 37.7387C154.745 37.4681 155.207 37.3327 155.795 37.3327H156.229V38.4527H155.571C154.964 38.4527 154.488 38.5694 154.143 38.8027C153.807 39.0267 153.639 39.3114 153.639 39.6567V44.5567H152.519Z" fill="white"/>
<path d="M161.724 45.9427C161.766 46.0267 161.962 45.9987 161.99 45.9147C162.004 45.8727 161.99 45.7887 161.962 45.7467C161.906 45.6907 161.892 45.3687 161.92 44.4027C161.948 43.0867 161.99 42.7927 162.088 42.7647C162.116 42.7507 162.312 42.7087 162.536 42.6527C163.698 42.3867 164.762 41.7007 166.148 40.3147C167.198 39.2647 167.744 38.4667 168.08 37.4587C168.206 37.0527 168.22 36.9267 168.22 36.3387C168.22 35.6947 168.22 35.6527 168.052 35.3167C167.968 35.1347 167.758 34.7987 167.604 34.6027C166.988 33.7907 166.582 33.5247 165.728 33.3427C164.594 33.1047 163.404 33.3147 162.396 33.9307C161.794 34.2807 160.996 34.9527 160.632 35.3727C160.24 35.8487 159.89 36.5207 159.848 36.8987C159.806 37.2347 159.904 37.4447 160.212 37.7387C160.45 37.9627 160.674 38.0187 160.562 37.8227C160.492 37.6827 160.548 37.4447 160.744 37.0527C161.276 36.0027 162.48 35.0507 163.852 34.6027C164.468 34.3927 165.378 34.3507 166.008 34.5187C166.582 34.6587 167.016 34.8687 167.086 35.0367C167.156 35.2327 167.142 35.8067 167.058 36.2127C166.764 37.5987 165.784 38.9847 164.146 40.3007C163.362 40.9307 162.382 41.5747 162.298 41.4907C162.256 41.4627 162.718 40.0907 162.984 39.4467C163.124 39.1247 163.46 38.3267 163.74 37.6967C164.034 37.0527 164.286 36.4087 164.314 36.2407C164.384 35.9467 164.384 35.9467 164.23 35.8207C164.146 35.7507 164.062 35.7087 164.034 35.7227C164.006 35.7367 163.978 35.7227 163.978 35.6947C163.978 35.6667 163.95 35.6387 163.908 35.6387C163.88 35.6387 163.81 35.5827 163.782 35.5127C163.698 35.3167 163.488 35.3307 163.25 35.5547C163.012 35.7787 162.466 36.7727 162.116 37.6687C161.766 38.5367 161.066 40.6787 160.94 41.2667C160.772 42.0787 160.786 42.0647 160.422 42.0227C160.184 41.9947 160.1 41.9667 159.974 41.8267C159.806 41.6447 159.722 41.6307 159.722 41.7707C159.722 41.9247 160.03 42.2467 160.38 42.4987C160.576 42.6387 160.674 42.7227 160.646 42.7787C160.59 42.9187 160.618 44.3607 160.674 44.6267C160.786 45.1307 161.262 45.8167 161.528 45.8727C161.626 45.8867 161.71 45.9147 161.724 45.9427ZM160.982 35.6807C161.066 35.6247 161.066 35.6247 161.01 35.7087C160.94 35.7927 160.884 35.8207 160.884 35.7787C160.884 35.7647 160.926 35.7227 160.982 35.6807ZM160.31 36.6747C160.422 36.4367 160.702 35.9887 160.814 35.9047C160.87 35.8627 160.842 35.9187 160.758 36.0307C160.674 36.1287 160.534 36.3667 160.436 36.5627C160.254 36.8987 160.198 36.9547 160.31 36.6747ZM161.36 35.5687C160.898 36.0587 160.842 36.1287 160.688 36.3667C160.618 36.4927 160.548 36.6047 160.534 36.6047C160.408 36.6047 161.136 35.6807 161.472 35.4007C161.584 35.3167 161.542 35.3727 161.36 35.5687ZM166.61 38.3547C166.946 37.8227 166.988 37.7667 166.834 38.0887C166.75 38.2427 166.61 38.4387 166.526 38.5367C166.442 38.6487 166.47 38.5787 166.61 38.3547ZM166.344 38.9707C166.638 38.5787 166.974 38.0747 167.1 37.8227C167.156 37.7107 167.212 37.6267 167.226 37.6407C167.268 37.6827 166.862 38.3687 166.596 38.7327C166.456 38.9287 166.288 39.1387 166.218 39.1947C166.148 39.2507 166.204 39.1527 166.344 38.9707ZM165.952 39.4607C166.022 39.3767 166.092 39.3207 166.106 39.3207C166.12 39.3207 166.078 39.3767 166.008 39.4607C165.938 39.5307 165.868 39.5867 165.854 39.5867C165.84 39.5867 165.896 39.5307 165.952 39.4607ZM165.966 39.7127C166.204 39.4467 166.554 39.0127 166.736 38.7607C167.268 38.0327 167.282 38.0607 166.764 38.8027C166.61 39.0407 166.26 39.4467 165.994 39.7127L165.518 40.2027L165.966 39.7127ZM163.964 35.8067C163.978 35.8347 163.908 36.0167 163.796 36.2267C163.054 37.6967 162.34 39.4607 161.906 40.8887C161.822 41.1827 161.724 41.5187 161.696 41.6167C161.668 41.7147 161.64 41.7707 161.64 41.7287C161.626 41.4207 162.466 38.9707 163.012 37.7527C163.432 36.8147 163.936 35.7787 163.964 35.8067ZM163.656 36.0027C163.74 35.9327 163.74 35.9467 163.67 36.0447C163.628 36.1007 163.586 36.1567 163.572 36.1707C163.558 36.1847 163.558 36.1707 163.558 36.1287C163.558 36.1007 163.6 36.0447 163.656 36.0027ZM161.444 41.6727C161.57 41.0287 162.116 39.4047 162.564 38.2847C162.97 37.3187 163.502 36.1987 163.544 36.2407C163.558 36.2687 163.544 36.3107 163.516 36.3387C163.46 36.4227 162.9 37.6267 162.718 38.0607C162.242 39.2367 161.836 40.4127 161.626 41.1827C161.472 41.7987 161.374 42.0367 161.444 41.6727ZM161.08 43.3947C161.066 43.4227 161.052 43.3807 161.066 43.2967C161.066 43.2127 161.08 43.1847 161.08 43.2267C161.094 43.2827 161.094 43.3527 161.08 43.3947ZM161.248 43.3807C161.22 43.6607 161.22 44.0807 161.234 44.3187C161.248 44.5707 161.248 44.7667 161.234 44.7667C161.15 44.7667 161.15 42.9467 161.234 42.8487C161.29 42.7927 161.304 42.8907 161.248 43.3807ZM161.43 43.3247C161.416 43.6047 161.402 43.8427 161.388 43.8567C161.36 43.8987 161.388 43.1427 161.43 42.9747C161.444 42.8907 161.458 43.0447 161.43 43.3247Z" fill="white"/>
<path d="M173.734 43.8707C173.776 43.8427 173.804 43.6747 173.804 43.5207C173.804 43.2827 173.79 43.2127 173.692 43.1567C173.622 43.1147 173.216 43.1007 172.446 43.1147C171.27 43.1567 170.57 43.2407 169.142 43.5487C168.764 43.6327 168.442 43.6887 168.428 43.6747C168.414 43.6747 168.456 43.4367 168.498 43.1567C168.82 41.1267 169.674 38.6207 171.158 35.3867C171.732 34.1547 171.83 33.8467 171.704 33.8467C171.676 33.8467 171.662 33.8187 171.676 33.7767C171.704 33.7487 171.662 33.7067 171.606 33.6787C171.536 33.6647 171.494 33.6227 171.494 33.5947C171.494 33.5667 171.452 33.5387 171.424 33.5387C171.382 33.5387 171.312 33.4827 171.284 33.3987C171.172 33.1327 170.85 33.2167 170.528 33.5947C170.108 34.0987 169.17 36.0027 168.68 37.3467C168.12 38.9147 167.826 39.9787 167.63 41.2807C167.392 42.7647 167.392 43.1707 167.63 43.8287C167.644 43.8847 167.532 43.9547 167.28 44.0667C166.734 44.3047 166.664 44.3887 166.65 44.7667C166.636 44.9347 166.608 45.0887 166.566 45.1027C166.496 45.1307 166.496 45.3127 166.58 45.3967C166.678 45.5087 166.804 45.4807 167.672 45.2287C170.416 44.4027 172.026 44.0247 173.034 43.9547C173.384 43.9407 173.706 43.8987 173.734 43.8707ZM168.624 40.3567C168.61 40.4687 168.526 40.6647 168.512 40.5667C168.512 40.5247 168.54 40.4407 168.568 40.3847C168.596 40.3427 168.624 40.3287 168.624 40.3567ZM168.652 40.2587C168.638 40.2727 168.624 40.2447 168.624 40.1747C168.624 40.1047 168.638 40.0907 168.666 40.1467C168.68 40.1887 168.68 40.2307 168.652 40.2587ZM168.778 39.7967C168.722 39.9087 168.722 39.8107 168.778 39.6567C168.82 39.5727 168.834 39.5587 168.834 39.6287C168.834 39.6707 168.82 39.7547 168.778 39.7967ZM169.016 39.0687C168.89 39.4607 168.792 39.6847 168.862 39.3907C168.946 39.0827 169.114 38.6067 169.142 38.6347C169.156 38.6487 169.1 38.8447 169.016 39.0687ZM171.284 33.8747C171.326 33.8327 171.284 33.9167 171.214 34.0427C170.64 35.1347 170.178 36.1147 169.786 37.0807C169.226 38.4667 169.17 38.6067 169.17 38.5367C169.156 38.4387 169.94 36.4927 170.304 35.7227C170.668 34.9387 171.172 33.9867 171.284 33.8747ZM170.164 35.2047C170.178 35.2047 170.08 35.4427 169.94 35.7367C169.688 36.2967 169.646 36.3667 169.646 36.2967C169.646 36.2407 170.136 35.2047 170.164 35.2047ZM169.632 36.3807C169.646 36.3807 169.618 36.4647 169.576 36.5907C169.478 36.8147 169.38 37.0107 169.38 36.9547C169.38 36.8987 169.604 36.3807 169.632 36.3807ZM169.296 37.1507C169.338 37.0667 169.38 37.0247 169.38 37.0527C169.38 37.0947 169.338 37.1787 169.296 37.2627C169.254 37.3467 169.226 37.3887 169.226 37.3467C169.226 37.3187 169.254 37.2207 169.296 37.1507ZM169.086 37.6827C169.142 37.5427 169.184 37.4447 169.198 37.4587C169.212 37.4727 169.156 37.6267 169.086 37.7947C168.932 38.1447 168.932 38.0887 169.086 37.6827ZM168.708 38.7327C168.736 38.6627 168.792 38.4807 168.848 38.3547C168.904 38.2287 168.932 38.1867 168.918 38.2707C168.89 38.3407 168.834 38.5227 168.778 38.6487C168.722 38.7747 168.694 38.8167 168.708 38.7327ZM168.4 39.8247C168.4 39.8667 168.358 40.0627 168.302 40.2727C168.246 40.4827 168.204 40.6087 168.19 40.5387C168.19 40.4127 168.386 39.7267 168.4 39.8247ZM167.98 41.5327C167.98 41.4627 167.994 41.4487 168.008 41.5047C168.022 41.5467 168.022 41.5887 168.008 41.6167C167.994 41.6307 167.98 41.6027 167.98 41.5327ZM167.924 41.8967C167.924 41.8267 167.938 41.8127 167.952 41.8547C167.966 41.8967 167.966 41.9527 167.952 41.9667C167.938 41.9807 167.924 41.9527 167.924 41.8967ZM167.868 43.2407C167.868 43.1847 167.882 43.1707 167.896 43.2127C167.924 43.2547 167.91 43.3107 167.896 43.3247C167.882 43.3387 167.868 43.3107 167.868 43.2407ZM167.882 44.5707C167.826 44.5707 167.812 44.5567 167.854 44.5427C167.896 44.5287 167.938 44.5287 167.952 44.5427C167.98 44.5707 167.938 44.5847 167.882 44.5707ZM167.98 42.6807L167.924 43.0727L167.952 42.6667C167.994 41.8827 168.288 40.5527 168.68 39.3067C169.184 37.7107 170.178 35.3307 170.71 34.4627C171.046 33.9027 171.186 33.7627 170.878 34.2807C169.828 36.0727 168.596 39.3907 168.162 41.5887C168.092 41.9667 168.008 42.4567 167.98 42.6807ZM168.414 40.9867C168.414 40.9307 168.428 40.8327 168.456 40.7767C168.484 40.7067 168.512 40.6927 168.512 40.7487C168.512 40.7907 168.484 40.8887 168.456 40.9447C168.428 41.0287 168.414 41.0427 168.414 40.9867ZM169.002 44.2907C168.932 44.3047 168.82 44.3327 168.764 44.3327C168.666 44.3327 168.68 44.3187 168.778 44.2907C168.862 44.2627 168.974 44.2347 169.03 44.2347C169.114 44.2347 169.114 44.2487 169.002 44.2907ZM171.228 43.5907C171.284 43.5767 171.368 43.5767 171.424 43.5907C171.48 43.6047 171.438 43.6187 171.326 43.6187C171.228 43.6187 171.186 43.6047 171.228 43.5907ZM170.934 43.6607C170.976 43.6327 171.018 43.6467 171.046 43.6607C171.06 43.6747 171.032 43.6887 170.976 43.6887C170.906 43.6887 170.892 43.6747 170.934 43.6607ZM170.612 43.7167C170.654 43.7027 170.696 43.7027 170.724 43.7167C170.738 43.7447 170.71 43.7587 170.654 43.7447C170.584 43.7447 170.57 43.7307 170.612 43.7167ZM169.842 44.0807C169.548 44.1507 169.268 44.2207 169.212 44.2207C169.17 44.2207 169.366 44.1507 169.646 44.0807C169.94 43.9967 170.22 43.9407 170.276 43.9407C170.332 43.9407 170.136 44.0107 169.842 44.0807ZM170.374 43.8147C170.318 43.8007 170.304 43.7867 170.346 43.7727C170.388 43.7587 170.43 43.7587 170.444 43.7727C170.472 43.8007 170.43 43.8147 170.374 43.8147ZM171.116 43.8147C170.822 43.8707 170.556 43.9267 170.486 43.9267C170.43 43.9127 170.598 43.8707 170.864 43.8147C171.13 43.7447 171.41 43.7027 171.494 43.7027C171.564 43.7027 171.396 43.7587 171.116 43.8147ZM171.62 43.5347C171.662 43.5207 171.746 43.5207 171.774 43.5347C171.816 43.5487 171.774 43.5627 171.676 43.5627C171.592 43.5627 171.564 43.5487 171.62 43.5347ZM171.816 43.6747C171.704 43.6747 171.662 43.6747 171.718 43.6607C171.774 43.6467 171.858 43.6467 171.914 43.6607C171.956 43.6747 171.914 43.6747 171.816 43.6747ZM172.124 43.4787C172.166 43.4647 172.222 43.4647 172.264 43.4787C172.292 43.4927 172.264 43.5067 172.194 43.5067C172.124 43.5067 172.096 43.4927 172.124 43.4787ZM172.306 43.6187C172.166 43.6187 172.11 43.6047 172.18 43.5907C172.25 43.5767 172.362 43.5767 172.418 43.5907C172.488 43.6047 172.432 43.6187 172.306 43.6187ZM172.88 43.5347C172.978 43.5207 173.132 43.5207 173.216 43.5347C173.286 43.5487 173.216 43.5627 173.034 43.5627C172.852 43.5627 172.782 43.5487 172.88 43.5347Z" fill="white"/>
<path d="M178.782 42.7647C178.866 43.5487 179.146 43.9967 179.72 44.3327C179.986 44.4867 180.07 44.5147 180.21 44.4587C180.406 44.4027 180.406 44.3187 180.21 44.2487C180.126 44.2207 180.042 44.1367 180.014 44.0247C179.692 43.0587 180.126 40.9307 181.288 37.8507C182.044 35.8487 182.324 34.8547 182.268 34.3507C182.254 34.1407 182.03 33.9167 181.792 33.8887C181.708 33.8747 181.638 33.8327 181.638 33.8047C181.638 33.7767 181.61 33.7767 181.582 33.8047C181.554 33.8187 181.526 33.8047 181.526 33.7627C181.526 33.5947 181.498 33.5387 181.372 33.5527C181.19 33.5667 181.12 33.6927 180.952 34.2807C180.868 34.5607 180.602 35.2047 180.364 35.7227C179.832 36.9267 179.678 37.2627 179.37 38.0607C178.866 39.3487 177.802 41.5887 177.298 42.4847C176.906 43.1707 176.01 44.3047 175.856 44.3187C175.702 44.3327 175.716 43.0447 175.87 42.1627C176.178 40.3847 176.514 39.1807 177.424 36.6467C178.236 34.3647 178.334 34.0007 178.208 33.8047C178.152 33.7347 178.096 33.6787 178.068 33.6787C177.998 33.6787 177.802 33.5107 177.746 33.3987C177.634 33.1467 177.298 33.3987 176.92 34.0287C175.758 35.9607 174.568 39.1947 174.204 41.4347C174.092 42.1487 174.092 42.2327 174.176 43.0587C174.26 43.8287 174.288 43.9687 174.428 44.2347C174.596 44.5847 175.002 44.9627 175.24 45.0047C175.324 45.0187 175.464 45.0747 175.562 45.1447C175.772 45.2847 176.094 45.2847 176.318 45.1307C176.542 44.9767 177.368 43.8287 177.76 43.1287C177.942 42.7927 178.292 42.1207 178.516 41.6307C178.74 41.1547 178.936 40.7767 178.95 40.7767C178.964 40.7907 178.936 40.9307 178.908 41.0847C178.782 41.6727 178.726 42.3167 178.782 42.7647ZM179.566 41.8967C179.552 41.9247 179.538 41.8967 179.524 41.8267C179.524 41.7567 179.538 41.7427 179.552 41.7847C179.58 41.8267 179.58 41.8827 179.566 41.8967ZM179.818 40.6507C179.804 40.7347 179.776 40.8467 179.748 40.9027C179.72 40.9587 179.72 40.9447 179.734 40.8467C179.748 40.7627 179.776 40.6507 179.79 40.5947C179.818 40.5387 179.832 40.5527 179.818 40.6507ZM181.596 35.2327C181.582 35.3167 181.26 36.2827 180.882 37.3747C180.49 38.4667 180.112 39.6007 180.028 39.9087C179.888 40.3987 179.832 40.5527 179.832 40.4547C179.818 40.4267 180.014 39.7267 180.126 39.3767C180.336 38.7047 181.624 35.0927 181.596 35.2327ZM179.986 38.7607C180 38.7047 180.028 38.6907 180.028 38.7187C180.028 38.7607 180.014 38.8167 179.986 38.8727C179.972 38.9287 179.944 38.9427 179.944 38.9147C179.944 38.8727 179.958 38.8027 179.986 38.7607ZM179.454 38.6067C179.482 38.5787 179.496 38.6067 179.482 38.6627C179.454 38.7607 179.426 38.7887 179.412 38.7047C179.412 38.6767 179.426 38.6347 179.454 38.6067ZM179.482 40.4547C179.51 40.4127 179.538 40.3847 179.538 40.4267C179.538 40.4547 179.524 40.5247 179.496 40.5667C179.482 40.6227 179.454 40.6367 179.454 40.6087C179.44 40.5807 179.468 40.5107 179.482 40.4547ZM179.23 41.6867C179.23 41.6167 179.244 41.6027 179.258 41.6447C179.286 41.6867 179.286 41.7427 179.272 41.7567C179.258 41.7847 179.23 41.7427 179.23 41.6867ZM179.272 42.3587C179.286 41.9527 179.608 40.4267 179.874 39.5447C180.126 38.7047 181.162 35.7507 181.204 35.7507C181.246 35.7367 181.19 35.9187 180.644 37.4727C180.042 39.2087 179.832 39.8527 179.636 40.6787C179.566 40.9867 179.454 41.5607 179.384 41.9387C179.328 42.3167 179.272 42.5127 179.272 42.3587ZM175.184 39.7407C175.212 39.6987 175.24 39.6847 175.24 39.7127C175.24 39.7407 175.226 39.8107 175.198 39.8667C175.184 39.9087 175.156 39.9227 175.156 39.8947C175.142 39.8667 175.17 39.7967 175.184 39.7407ZM175.072 40.2307C175.1 40.1747 175.114 40.1607 175.128 40.1887C175.128 40.2307 175.114 40.3007 175.086 40.3427C175.058 40.3987 175.044 40.4127 175.03 40.3847C175.03 40.3427 175.044 40.2867 175.072 40.2307ZM174.652 43.0587C174.596 42.7227 174.89 40.5947 174.988 40.6647C175.002 40.6787 174.988 40.8047 174.946 40.9447C174.918 41.0847 174.862 41.4627 174.806 41.7707C174.764 42.0787 174.722 42.5267 174.694 42.7507C174.68 42.9887 174.666 43.1287 174.652 43.0587ZM174.904 43.0727C174.89 43.5767 174.89 43.6047 174.848 43.2967C174.722 42.3167 175.156 40.1187 175.884 38.0607C176.374 36.7027 177.578 33.9027 177.676 33.8887C177.69 33.8887 177.55 34.2247 177.354 34.6447C176.024 37.5567 175.17 40.2447 174.946 42.2467C174.932 42.3867 174.904 42.7647 174.904 43.0727ZM175.534 43.1567C175.52 43.1847 175.506 43.1427 175.492 43.0867C175.492 43.0167 175.506 43.0027 175.534 43.0447C175.548 43.0867 175.548 43.1427 175.534 43.1567ZM175.142 42.4847C175.114 42.7507 175.086 42.9047 175.072 42.8487C175.002 42.3167 175.618 39.5167 176.122 38.0887C176.528 36.9547 177.746 34.0007 177.816 34.0007C177.83 34.0007 177.802 34.0987 177.746 34.2247C176.458 37.2067 175.772 39.1947 175.38 41.0987C175.282 41.6027 175.17 42.2187 175.142 42.4847Z" fill="white"/>
<path d="M187.904 42.6667C187.932 42.3307 187.918 42.2467 187.792 42.0087C187.722 41.8687 187.582 41.6727 187.498 41.5887C187.4 41.5047 187.274 41.3367 187.204 41.2107C186.938 40.7767 186.308 40.4827 185.3 40.3147C184.012 40.1187 183.788 40.0767 183.508 39.9647C183.102 39.8247 182.99 39.6987 183.032 39.3907C183.074 39.0687 183.368 38.4807 183.704 38.0327C184.628 36.8147 185.902 35.8487 187.554 35.1487C188.436 34.7707 189.626 34.4487 189.626 34.5747C189.626 34.6727 189.122 35.6667 188.772 36.2547C188.268 37.0947 187.764 38.0467 187.722 38.2987C187.666 38.5227 187.75 38.8447 187.848 38.8447C187.974 38.8447 188.422 38.4807 188.828 38.0607C189.654 37.2067 190.438 36.1007 190.648 35.5127C190.816 34.9947 190.76 34.4347 190.494 34.1407C190.438 34.0847 190.34 33.9167 190.27 33.7627C190.004 33.2167 189.444 33.1187 188.338 33.3987C186.868 33.7767 185.258 34.5887 184.152 35.4847C183.284 36.2127 182.668 36.9267 182.276 37.7247C182.038 38.2007 182.024 38.2427 182.024 38.6907C182.024 39.0827 182.038 39.1807 182.192 39.4887C182.276 39.6847 182.458 39.9647 182.584 40.1187C183.466 41.1827 183.718 41.3227 185.566 41.6167C186.098 41.7147 186.602 41.8127 186.686 41.8547C186.854 41.9247 186.854 42.0227 186.686 42.4567C186.378 43.2827 184.978 44.3047 183.914 44.4727C183.578 44.5147 183.536 44.5147 183.298 44.3887C183.158 44.3187 183.004 44.2067 182.976 44.1227C182.934 44.0527 182.864 43.9407 182.794 43.8847C182.71 43.8007 182.682 43.8007 182.64 43.8567C182.57 43.9687 182.654 44.1647 182.906 44.4727C183.228 44.9067 183.438 45.1027 183.788 45.2567C184.026 45.3687 184.18 45.4107 184.432 45.4107C185.286 45.4107 186.378 44.8787 187.204 44.0527C187.68 43.5767 187.876 43.1987 187.904 42.6667ZM189.15 36.4227C189.192 36.3947 189.164 36.4507 189.122 36.5207C189.066 36.6047 189.024 36.6607 189.01 36.6607C188.968 36.6607 189.094 36.4507 189.15 36.4227ZM188.296 38.1167C188.226 38.2007 188.184 38.2287 188.184 38.1867C188.184 38.1727 188.226 38.1307 188.282 38.0887C188.366 38.0327 188.366 38.0327 188.296 38.1167ZM188.786 37.5007C188.604 37.7387 188.422 37.9487 188.394 37.9767C188.338 38.0047 189.01 37.1087 189.136 36.9827C189.248 36.8707 189.206 36.9267 188.786 37.5007ZM189.78 35.6947C189.626 36.0167 189.108 36.8147 188.562 37.5707C188.324 37.9067 188.1 38.2007 188.072 38.2287C187.974 38.3267 188.086 38.1587 188.548 37.4867C188.8 37.1507 189.178 36.5907 189.388 36.2547C189.892 35.4567 189.906 35.4287 189.78 35.6947ZM185.286 35.6667C185.356 35.6247 185.412 35.5967 185.412 35.6107C185.412 35.6247 185.23 35.7787 184.992 35.9467C184.768 36.1147 184.376 36.4647 184.124 36.7167C183.872 36.9687 183.536 37.3607 183.368 37.5847C182.99 38.0747 182.906 38.1307 183.228 37.6827C183.676 37.0247 184.446 36.2407 184.992 35.8767C185.09 35.8067 185.23 35.7227 185.286 35.6667ZM184.866 35.7507C184.95 35.6807 184.95 35.6807 184.88 35.7647C184.81 35.8627 184.768 35.8907 184.768 35.8347C184.768 35.8347 184.81 35.7927 184.866 35.7507ZM183.256 37.0807C183.312 37.0387 183.27 37.1087 183.172 37.2347C183.074 37.3607 182.99 37.4587 182.976 37.4587C182.934 37.4587 183.158 37.1647 183.256 37.0807ZM182.64 38.2847C182.64 38.1867 183.102 37.4587 183.438 37.0667C183.606 36.8567 183.914 36.5487 184.11 36.3667C184.446 36.0867 184.432 36.1007 183.942 36.6187C183.648 36.9267 183.312 37.3047 183.2 37.4727C183.088 37.6267 182.92 37.8927 182.822 38.0467C182.724 38.2147 182.64 38.3127 182.64 38.2847ZM186.854 43.0587C186.924 42.9467 186.994 42.8627 186.994 42.8767C187.008 42.8767 186.966 42.9747 186.91 43.0867C186.742 43.3527 186.714 43.3247 186.854 43.0587ZM186.77 43.4227C186.896 43.2547 187.05 43.0447 187.092 42.9607C187.134 42.8767 187.19 42.7927 187.204 42.7927C187.232 42.7927 187.162 42.9747 187.036 43.1707C186.966 43.2687 186.826 43.4367 186.714 43.5487C186.532 43.7167 186.532 43.7167 186.77 43.4227ZM186.546 43.9267C186.476 44.0247 186.42 44.0527 186.42 44.0107C186.42 43.9967 186.462 43.9547 186.518 43.9127C186.602 43.8427 186.602 43.8427 186.546 43.9267ZM187.134 43.3527C187.106 43.4227 186.966 43.5627 186.84 43.6747C186.588 43.9127 186.658 43.8147 186.98 43.4787C187.092 43.3527 187.162 43.2967 187.134 43.3527Z" fill="white"/>
<path d="M201.211 35.8627H201.155L197.781 41.8407L194.407 35.8627H194.351V44.5567H193.539V34.7847H194.687L197.781 40.2867H197.823L200.917 34.7847H202.023V44.5567H201.211V35.8627Z" fill="white"/>
<path d="M207.269 44.7247C206.793 44.7247 206.359 44.6407 205.967 44.4727C205.584 44.3047 205.253 44.0621 204.973 43.7447C204.702 43.4181 204.492 43.0214 204.343 42.5547C204.203 42.0881 204.133 41.5607 204.133 40.9727C204.133 40.3847 204.203 39.8621 204.343 39.4047C204.492 38.9381 204.702 38.5461 204.973 38.2287C205.253 37.9021 205.584 37.6547 205.967 37.4867C206.349 37.3094 206.779 37.2207 207.255 37.2207C207.712 37.2207 208.127 37.3094 208.501 37.4867C208.874 37.6547 209.191 37.8927 209.453 38.2007C209.714 38.5087 209.915 38.8821 210.055 39.3207C210.204 39.7501 210.279 40.2261 210.279 40.7487V41.1267H204.973V41.4767C204.973 41.8501 205.024 42.1954 205.127 42.5127C205.239 42.8207 205.393 43.0867 205.589 43.3107C205.794 43.5347 206.041 43.7121 206.331 43.8427C206.62 43.9641 206.947 44.0247 207.311 44.0247C208.356 44.0247 209.079 43.5441 209.481 42.5827L210.069 42.9747C209.845 43.5067 209.49 43.9314 209.005 44.2487C208.529 44.5661 207.95 44.7247 207.269 44.7247ZM207.255 37.8927C206.909 37.8927 206.597 37.9581 206.317 38.0887C206.037 38.2101 205.794 38.3827 205.589 38.6067C205.393 38.8307 205.239 39.1014 205.127 39.4187C205.024 39.7267 204.973 40.0674 204.973 40.4407V40.5107H209.411V40.3987C209.411 40.0254 209.359 39.6847 209.257 39.3767C209.154 39.0594 209.005 38.7934 208.809 38.5787C208.622 38.3641 208.393 38.1961 208.123 38.0747C207.861 37.9534 207.572 37.8927 207.255 37.8927Z" fill="white"/>
<path d="M212.308 44.5567V37.3887H213.106V38.5227H213.148C213.223 38.3454 213.316 38.1821 213.428 38.0327C213.54 37.8741 213.676 37.7341 213.834 37.6127C213.993 37.4914 214.18 37.3981 214.394 37.3327C214.618 37.2581 214.88 37.2207 215.178 37.2207C215.692 37.2207 216.144 37.3421 216.536 37.5847C216.928 37.8274 217.213 38.2101 217.39 38.7327H217.432C217.563 38.3127 217.81 37.9581 218.174 37.6687C218.548 37.3701 219.052 37.2207 219.686 37.2207C220.452 37.2207 221.04 37.4587 221.45 37.9347C221.861 38.4014 222.066 39.0734 222.066 39.9507V44.5567H221.268V40.0907C221.268 38.6534 220.666 37.9347 219.462 37.9347C219.21 37.9347 218.972 37.9674 218.748 38.0327C218.524 38.0981 218.324 38.2007 218.146 38.3407C217.978 38.4714 217.843 38.6394 217.74 38.8447C217.638 39.0407 217.586 39.2694 217.586 39.5307V44.5567H216.788V40.0907C216.788 38.6534 216.191 37.9347 214.996 37.9347C214.754 37.9347 214.516 37.9674 214.282 38.0327C214.058 38.0981 213.858 38.1961 213.68 38.3267C213.503 38.4574 213.363 38.6254 213.26 38.8307C213.158 39.0267 213.106 39.2554 213.106 39.5167V44.5567H212.308Z" fill="white"/>
<path d="M224.572 34.1967H225.37V38.5367H225.412C225.589 38.1354 225.86 37.8181 226.224 37.5847C226.588 37.3421 227.045 37.2207 227.596 37.2207C228.52 37.2207 229.243 37.5474 229.766 38.2007C230.289 38.8541 230.55 39.7781 230.55 40.9727C230.55 42.1674 230.289 43.0914 229.766 43.7447C229.243 44.3981 228.52 44.7247 227.596 44.7247C227.045 44.7247 226.593 44.6081 226.238 44.3747C225.883 44.1321 225.608 43.8101 225.412 43.4087H225.37V44.5567H224.572V34.1967ZM227.414 44.0107C228.133 44.0107 228.693 43.7821 229.094 43.3247C229.495 42.8674 229.696 42.2514 229.696 41.4767V40.4687C229.696 39.6941 229.495 39.0781 229.094 38.6207C228.693 38.1634 228.133 37.9347 227.414 37.9347C227.134 37.9347 226.868 37.9767 226.616 38.0607C226.373 38.1354 226.159 38.2427 225.972 38.3827C225.785 38.5227 225.636 38.6907 225.524 38.8867C225.421 39.0827 225.37 39.2974 225.37 39.5307V42.3727C225.37 42.6247 225.421 42.8534 225.524 43.0587C225.636 43.2547 225.785 43.4274 225.972 43.5767C226.159 43.7167 226.373 43.8241 226.616 43.8987C226.868 43.9734 227.134 44.0107 227.414 44.0107Z" fill="white"/>
<path d="M235.173 44.7247C234.697 44.7247 234.263 44.6407 233.871 44.4727C233.488 44.3047 233.157 44.0621 232.877 43.7447C232.606 43.4181 232.396 43.0214 232.247 42.5547C232.107 42.0881 232.037 41.5607 232.037 40.9727C232.037 40.3847 232.107 39.8621 232.247 39.4047C232.396 38.9381 232.606 38.5461 232.877 38.2287C233.157 37.9021 233.488 37.6547 233.871 37.4867C234.254 37.3094 234.683 37.2207 235.159 37.2207C235.616 37.2207 236.032 37.3094 236.405 37.4867C236.778 37.6547 237.096 37.8927 237.357 38.2007C237.618 38.5087 237.819 38.8821 237.959 39.3207C238.108 39.7501 238.183 40.2261 238.183 40.7487V41.1267H232.877V41.4767C232.877 41.8501 232.928 42.1954 233.031 42.5127C233.143 42.8207 233.297 43.0867 233.493 43.3107C233.698 43.5347 233.946 43.7121 234.235 43.8427C234.524 43.9641 234.851 44.0247 235.215 44.0247C236.26 44.0247 236.984 43.5441 237.385 42.5827L237.973 42.9747C237.749 43.5067 237.394 43.9314 236.909 44.2487C236.433 44.5661 235.854 44.7247 235.173 44.7247ZM235.159 37.8927C234.814 37.8927 234.501 37.9581 234.221 38.0887C233.941 38.2101 233.698 38.3827 233.493 38.6067C233.297 38.8307 233.143 39.1014 233.031 39.4187C232.928 39.7267 232.877 40.0674 232.877 40.4407V40.5107H237.315V40.3987C237.315 40.0254 237.264 39.6847 237.161 39.3767C237.058 39.0594 236.909 38.7934 236.713 38.5787C236.526 38.3641 236.298 38.1961 236.027 38.0747C235.766 37.9534 235.476 37.8927 235.159 37.8927Z" fill="white"/>
<path d="M240.213 44.5567V37.3887H241.011V38.6767H241.067C241.207 38.3407 241.445 38.0421 241.781 37.7807C242.117 37.5194 242.593 37.3887 243.209 37.3887H243.685V38.1727H243.055C242.457 38.1727 241.967 38.3034 241.585 38.5647C241.202 38.8261 241.011 39.1901 241.011 39.6567V44.5567H240.213Z" fill="white"/>
<path d="M247.247 44.7247C246.621 44.7247 246.085 44.6081 245.637 44.3747C245.198 44.1414 244.815 43.8007 244.489 43.3527L245.077 42.8907C245.375 43.2827 245.702 43.5721 246.057 43.7587C246.411 43.9454 246.827 44.0387 247.303 44.0387C247.853 44.0387 248.278 43.9221 248.577 43.6887C248.875 43.4554 249.025 43.1194 249.025 42.6807C249.025 42.2981 248.908 41.9994 248.675 41.7847C248.451 41.5607 248.077 41.4114 247.555 41.3367L246.967 41.2387C246.64 41.1921 246.341 41.1221 246.071 41.0287C245.8 40.9354 245.567 40.8094 245.371 40.6507C245.184 40.4921 245.035 40.3007 244.923 40.0767C244.82 39.8434 244.769 39.5634 244.769 39.2367C244.769 38.9007 244.829 38.6067 244.951 38.3547C245.081 38.1027 245.254 37.8927 245.469 37.7247C245.683 37.5567 245.94 37.4307 246.239 37.3467C246.537 37.2627 246.859 37.2207 247.205 37.2207C247.802 37.2207 248.292 37.3234 248.675 37.5287C249.057 37.7341 249.384 38.0001 249.655 38.3267L249.123 38.8167C248.936 38.5927 248.684 38.3874 248.367 38.2007C248.059 38.0047 247.657 37.9067 247.163 37.9067C246.649 37.9067 246.248 38.0187 245.959 38.2427C245.679 38.4667 245.539 38.7841 245.539 39.1947C245.539 39.6147 245.665 39.9181 245.917 40.1047C246.178 40.2914 246.565 40.4267 247.079 40.5107L247.653 40.5947C248.381 40.7067 248.917 40.9261 249.263 41.2527C249.617 41.5701 249.795 42.0181 249.795 42.5967C249.795 43.2687 249.566 43.7914 249.109 44.1647C248.661 44.5381 248.04 44.7247 247.247 44.7247Z" fill="white"/>
</g>
<path d="M239.54 79.144C238.836 79.144 238.236 79.016 237.74 78.76C237.252 78.504 236.832 78.16 236.48 77.728L237.416 76.852C237.712 77.212 238.036 77.484 238.388 77.668C238.748 77.852 239.156 77.944 239.612 77.944C240.148 77.944 240.552 77.824 240.824 77.584C241.096 77.344 241.232 77.02 241.232 76.612C241.232 76.284 241.136 76.024 240.944 75.832C240.752 75.64 240.412 75.496 239.924 75.4L239.18 75.268C238.364 75.116 237.752 74.848 237.344 74.464C236.936 74.08 236.732 73.552 236.732 72.88C236.732 72.512 236.8 72.18 236.936 71.884C237.08 71.58 237.276 71.328 237.524 71.128C237.78 70.92 238.088 70.76 238.448 70.648C238.808 70.536 239.212 70.48 239.66 70.48C240.292 70.48 240.84 70.592 241.304 70.816C241.768 71.032 242.164 71.348 242.492 71.764L241.544 72.604C241.328 72.324 241.064 72.1 240.752 71.932C240.44 71.764 240.052 71.68 239.588 71.68C239.108 71.68 238.736 71.776 238.472 71.968C238.208 72.16 238.076 72.44 238.076 72.808C238.076 73.16 238.184 73.424 238.4 73.6C238.616 73.768 238.952 73.896 239.408 73.984L240.152 74.14C240.992 74.3 241.604 74.572 241.988 74.956C242.38 75.34 242.576 75.868 242.576 76.54C242.576 76.932 242.508 77.288 242.372 77.608C242.236 77.928 242.036 78.204 241.772 78.436C241.516 78.66 241.2 78.836 240.824 78.964C240.448 79.084 240.02 79.144 239.54 79.144Z" fill="white"/>
<path d="M247.888 77.968H247.84C247.784 78.12 247.708 78.268 247.612 78.412C247.524 78.556 247.408 78.684 247.264 78.796C247.128 78.9 246.96 78.984 246.76 79.048C246.568 79.112 246.344 79.144 246.088 79.144C245.44 79.144 244.936 78.936 244.576 78.52C244.224 78.104 244.048 77.508 244.048 76.732V72.76H245.356V76.564C245.356 77.532 245.756 78.016 246.556 78.016C246.724 78.016 246.888 77.996 247.048 77.956C247.208 77.908 247.348 77.84 247.468 77.752C247.596 77.664 247.696 77.552 247.768 77.416C247.848 77.28 247.888 77.12 247.888 76.936V72.76H249.196V79H247.888V77.968Z" fill="white"/>
<path d="M251.069 70.12H252.377V73.792H252.437C252.573 73.416 252.793 73.128 253.097 72.928C253.409 72.72 253.773 72.616 254.189 72.616C254.981 72.616 255.593 72.904 256.025 73.48C256.457 74.048 256.673 74.848 256.673 75.88C256.673 76.912 256.457 77.716 256.025 78.292C255.593 78.86 254.981 79.144 254.189 79.144C253.773 79.144 253.409 79.04 253.097 78.832C252.793 78.624 252.573 78.336 252.437 77.968H252.377V79H251.069V70.12ZM253.793 78.016C254.249 78.016 254.613 77.872 254.885 77.584C255.157 77.288 255.293 76.9 255.293 76.42V75.34C255.293 74.86 255.157 74.476 254.885 74.188C254.613 73.892 254.249 73.744 253.793 73.744C253.393 73.744 253.057 73.844 252.785 74.044C252.513 74.236 252.377 74.492 252.377 74.812V76.948C252.377 77.268 252.513 77.528 252.785 77.728C253.057 77.92 253.393 78.016 253.793 78.016Z" fill="white"/>
<path d="M260.151 79.144C259.559 79.144 259.063 79.04 258.663 78.832C258.263 78.624 257.915 78.336 257.619 77.968L258.459 77.2C258.691 77.48 258.947 77.7 259.227 77.86C259.515 78.012 259.847 78.088 260.223 78.088C260.607 78.088 260.891 78.016 261.075 77.872C261.267 77.72 261.363 77.512 261.363 77.248C261.363 77.048 261.295 76.88 261.159 76.744C261.031 76.6 260.803 76.508 260.475 76.468L259.899 76.396C259.259 76.316 258.755 76.132 258.387 75.844C258.027 75.548 257.847 75.112 257.847 74.536C257.847 74.232 257.903 73.964 258.015 73.732C258.127 73.492 258.283 73.292 258.483 73.132C258.691 72.964 258.935 72.836 259.215 72.748C259.503 72.66 259.819 72.616 260.163 72.616C260.723 72.616 261.179 72.704 261.531 72.88C261.891 73.056 262.211 73.3 262.491 73.612L261.687 74.38C261.527 74.188 261.315 74.024 261.051 73.888C260.795 73.744 260.499 73.672 260.163 73.672C259.803 73.672 259.535 73.744 259.359 73.888C259.191 74.032 259.107 74.22 259.107 74.452C259.107 74.692 259.183 74.872 259.335 74.992C259.487 75.112 259.731 75.2 260.067 75.256L260.643 75.328C261.331 75.432 261.831 75.636 262.143 75.94C262.463 76.236 262.623 76.636 262.623 77.14C262.623 77.444 262.563 77.72 262.443 77.968C262.331 78.208 262.167 78.416 261.951 78.592C261.735 78.768 261.475 78.904 261.171 79C260.867 79.096 260.527 79.144 260.151 79.144Z" fill="white"/>
<path d="M266.513 79.144C266.065 79.144 265.665 79.068 265.313 78.916C264.961 78.764 264.665 78.548 264.425 78.268C264.185 77.98 264.001 77.636 263.873 77.236C263.745 76.828 263.681 76.376 263.681 75.88C263.681 75.384 263.745 74.936 263.873 74.536C264.001 74.128 264.185 73.784 264.425 73.504C264.665 73.216 264.961 72.996 265.313 72.844C265.665 72.692 266.065 72.616 266.513 72.616C267.137 72.616 267.649 72.756 268.049 73.036C268.449 73.316 268.741 73.688 268.925 74.152L267.845 74.656C267.757 74.368 267.601 74.14 267.377 73.972C267.161 73.796 266.873 73.708 266.513 73.708C266.033 73.708 265.669 73.86 265.421 74.164C265.181 74.46 265.061 74.848 265.061 75.328V76.444C265.061 76.924 265.181 77.316 265.421 77.62C265.669 77.916 266.033 78.064 266.513 78.064C266.897 78.064 267.201 77.972 267.425 77.788C267.657 77.596 267.841 77.344 267.977 77.032L268.973 77.56C268.765 78.072 268.453 78.464 268.037 78.736C267.621 79.008 267.113 79.144 266.513 79.144Z" fill="white"/>
<path d="M270.218 79V72.76H271.526V73.96H271.586C271.674 73.64 271.858 73.36 272.138 73.12C272.418 72.88 272.806 72.76 273.302 72.76H273.65V74.02H273.134C272.614 74.02 272.214 74.104 271.934 74.272C271.662 74.44 271.526 74.688 271.526 75.016V79H270.218Z" fill="white"/>
<path d="M275.471 71.644C275.199 71.644 274.999 71.58 274.871 71.452C274.751 71.324 274.691 71.16 274.691 70.96V70.756C274.691 70.556 274.751 70.392 274.871 70.264C274.999 70.136 275.199 70.072 275.471 70.072C275.743 70.072 275.939 70.136 276.059 70.264C276.179 70.392 276.239 70.556 276.239 70.756V70.96C276.239 71.16 276.179 71.324 276.059 71.452C275.939 71.58 275.743 71.644 275.471 71.644ZM274.811 72.76H276.119V79H274.811V72.76Z" fill="white"/>
<path d="M277.987 70.12H279.295V73.792H279.355C279.491 73.416 279.711 73.128 280.015 72.928C280.327 72.72 280.691 72.616 281.107 72.616C281.899 72.616 282.511 72.904 282.943 73.48C283.375 74.048 283.591 74.848 283.591 75.88C283.591 76.912 283.375 77.716 282.943 78.292C282.511 78.86 281.899 79.144 281.107 79.144C280.691 79.144 280.327 79.04 280.015 78.832C279.711 78.624 279.491 78.336 279.355 77.968H279.295V79H277.987V70.12ZM280.711 78.016C281.167 78.016 281.531 77.872 281.803 77.584C282.075 77.288 282.211 76.9 282.211 76.42V75.34C282.211 74.86 282.075 74.476 281.803 74.188C281.531 73.892 281.167 73.744 280.711 73.744C280.311 73.744 279.975 73.844 279.703 74.044C279.431 74.236 279.295 74.492 279.295 74.812V76.948C279.295 77.268 279.431 77.528 279.703 77.728C279.975 77.92 280.311 78.016 280.711 78.016Z" fill="white"/>
<path d="M287.537 79.144C287.089 79.144 286.689 79.068 286.337 78.916C285.985 78.764 285.685 78.548 285.437 78.268C285.189 77.98 284.997 77.636 284.861 77.236C284.733 76.828 284.669 76.376 284.669 75.88C284.669 75.384 284.733 74.936 284.861 74.536C284.997 74.128 285.189 73.784 285.437 73.504C285.685 73.216 285.985 72.996 286.337 72.844C286.689 72.692 287.089 72.616 287.537 72.616C287.993 72.616 288.393 72.696 288.737 72.856C289.089 73.016 289.381 73.24 289.613 73.528C289.845 73.808 290.017 74.136 290.129 74.512C290.249 74.888 290.309 75.292 290.309 75.724V76.216H286.025V76.42C286.025 76.9 286.165 77.296 286.445 77.608C286.733 77.912 287.141 78.064 287.669 78.064C288.053 78.064 288.377 77.98 288.641 77.812C288.905 77.644 289.129 77.416 289.313 77.128L290.081 77.884C289.849 78.268 289.513 78.576 289.073 78.808C288.633 79.032 288.121 79.144 287.537 79.144ZM287.537 73.636C287.313 73.636 287.105 73.676 286.913 73.756C286.729 73.836 286.569 73.948 286.433 74.092C286.305 74.236 286.205 74.408 286.133 74.608C286.061 74.808 286.025 75.028 286.025 75.268V75.352H288.929V75.232C288.929 74.752 288.805 74.368 288.557 74.08C288.309 73.784 287.969 73.636 287.537 73.636Z" fill="white"/>
<path d="M296.945 74.368L296.021 72.592H295.985V79H294.689V70.624H296.201L298.937 75.256L299.861 77.032H299.897V70.624H301.193V79H299.681L296.945 74.368Z" fill="white"/>
<path d="M305.607 79.144C305.175 79.144 304.779 79.068 304.419 78.916C304.067 78.764 303.767 78.548 303.519 78.268C303.271 77.98 303.079 77.636 302.943 77.236C302.807 76.828 302.739 76.376 302.739 75.88C302.739 75.384 302.807 74.936 302.943 74.536C303.079 74.128 303.271 73.784 303.519 73.504C303.767 73.216 304.067 72.996 304.419 72.844C304.779 72.692 305.175 72.616 305.607 72.616C306.039 72.616 306.431 72.692 306.783 72.844C307.143 72.996 307.447 73.216 307.695 73.504C307.943 73.784 308.135 74.128 308.271 74.536C308.407 74.936 308.475 75.384 308.475 75.88C308.475 76.376 308.407 76.828 308.271 77.236C308.135 77.636 307.943 77.98 307.695 78.268C307.447 78.548 307.143 78.764 306.783 78.916C306.431 79.068 306.039 79.144 305.607 79.144ZM305.607 78.064C306.055 78.064 306.415 77.928 306.687 77.656C306.959 77.376 307.095 76.96 307.095 76.408V75.352C307.095 74.8 306.959 74.388 306.687 74.116C306.415 73.836 306.055 73.696 305.607 73.696C305.159 73.696 304.799 73.836 304.527 74.116C304.255 74.388 304.119 74.8 304.119 75.352V76.408C304.119 76.96 304.255 77.376 304.527 77.656C304.799 77.928 305.159 78.064 305.607 78.064Z" fill="white"/>
<path d="M309.227 72.76H310.499L311.135 75.376L311.699 77.74H311.735L312.383 75.376L313.139 72.76H314.315L315.083 75.376L315.743 77.74H315.779L316.331 75.376L316.979 72.76H318.191L316.511 79H315.035L314.219 76.156L313.715 74.404H313.691L313.199 76.156L312.371 79H310.931L309.227 72.76Z" fill="white"/>
<path opacity="0.94" d="M46.1389 41.6238L43.8083 46.4893C43.0335 48.107 41.3989 49.1365 39.6052 49.1365L33.5594 49.1365C32.4513 49.1365 31.7198 47.9834 32.192 46.9809L38.2262 34.1699C38.9328 32.6697 40.4421 31.7122 42.1005 31.7122L57.2209 31.7122C58.1445 31.7122 58.754 32.6734 58.3602 33.5088L55.523 39.5284C54.92 40.8076 53.633 41.6238 52.2188 41.6238L46.1389 41.6238Z" fill="white"/>
<path opacity="0.83" d="M39.0682 30.5126L41.3987 25.6472C42.1736 24.0294 43.8081 23 45.6018 23H51.6476C52.7558 23 53.4872 24.153 53.015 25.1556L46.9808 37.9665C46.2742 39.4668 44.7649 40.4242 43.1065 40.4242H27.9862C27.0625 40.4242 26.453 39.4631 26.8468 38.6276L29.6841 32.608C30.287 31.3289 31.5741 30.5126 32.9882 30.5126H39.0682Z" fill="white"/>
<path d="M50.3363 68.3761C50.4083 68.5201 50.7443 68.4721 50.7923 68.3281C50.8163 68.2561 50.7923 68.1121 50.7443 68.0401C50.6483 67.9441 50.6243 67.3921 50.6723 65.7361C50.7203 63.4801 50.7923 62.9761 50.9603 62.9281C51.0083 62.9041 51.3443 62.8321 51.7283 62.7361C53.7203 62.2801 55.5443 61.1041 57.9203 58.7281C59.7203 56.9281 60.6563 55.5601 61.2323 53.8321C61.4483 53.1361 61.4723 52.9201 61.4723 51.9121C61.4723 50.8081 61.4723 50.7361 61.1843 50.1601C61.0403 49.8481 60.6803 49.2721 60.4163 48.9361C59.3603 47.5441 58.6643 47.0881 57.2003 46.7761C55.2563 46.3681 53.2163 46.7281 51.4883 47.7841C50.4563 48.3841 49.0883 49.5361 48.4643 50.2561C47.7923 51.0721 47.1923 52.2241 47.1203 52.8721C47.0483 53.4481 47.2163 53.8081 47.7443 54.3121C48.1523 54.6961 48.5363 54.7921 48.3443 54.4561C48.2243 54.2161 48.3203 53.8081 48.6563 53.1361C49.5683 51.3361 51.6323 49.7041 53.9843 48.9361C55.0403 48.5761 56.6003 48.5041 57.6803 48.7921C58.6643 49.0321 59.4083 49.3921 59.5283 49.6801C59.6483 50.0161 59.6243 51.0001 59.4803 51.6961C58.9763 54.0721 57.2963 56.4481 54.4883 58.7041C53.1443 59.7841 51.4643 60.8881 51.3203 60.7441C51.2483 60.6961 52.0403 58.3441 52.4963 57.2401C52.7363 56.6881 53.3123 55.3201 53.7923 54.2401C54.2963 53.1361 54.7283 52.0321 54.7763 51.7441C54.8963 51.2401 54.8963 51.2401 54.6323 51.0241C54.4883 50.9041 54.3443 50.8321 54.2963 50.8561C54.2483 50.8801 54.2003 50.8561 54.2003 50.8081C54.2003 50.7601 54.1523 50.7121 54.0803 50.7121C54.0323 50.7121 53.9123 50.6161 53.8643 50.4961C53.7203 50.1601 53.3603 50.1841 52.9523 50.5681C52.5443 50.9521 51.6083 52.6561 51.0083 54.1921C50.4083 55.6801 49.2083 59.3521 48.9923 60.3601C48.7043 61.7521 48.7283 61.7281 48.1043 61.6561C47.6963 61.6081 47.5523 61.5601 47.3363 61.3201C47.0483 61.0081 46.9043 60.9841 46.9043 61.2241C46.9043 61.4881 47.4323 62.0401 48.0323 62.4721C48.3683 62.7121 48.5363 62.8561 48.4883 62.9521C48.3923 63.1921 48.4403 65.6641 48.5363 66.1201C48.7283 66.9841 49.5443 68.1601 50.0003 68.2561C50.1683 68.2801 50.3123 68.3281 50.3363 68.3761ZM49.0643 50.7841C49.2083 50.6881 49.2083 50.6881 49.1123 50.8321C48.9923 50.9761 48.8963 51.0241 48.8963 50.9521C48.8963 50.9281 48.9683 50.8561 49.0643 50.7841ZM47.9123 52.4881C48.1043 52.0801 48.5843 51.3121 48.7763 51.1681C48.8723 51.0961 48.8243 51.1921 48.6803 51.3841C48.5363 51.5521 48.2963 51.9601 48.1283 52.2961C47.8163 52.8721 47.7203 52.9681 47.9123 52.4881ZM49.7123 50.5921C48.9203 51.4321 48.8243 51.5521 48.5603 51.9601C48.4403 52.1761 48.3203 52.3681 48.2963 52.3681C48.0803 52.3681 49.3283 50.7841 49.9043 50.3041C50.0963 50.1601 50.0243 50.2561 49.7123 50.5921ZM58.7123 55.3681C59.2883 54.4561 59.3603 54.3601 59.0963 54.9121C58.9523 55.1761 58.7123 55.5121 58.5683 55.6801C58.4243 55.8721 58.4723 55.7521 58.7123 55.3681ZM58.2563 56.4241C58.7603 55.7521 59.3363 54.8881 59.5523 54.4561C59.6483 54.2641 59.7443 54.1201 59.7683 54.1441C59.8403 54.2161 59.1443 55.3921 58.6883 56.0161C58.4483 56.3521 58.1603 56.7121 58.0403 56.8081C57.9203 56.9041 58.0163 56.7361 58.2563 56.4241ZM57.5843 57.2641C57.7043 57.1201 57.8243 57.0241 57.8483 57.0241C57.8723 57.0241 57.8003 57.1201 57.6803 57.2641C57.5603 57.3841 57.4403 57.4801 57.4163 57.4801C57.3923 57.4801 57.4883 57.3841 57.5843 57.2641ZM57.6083 57.6961C58.0163 57.2401 58.6163 56.4961 58.9283 56.0641C59.8403 54.8161 59.8643 54.8641 58.9763 56.1361C58.7123 56.5441 58.1123 57.2401 57.6563 57.6961L56.8403 58.5361L57.6083 57.6961ZM54.1763 51.0001C54.2003 51.0481 54.0803 51.3601 53.8883 51.7201C52.6163 54.2401 51.3923 57.2641 50.6483 59.7121C50.5043 60.2161 50.3363 60.7921 50.2883 60.9601C50.2403 61.1281 50.1923 61.2241 50.1923 61.1521C50.1683 60.6241 51.6083 56.4241 52.5443 54.3361C53.2643 52.7281 54.1283 50.9521 54.1763 51.0001ZM53.6483 51.3361C53.7923 51.2161 53.7923 51.2401 53.6723 51.4081C53.6003 51.5041 53.5283 51.6001 53.5043 51.6241C53.4803 51.6481 53.4803 51.6241 53.4803 51.5521C53.4803 51.5041 53.5523 51.4081 53.6483 51.3361ZM49.8563 61.0561C50.0723 59.9521 51.0083 57.1681 51.7763 55.2481C52.4723 53.5921 53.3843 51.6721 53.4563 51.7441C53.4803 51.7921 53.4563 51.8641 53.4083 51.9121C53.3123 52.0561 52.3523 54.1201 52.0403 54.8641C51.2243 56.8801 50.5283 58.8961 50.1683 60.2161C49.9043 61.2721 49.7363 61.6801 49.8563 61.0561ZM49.2323 64.0081C49.2083 64.0561 49.1843 63.9841 49.2083 63.8401C49.2083 63.6961 49.2323 63.6481 49.2323 63.7201C49.2563 63.8161 49.2563 63.9361 49.2323 64.0081ZM49.5203 63.9841C49.4723 64.4641 49.4723 65.1841 49.4963 65.5921C49.5203 66.0241 49.5203 66.3601 49.4963 66.3601C49.3523 66.3601 49.3523 63.2401 49.4963 63.0721C49.5923 62.9761 49.6163 63.1441 49.5203 63.9841ZM49.8323 63.8881C49.8083 64.3681 49.7843 64.7761 49.7603 64.8001C49.7123 64.8721 49.7603 63.5761 49.8323 63.2881C49.8563 63.1441 49.8803 63.4081 49.8323 63.8881Z" fill="white"/>
<path d="M66.705 46.9441C66.585 46.8481 66.369 46.6561 66.225 46.5121C66.009 46.2961 65.937 46.2721 65.745 46.3441C65.625 46.3921 65.457 46.5121 65.385 46.6081C65.073 46.9441 64.545 47.9041 64.185 48.7441C63.393 50.5681 62.001 55.0801 61.521 57.2881C61.089 59.2801 61.041 59.6161 61.041 61.5841C61.041 63.3361 61.065 63.5761 61.257 64.1521C61.617 65.3521 62.097 65.8321 63.153 66.1921C63.825 66.4081 64.185 66.1681 63.705 65.8081C63.585 65.6881 63.369 65.3521 63.273 65.0641C63.081 64.5601 63.057 64.3681 63.057 62.8321C63.081 61.3441 63.105 60.9841 63.321 59.9521C63.729 58.0321 64.401 55.6801 65.673 51.7921C66.321 49.7761 66.873 47.9281 66.921 47.6401C66.945 47.1841 66.945 47.1121 66.705 46.9441ZM65.241 48.2881C65.313 48.1441 65.385 48.0961 65.385 48.1441C65.385 48.1921 65.313 48.3361 65.241 48.4561C65.169 48.5761 65.121 48.6481 65.121 48.6001C65.121 48.5521 65.169 48.4081 65.241 48.2881ZM65.025 48.8161C65.073 48.7441 65.121 48.7201 65.121 48.7921C65.121 48.8401 65.073 48.9361 65.025 49.0081C64.977 49.0801 64.929 49.1041 64.929 49.0561C64.929 49.0081 64.977 48.9121 65.025 48.8161ZM64.833 49.2721C64.881 49.2001 64.929 49.1761 64.929 49.2481C64.929 49.2961 64.881 49.3921 64.833 49.4641C64.785 49.5361 64.761 49.5601 64.761 49.5121C64.761 49.4641 64.785 49.3681 64.833 49.2721ZM64.665 49.7521C64.713 49.6561 64.737 49.6561 64.737 49.7041C64.737 49.7521 64.713 49.8481 64.665 49.9201C64.617 49.9921 64.569 50.0161 64.569 49.9681C64.569 49.9201 64.617 49.8241 64.665 49.7521ZM64.353 50.5681C64.377 50.4481 64.449 50.2801 64.497 50.2081C64.545 50.1121 64.545 50.1361 64.521 50.2801C64.473 50.4241 64.425 50.5921 64.377 50.6641C64.305 50.7601 64.305 50.7121 64.353 50.5681ZM64.113 51.2401C64.209 51.0001 64.281 50.8561 64.281 50.9281C64.281 51.0001 64.209 51.2641 64.113 51.5281C64.017 51.7681 63.945 51.9121 63.945 51.8401C63.945 51.7681 64.017 51.5041 64.113 51.2401ZM63.825 52.1281C63.873 52.0321 63.921 52.0321 63.921 52.0801C63.897 52.2481 63.753 52.5361 63.753 52.3921C63.753 52.3201 63.777 52.2001 63.825 52.1281ZM61.713 62.5201C61.689 62.6641 61.665 62.5441 61.665 62.2801C61.665 61.9921 61.689 61.8721 61.713 62.0161C61.737 62.1601 61.737 62.3761 61.713 62.5201ZM61.785 60.6001C61.761 60.6961 61.761 60.6241 61.761 60.4561C61.761 60.2641 61.761 60.1921 61.785 60.2881C61.809 60.3601 61.809 60.5041 61.785 60.6001ZM61.881 59.6881C61.905 59.7601 61.905 59.8561 61.881 59.9281C61.857 59.9761 61.833 59.9281 61.833 59.8081C61.833 59.6881 61.857 59.6161 61.881 59.6881ZM62.313 60.9361C62.265 61.3921 62.241 61.7761 62.217 61.8001C62.169 61.8721 62.193 60.8401 62.265 60.4801C62.337 60.2401 62.337 60.3841 62.313 60.9361ZM64.473 52.3921C64.161 53.3281 63.705 54.8881 63.417 55.8721C63.129 56.8561 62.769 58.2001 62.625 58.8961C62.481 59.5681 62.385 59.9041 62.409 59.6161C62.481 59.0401 62.985 56.8801 63.345 55.7041C63.825 54.0721 64.953 50.6401 64.977 50.6641C65.001 50.6881 64.761 51.4801 64.473 52.3921ZM65.433 49.6081C65.193 50.2321 65.025 50.5681 65.169 50.1121C65.313 49.6321 65.601 48.9121 65.625 48.9361C65.649 48.9601 65.553 49.2481 65.433 49.6081ZM65.937 48.2881C65.889 48.3601 65.841 48.3841 65.841 48.3121C65.841 48.2641 65.889 48.1681 65.937 48.0961C65.985 48.0241 66.033 48.0001 66.033 48.0481C66.033 48.0961 65.985 48.1921 65.937 48.2881ZM65.817 47.8801C65.241 49.2001 64.545 51.0481 63.993 52.8481C62.385 57.9121 61.977 59.8801 62.001 62.3761C62.001 63.1201 61.977 63.7441 61.953 63.7441C61.929 63.7441 61.905 63.5521 61.905 63.3121C61.905 63.0721 61.881 62.7841 61.857 62.6881C61.785 62.3041 62.025 59.9041 62.241 58.7521C62.481 57.6001 62.937 55.8001 63.417 54.2641C63.969 52.4641 64.569 50.6161 64.905 49.7281C65.313 48.6721 66.129 46.8721 66.177 46.9441C66.201 46.9441 66.033 47.3761 65.817 47.8801Z" fill="white"/>
<path d="M66.2282 65.4721C66.4202 65.5681 66.7082 65.7121 66.8522 65.7841C67.4762 66.1201 68.0762 65.5441 69.1562 63.5761L69.8042 62.4481L69.8522 63.1921C69.9482 64.6321 70.3082 65.3761 71.2202 65.9761C71.4362 66.1441 71.6522 66.2641 71.7002 66.2641C71.8442 66.2881 71.8442 66.0721 71.7002 65.3521C71.6042 64.7761 71.5802 64.2961 71.6042 63.4081C71.7002 61.6561 72.0122 60.3121 73.1402 56.9281C73.4522 56.0401 73.6922 55.2001 73.6682 55.0561C73.6442 54.8641 73.5482 54.7681 73.3322 54.6721C73.1882 54.6001 73.0202 54.4561 72.9962 54.3841C72.9722 54.2641 72.8522 54.2161 72.7322 54.2161C72.2762 54.2161 71.6762 55.2241 70.9802 57.1441C70.7882 57.6721 70.5482 58.2721 70.4282 58.4641C70.3082 58.6561 70.1162 59.0881 69.9722 59.4241C69.3482 60.9361 68.1962 63.1681 67.6442 63.8881C67.3322 64.2961 67.0442 64.6321 66.9962 64.6321C66.8762 64.6321 66.8042 63.6481 66.8522 62.7601C66.9962 61.0801 67.4762 59.0881 68.3402 56.5681L68.7962 55.2961L68.5322 55.0801C68.3882 54.9361 68.2442 54.8641 68.1962 54.8881C68.1482 54.9361 68.1002 54.9121 68.1002 54.8401C68.1002 54.7921 68.0762 54.7681 68.0282 54.7921C67.9802 54.8161 67.9082 54.7441 67.8362 54.6241C67.6922 54.2881 67.3562 54.3121 67.0442 54.6721C66.9242 54.8401 66.6122 55.3681 66.3722 55.8481C65.5802 57.4321 64.9322 59.5201 64.7162 61.2961C64.4762 63.2161 65.1002 64.9441 66.2282 65.4721ZM72.3962 56.7601C72.3482 56.8561 72.3242 56.8561 72.3242 56.8081C72.3242 56.7601 72.3482 56.6641 72.3962 56.5921C72.4442 56.5201 72.4922 56.4961 72.4922 56.5441C72.4922 56.5921 72.4442 56.6881 72.3962 56.7601ZM72.5882 56.3041C72.5402 56.3761 72.4922 56.4001 72.4922 56.3521C72.4922 56.3041 72.5402 56.2081 72.5882 56.1361C72.6362 56.0641 72.6842 56.0401 72.6842 56.0881C72.6842 56.1361 72.6362 56.2321 72.5882 56.3041ZM72.7802 55.8481C72.7322 55.9201 72.6842 55.9441 72.6842 55.8961C72.6842 55.8481 72.7322 55.7521 72.7802 55.6801C72.8282 55.5841 72.8522 55.5841 72.8522 55.6321C72.8522 55.6801 72.8282 55.7761 72.7802 55.8481ZM72.9482 55.2241C72.9962 55.1281 73.0442 55.1281 73.0442 55.1761C73.0442 55.2241 72.9962 55.3201 72.9482 55.3921C72.9002 55.4641 72.8522 55.4881 72.8522 55.4401C72.8522 55.3921 72.9002 55.2961 72.9482 55.2241ZM71.9882 56.8561C72.1082 56.4961 72.7802 54.9841 72.8762 54.8881C72.9242 54.8401 72.7322 55.2961 72.4922 55.8961C72.0362 56.9521 71.8442 57.3361 71.9882 56.8561ZM70.9082 60.5281C70.9322 60.2881 71.0042 60.0241 71.0522 59.9281C71.1002 59.8081 71.1002 59.8801 71.0522 60.0961C70.9802 60.6721 70.8362 61.0081 70.9082 60.5281ZM70.8122 61.1041C70.8362 61.1761 70.8362 61.2961 70.8122 61.3681C70.7882 61.4401 70.7642 61.3681 70.7642 61.2001C70.7642 61.0561 70.7882 61.0081 70.8122 61.1041ZM66.2522 60.6241C66.2282 60.6961 66.2042 60.6481 66.2042 60.5281C66.2042 60.3841 66.2282 60.3361 66.2522 60.4081C66.2762 60.4561 66.2762 60.5761 66.2522 60.6241ZM66.3242 60.2161C66.3002 60.2401 66.2762 60.1921 66.2762 60.0961C66.2762 60.0001 66.3002 59.9761 66.3482 60.0481C66.3722 60.1201 66.3482 60.1921 66.3242 60.2161ZM66.4202 59.8081C66.3962 59.8801 66.3722 59.8321 66.3722 59.6881C66.3722 59.5681 66.3962 59.5201 66.4202 59.5921C66.4442 59.6401 66.4442 59.7361 66.4202 59.8081ZM66.7562 58.5601C66.6602 58.9921 66.5402 59.2561 66.6122 58.8721C66.6362 58.7041 66.7082 58.4881 66.7322 58.4161C66.8042 58.3201 66.8042 58.3681 66.7562 58.5601ZM67.7402 55.8001C67.8122 55.7521 67.7882 55.8721 67.6922 56.0881C67.5962 56.2801 67.3802 56.8561 67.1642 57.3601C66.9722 57.8641 66.8282 58.1521 66.8762 58.0081C66.9482 57.6241 67.6442 55.9201 67.7402 55.8001ZM66.3962 58.3681C66.7082 57.4081 67.4762 55.5601 67.5242 55.6081C67.5482 55.6321 67.4042 56.0401 67.2122 56.4961C66.7562 57.5521 66.2522 59.2081 66.0122 60.4081C65.8922 60.9121 65.7722 61.6081 65.7242 61.9441L65.6522 62.5681L65.6762 61.8721C65.7482 60.9361 66.0362 59.5201 66.3962 58.3681ZM66.1802 58.3201C66.2282 58.2481 66.2762 58.2241 66.2762 58.2721C66.2762 58.3201 66.2282 58.4401 66.1802 58.5121C66.1322 58.5841 66.0842 58.6081 66.0842 58.5601C66.0842 58.5121 66.1322 58.3921 66.1802 58.3201ZM65.9162 59.1841C65.9162 59.0881 65.9402 59.0641 65.9642 59.1361C65.9882 59.1841 65.9882 59.2801 65.9642 59.3041C65.9402 59.3281 65.9162 59.2801 65.9162 59.1841ZM65.8202 59.5441C65.8202 59.4481 65.8442 59.4241 65.8682 59.4961C65.9162 59.5681 65.8922 59.6401 65.8682 59.6641C65.8442 59.7121 65.8202 59.6401 65.8202 59.5441ZM65.7242 59.9281C65.7482 59.8081 65.7482 59.7841 65.7962 59.8561C65.8202 59.9281 65.8202 60.0001 65.7722 60.0481C65.7482 60.0721 65.7242 60.0241 65.7242 59.9281ZM65.6282 60.3841C65.7002 60.1441 65.7002 60.1201 65.7002 60.3361C65.7002 60.4561 65.6762 60.6721 65.6282 60.7921C65.5802 60.9841 65.5562 60.9841 65.5562 60.8401C65.5562 60.7441 65.6042 60.5281 65.6282 60.3841ZM65.5082 61.2721C65.5322 61.3681 65.5322 61.4881 65.5082 61.5601C65.4842 61.6081 65.4602 61.5361 65.4602 61.3921C65.4602 61.2481 65.4842 61.1761 65.5082 61.2721Z" fill="white"/>
<path d="M79.4333 54.5761C79.2413 54.4561 78.9053 54.2401 78.6893 54.0961C77.9453 53.5681 76.9853 53.7841 76.0253 54.6721C75.2813 55.3681 74.8493 56.2321 74.7053 57.2641C74.5853 58.3441 74.9213 59.3041 76.0013 60.8641C76.6493 61.8241 76.8173 62.3041 76.7453 63.0001C76.6493 64.0081 75.8573 64.7761 74.8013 64.9201C74.2973 64.9921 74.2733 64.9921 73.9133 64.6801C73.6973 64.5121 73.4573 64.2721 73.3853 64.1521C73.3133 64.0081 73.2173 63.9121 73.1693 63.9361C73.1213 63.9361 73.0493 63.8881 73.0013 63.8161C72.9533 63.7201 72.8813 63.7681 72.7133 63.9841C72.5933 64.1281 72.4733 64.3201 72.4733 64.4161C72.4733 64.8481 73.8893 65.8561 74.9453 66.1921C75.2093 66.2641 75.6413 66.2881 76.1693 66.2641C77.4653 66.1921 78.3533 65.6881 78.8333 64.7041C79.0493 64.2481 79.0733 64.1281 79.0493 63.5281C79.0013 62.7841 78.8333 62.4481 77.9213 60.9841C77.5853 60.4801 77.2253 59.8321 77.1293 59.5441C76.7213 58.4881 77.0573 57.0241 77.9213 56.0641C78.2333 55.7281 78.6653 55.4161 78.8333 55.4161C78.8813 55.4161 78.8813 55.9441 78.8333 56.5681L78.7853 57.7201L79.0733 57.8401C79.2413 57.9121 79.3373 57.9841 79.2893 57.9841C79.2413 57.9841 79.2413 58.0321 79.3133 58.0801C79.5773 58.3441 80.0573 57.7201 80.2973 56.8081C80.4173 56.3281 80.4413 56.1601 80.3453 55.8001C80.2013 55.2721 79.9133 54.8641 79.4333 54.5761ZM78.0173 63.9121C78.0893 63.7441 78.1373 63.6721 78.1373 63.7441C78.1373 63.8881 77.8733 64.3921 77.8733 64.2721C77.8733 64.2481 77.9213 64.0801 78.0173 63.9121ZM77.7053 63.6481C77.8253 63.0721 77.8493 63.0241 77.8733 63.3841C77.8733 63.5761 77.8013 63.7921 77.7293 63.8881C77.6333 64.0561 77.6093 64.0321 77.7053 63.6481ZM77.5613 63.2641C77.5853 63.3361 77.5853 63.4321 77.5613 63.5041C77.5373 63.5521 77.5133 63.5041 77.5133 63.3841C77.5133 63.2641 77.5373 63.1921 77.5613 63.2641ZM75.6413 57.0481C75.6173 57.0721 75.5933 57.0241 75.5933 56.9281C75.5933 56.8081 75.6173 56.8081 75.6413 56.8801C75.6653 56.9281 75.6653 57.0241 75.6413 57.0481ZM75.8573 57.4321C75.8573 57.5281 75.8333 57.6241 75.7853 57.6481C75.6413 57.7441 75.8333 56.8321 76.0253 56.4481C76.1453 56.2321 76.2413 56.0641 76.2653 56.0641C76.2893 56.0641 76.1933 56.3281 76.0733 56.6641C75.9533 57.0001 75.8573 57.3361 75.8573 57.4321ZM76.6253 56.2321C76.5053 56.5201 76.3373 56.8801 76.2653 57.0721L76.1453 57.3841L76.1933 57.0721C76.2413 56.7121 76.4813 56.2081 76.7213 55.9201C76.8173 55.8241 76.7693 55.9681 76.6253 56.2321ZM79.4813 56.9521C79.4573 56.9761 79.4333 56.9281 79.4333 56.8321C79.4333 56.7361 79.4573 56.7121 79.4813 56.7841C79.5053 56.8321 79.5053 56.9281 79.4813 56.9521Z" fill="white"/>
<defs>
<linearGradient id="paint0_linear" x1="-13.695" y1="-7.67709" x2="53.4132" y2="187.122" gradientUnits="userSpaceOnUse">
<stop stop-color="#FA5457"/>
<stop offset="1" stop-color="#CF2E73"/>
</linearGradient>
<linearGradient id="paint1_linear" x1="215.299" y1="59.6797" x2="233.593" y2="119.994" gradientUnits="userSpaceOnUse">
<stop stop-color="#FA5457"/>
<stop offset="1" stop-color="#CF2E73"/>
</linearGradient>
</defs>
</svg>
