<svg width="48" height="48" viewBox="0 0 48 48" fill="none" xmlns="http://www.w3.org/2000/svg">
<path d="M26 22V45C26 45.55 25.1 46 24 46C22.9 46 22 45.55 22 45V22H26Z" fill="url(#paint0_linear)"/>
<path d="M26 22V45C26 45.55 25.1 46 24 46C22.9 46 22 45.55 22 45V22H26Z" fill="url(#paint1_linear)"/>
<path d="M24 25C30.0751 25 35 20.0751 35 14C35 7.92487 30.0751 3 24 3C17.9249 3 13 7.92487 13 14C13 20.0751 17.9249 25 24 25Z" fill="url(#paint2_radial)"/>
<defs>
<linearGradient id="paint0_linear" x1="22" y1="34" x2="26" y2="34" gradientUnits="userSpaceOnUse">
<stop offset="0.073" stop-color="#808080"/>
<stop offset="0.107" stop-color="#8A8A8A"/>
<stop offset="0.164" stop-color="#A4A4A4"/>
<stop offset="0.238" stop-color="#CFCFCF"/>
<stop offset="0.301" stop-color="#F9F9F9"/>
<stop offset="0.331" stop-color="#F1F1F1"/>
<stop offset="0.463" stop-color="#D2D2D2"/>
<stop offset="0.574" stop-color="#BFBFBF"/>
<stop offset="0.652" stop-color="#B8B8B8"/>
<stop offset="0.737" stop-color="#B1B1B1"/>
<stop offset="0.859" stop-color="#9E9E9E"/>
<stop offset="1" stop-color="#808080"/>
</linearGradient>
<linearGradient id="paint1_linear" x1="24" y1="46" x2="24" y2="22" gradientUnits="userSpaceOnUse">
<stop stop-color="#BABABA"/>
<stop offset="0.014" stop-color="#BABABA" stop-opacity="0.89"/>
<stop offset="0.045" stop-color="#B9B9B9" stop-opacity="0.682"/>
<stop offset="0.079" stop-color="#B9B9B9" stop-opacity="0.497"/>
<stop offset="0.116" stop-color="#B9B9B9" stop-opacity="0.342"/>
<stop offset="0.157" stop-color="#B8B8B8" stop-opacity="0.216"/>
<stop offset="0.204" stop-color="#B8B8B8" stop-opacity="0.119"/>
<stop offset="0.26" stop-color="#B8B8B8" stop-opacity="0.051"/>
<stop offset="0.334" stop-color="#B8B8B8" stop-opacity="0.011"/>
<stop offset="0.5" stop-color="#B8B8B8" stop-opacity="0"/>
<stop offset="0.915" stop-color="#4F4F4F"/>
</linearGradient>
<radialGradient id="paint2_radial" cx="0" cy="0" r="1" gradientUnits="userSpaceOnUse" gradientTransform="translate(21.067 10.883) scale(16.964)">
<stop stop-color="#FFAB94"/>
<stop offset="0.105" stop-color="#F3816E"/>
<stop offset="0.291" stop-color="#DE3C2F"/>
<stop offset="0.378" stop-color="#D62116"/>
<stop offset="0.391" stop-color="#D32016"/>
<stop offset="0.537" stop-color="#B81813"/>
<stop offset="0.665" stop-color="#A71312"/>
<stop offset="0.762" stop-color="#A11111"/>
<stop offset="0.797" stop-color="#A71816"/>
<stop offset="0.877" stop-color="#AF201E"/>
<stop offset="1" stop-color="#B22320"/>
</radialGradient>
</defs>
</svg>
