<svg width="24" height="24" viewBox="0 0 24 24" fill="none" xmlns="http://www.w3.org/2000/svg">
<path d="M3 3.75V9H2.25V10.5H3.75C3.75 10.625 3.6947 10.7637 3.47314 11.0112C3.25159 11.2587 2.88876 11.5594 2.49463 11.918C1.70636 12.6352 0.75 13.6953 0.75 15.2974V15.7852L1.19678 15.9829C1.19678 15.9829 1.47604 16.0996 1.69922 16.1924C1.57232 16.5204 1.5 16.8763 1.5 17.25C1.5 18.898 2.852 20.25 4.5 20.25C5.92807 20.25 7.13036 19.2334 7.42676 17.8901C7.89079 17.9562 8.34932 18 8.78906 18H12.9961C13.8586 18 14.6803 17.6793 15.334 17.1255C15.3669 17.1138 15.8495 16.9666 16.5395 16.7871C16.5158 16.9388 16.5 17.0924 16.5 17.25C16.5 18.898 17.852 20.25 19.5 20.25C21.148 20.25 22.5 18.898 22.5 17.25C22.5 16.8169 22.4031 16.4063 22.2363 16.0327C22.3263 16.0316 22.4091 16.0239 22.5 16.0239H23.25V14.8198L23.168 14.6602C22.8492 14.0343 22.2603 13.4499 21.4922 12.9346C20.8846 12.5269 20.1612 12.189 19.374 12.0615C19.1521 11.0204 18.4688 8.47109 16.6187 6H18V3.75H16.125C15.6361 3.75 15.2239 4.06406 15.0688 4.5H12.75V6H14.6323C15.423 6.86229 16.0143 7.76875 16.4795 8.63086C16.3731 9.73709 15.4519 11.1971 14.439 12.3398C13.4469 13.4591 12.6008 14.1288 12.4512 14.25H10.5C10.1783 14.25 9.95052 14.1729 9.86133 14.1108C9.77214 14.0487 9.75 14.0493 9.75 13.8428C9.75 13.3883 10.0012 12.9531 10.3623 12.4409C10.6606 12.0179 11.0091 11.5224 11.1431 10.8853C11.2129 10.7689 11.2499 10.6357 11.25 10.5C11.25 9.95339 10.9446 9.47318 10.5 9.21094V3.75H3ZM4.5 5.25H6V6.75H7.5V5.25H9V9H4.5V5.25ZM5.25 10.5H9.75C9.75 10.6235 9.52654 11.0252 9.13769 11.5767C8.74885 12.1281 8.25 12.8647 8.25 13.8428C8.25 14.4508 8.55509 15.0299 9.00439 15.3428C9.4537 15.6557 9.97571 15.75 10.5 15.75H12.75C12.9197 15.7502 13.0844 15.6929 13.2173 15.5874C13.2173 15.5874 14.3874 14.6585 15.561 13.3345C16.2346 12.5745 16.9308 11.6841 17.4082 10.7109C17.7305 11.6282 17.8751 12.3178 17.9121 12.5229L14.4902 15.8892V15.8877C14.0908 16.2799 13.5547 16.5 12.9961 16.5H8.78906C7.51859 16.5 5.72948 16.039 4.30225 15.5625C3.78565 15.39 3.42683 15.2565 3.13477 15.1421C3.08807 15.118 3.03898 15.0988 2.98828 15.085C2.73947 14.9848 2.53842 14.898 2.38184 14.8315C2.53349 14.1056 2.92331 13.5579 3.50537 13.0283C3.86124 12.7045 4.24841 12.3926 4.58936 12.0117C4.9303 11.6308 5.25 11.125 5.25 10.5ZM19.0269 13.5308C19.5658 13.6003 20.1536 13.8433 20.6572 14.1812C20.9081 14.3494 20.9649 14.486 21.1538 14.6704C21.1095 14.6732 21.069 14.6777 21.0249 14.6807C20.9391 14.6466 20.8477 14.6288 20.7554 14.6279C20.6164 14.6273 20.48 14.6654 20.3613 14.7378C19.3262 14.8307 18.4392 14.964 17.6294 15.1069C17.6211 15.1083 17.6128 15.1097 17.6045 15.1113C17.5294 15.1246 17.4516 15.1375 17.3789 15.1509L19.0269 13.5308ZM20.4741 16.1221C20.792 16.3964 21 16.7918 21 17.25C21 18.0875 20.3375 18.75 19.5 18.75C18.6625 18.75 18 18.0875 18 17.25C18 16.9322 18.1006 16.6462 18.2666 16.4048C18.9206 16.2887 19.6676 16.1921 20.4741 16.1221ZM3.10254 16.7183C3.35918 16.8114 3.53826 16.8882 3.82764 16.9849C4.48392 17.204 5.21326 17.4183 5.95605 17.5986C5.80105 18.2633 5.21657 18.75 4.5 18.75C3.6625 18.75 3 18.0875 3 17.25C3 17.0609 3.0368 16.8832 3.10254 16.7183Z" fill="url(#paint0_linear)"/>
<defs>
<linearGradient id="paint0_linear" x1="-0.169811" y1="2.33203" x2="19.9257" y2="23.5438" gradientUnits="userSpaceOnUse">
<stop stop-color="#FA5457"/>
<stop offset="1" stop-color="#CF2E73"/>
</linearGradient>
</defs>
</svg>
