<svg width="32" height="18" viewBox="0 0 32 18" fill="none" xmlns="http://www.w3.org/2000/svg">
<path fill-rule="evenodd" clip-rule="evenodd" d="M2.74576 0.882568C1.22932 0.882568 0 2.11189 0 3.62833V14.6114C0 16.1278 1.22932 17.3571 2.74576 17.3571H28.4383C29.9547 17.3571 31.184 16.1278 31.184 14.6114V3.62833C31.184 2.11189 29.9547 0.882568 28.4383 0.882568H2.74576ZM17.2516 2.76792C17.3363 2.85265 17.4634 2.96562 17.534 3.0221C17.6752 3.12095 17.6752 3.16331 17.6611 3.43161C17.6328 3.60106 17.3081 4.68839 16.9268 5.87456C16.1784 8.16217 15.783 9.54603 15.5429 10.6757C15.4158 11.2829 15.4017 11.4947 15.3876 12.3702C15.3876 13.274 15.4017 13.387 15.5147 13.6835C15.5712 13.853 15.6983 14.0507 15.7689 14.1213C16.0513 14.3331 15.8395 14.4743 15.4441 14.3472C14.8228 14.1354 14.5403 13.853 14.3285 13.1469C14.2156 12.808 14.2014 12.6668 14.2014 11.636C14.2014 10.478 14.2297 10.2803 14.4839 9.10828C14.7663 7.80914 15.5853 5.15438 16.0513 4.08118C16.2631 3.58694 16.5738 3.0221 16.7573 2.82441C16.7997 2.76792 16.8986 2.69732 16.9692 2.66907C17.0821 2.62671 17.1245 2.64083 17.2516 2.76792ZM16.7573 3.72815C16.7573 3.69991 16.715 3.72815 16.6726 3.81288C16.6303 3.88349 16.602 3.96821 16.602 3.99645C16.602 4.0247 16.6303 3.98233 16.6726 3.91173C16.715 3.84112 16.7573 3.7564 16.7573 3.72815ZM16.602 4.10942C16.602 4.06706 16.5738 4.08118 16.5455 4.12354C16.5173 4.18003 16.489 4.23651 16.489 4.26475C16.489 4.293 16.5173 4.27887 16.5455 4.23651C16.5738 4.19415 16.602 4.13766 16.602 4.10942ZM16.489 4.37772C16.489 4.33536 16.4608 4.34948 16.4326 4.39184C16.4043 4.44833 16.3902 4.50481 16.3902 4.53305C16.3902 4.5613 16.4043 4.54718 16.4326 4.50481C16.4608 4.46245 16.489 4.40596 16.489 4.37772ZM16.3761 4.64602C16.3761 4.61778 16.362 4.61778 16.3337 4.67426C16.3055 4.71663 16.2772 4.77311 16.2772 4.80135C16.2772 4.8296 16.3055 4.81548 16.3337 4.77311C16.362 4.73075 16.3761 4.67426 16.3761 4.64602ZM16.2349 4.94256C16.2066 4.98493 16.1643 5.08378 16.1501 5.15438C16.1219 5.23911 16.1219 5.26735 16.1643 5.21087C16.1868 5.17698 16.2094 5.10696 16.232 5.03693C16.2377 5.01942 16.2433 5.00188 16.249 4.98493C16.2631 4.9002 16.2631 4.88608 16.2349 4.94256ZM16.1078 5.3662C16.1078 5.32383 16.0654 5.40856 16.0089 5.54977C15.9524 5.7051 15.9101 5.86043 15.9101 5.9028C15.9101 5.94516 15.9524 5.86043 16.0089 5.71922C16.0654 5.56389 16.1078 5.40856 16.1078 5.3662ZM15.896 6.04401C15.896 6.01577 15.8677 6.01577 15.8395 6.07225C15.8112 6.11461 15.7971 6.18522 15.7971 6.22758C15.7971 6.31231 15.8818 6.14286 15.896 6.04401ZM14.5686 12.0455C14.5686 12.2008 14.5827 12.2714 14.5968 12.1867C14.6109 12.1019 14.6109 11.9749 14.5968 11.8901C14.5827 11.8054 14.5686 11.876 14.5686 12.0455ZM14.6251 10.9723C14.6251 11.0711 14.6251 11.1135 14.6392 11.057C14.6533 11.0005 14.6533 10.9158 14.6392 10.8734C14.6251 10.8169 14.6251 10.8593 14.6251 10.9723ZM14.6957 10.6616C14.7098 10.6192 14.7098 10.5627 14.6957 10.5204C14.6815 10.478 14.6674 10.5204 14.6674 10.591C14.6674 10.6616 14.6815 10.6898 14.6957 10.6616ZM14.9252 11.5093C14.9321 11.434 14.9401 11.3468 14.9498 11.2547C14.964 10.9299 14.964 10.8452 14.9216 10.9864C14.8792 11.1982 14.8651 11.8054 14.8934 11.763C14.9026 11.7538 14.9119 11.6532 14.9252 11.5093ZM15.607 8.24915C15.7768 7.66902 16.0399 6.77013 16.2207 6.22758C16.3902 5.69098 16.5314 5.22499 16.5173 5.21087C16.5032 5.19674 15.8395 7.21606 15.5571 8.17629C15.3452 8.86822 15.0487 10.1391 15.0063 10.478C14.9922 10.6475 15.0487 10.4498 15.1334 10.0544C15.2181 9.64488 15.43 8.8541 15.5994 8.27514L15.607 8.24915ZM16.6303 4.88608C16.5455 5.15438 16.6444 4.95669 16.7856 4.58954C16.8562 4.37772 16.9127 4.20827 16.8986 4.19415C16.8844 4.18003 16.715 4.60366 16.6303 4.88608ZM17.0256 3.827C17.0256 3.86936 17.0539 3.85524 17.0821 3.81288C17.1104 3.7564 17.1386 3.69991 17.1386 3.67167C17.1386 3.64343 17.1104 3.65755 17.0821 3.69991C17.0539 3.74227 17.0256 3.79876 17.0256 3.827ZM15.9383 6.49588C16.2631 5.4368 16.6726 4.34948 17.0115 3.57282C17.1386 3.27628 17.2375 3.0221 17.2233 3.0221C17.1951 2.97974 16.715 4.03882 16.4749 4.66014C16.2772 5.18262 15.9242 6.26995 15.5994 7.32903C15.317 8.23277 15.0487 9.29185 14.9075 9.96966C14.7804 10.6475 14.6392 12.0596 14.6815 12.2855C14.6957 12.342 14.7098 12.5115 14.7098 12.6527C14.7098 12.7939 14.7239 12.9068 14.738 12.9068C14.7522 12.9068 14.7663 12.5397 14.7663 12.1019C14.7522 10.6334 14.9922 9.47543 15.9383 6.49588ZM8.17129 15.604C8.14305 15.6887 7.94536 15.7169 7.90299 15.6322C7.88887 15.604 7.80415 15.5757 7.7053 15.5616C7.437 15.5051 6.95688 14.8132 6.84391 14.3048C6.78743 14.0365 6.75919 12.5821 6.81567 12.4409C6.84391 12.3844 6.74507 12.2996 6.54737 12.1584C6.19434 11.9043 5.88368 11.5795 5.88368 11.4241C5.88368 11.2829 5.96841 11.297 6.13786 11.4806C6.26495 11.6218 6.34968 11.6501 6.58973 11.6783L6.60967 11.6806C6.73308 11.695 6.81123 11.704 6.86821 11.6736C6.96661 11.6209 7.00185 11.4502 7.09795 10.9848L7.11221 10.9158C7.2393 10.3227 7.94536 8.16217 8.29838 7.28666C8.65141 6.38291 9.20213 5.38032 9.44219 5.15438C9.68225 4.92844 9.89406 4.91432 9.97879 5.11202C10.007 5.18262 10.0776 5.23911 10.1059 5.23911C10.1482 5.23911 10.1765 5.26735 10.1765 5.29559C10.1765 5.32383 10.2047 5.33795 10.233 5.32383C10.2612 5.30971 10.3459 5.35208 10.4307 5.42268C10.586 5.54977 10.586 5.54977 10.5154 5.84631C10.4871 6.01577 10.233 6.66534 9.93643 7.3149C9.74439 7.74699 9.52624 8.25742 9.36188 8.64198C9.28452 8.82298 9.21908 8.9761 9.17389 9.08004C8.90559 9.72961 8.43959 11.1135 8.48196 11.1417C8.56668 11.2264 9.55516 10.5769 10.3459 9.94142C11.9981 8.61404 12.9866 7.21606 13.2831 5.81807C13.3678 5.40856 13.382 4.8296 13.3114 4.6319C13.2408 4.46245 12.803 4.25063 12.224 4.10942C11.5886 3.93997 10.6707 3.98233 10.0494 4.19415C8.66553 4.64602 7.45112 5.60626 6.91452 6.66534C6.71682 7.06073 6.66034 7.30078 6.73095 7.44199C6.84391 7.63969 6.61798 7.58321 6.37792 7.35727C6.06726 7.06073 5.96841 6.84891 6.01077 6.51C6.05313 6.12874 6.40616 5.45092 6.80155 4.97081C7.1687 4.54718 7.9736 3.86936 8.5808 3.51634C9.59752 2.89501 10.7978 2.6832 11.9416 2.92325C12.803 3.10683 13.2125 3.37513 13.8338 4.19415C13.9892 4.39184 14.201 4.73075 14.2857 4.91432C14.4552 5.25323 14.4552 5.29559 14.4552 5.94516C14.4552 6.53825 14.441 6.66534 14.314 7.07485C13.9751 8.09156 13.4243 8.89646 12.3652 9.95554C10.9673 11.3535 9.89406 12.0455 8.72202 12.3138C8.63572 12.3353 8.55354 12.3549 8.48335 12.3715C8.36978 12.3985 8.2876 12.418 8.27014 12.4267C8.17129 12.455 8.12893 12.7515 8.10069 14.0789C8.07245 15.0532 8.08657 15.378 8.14305 15.4345C8.17129 15.4769 8.18541 15.5616 8.17129 15.604ZM7.15458 5.28147C7.0981 5.32383 7.05573 5.3662 7.05573 5.38032C7.05573 5.42268 7.11221 5.39444 7.18282 5.30971C7.21106 5.26735 7.22518 5.24617 7.22165 5.24264C7.21812 5.23911 7.19693 5.25323 7.15458 5.28147ZM6.98512 5.50741C6.87216 5.59213 6.58973 6.04401 6.47677 6.28407C6.3638 6.56649 6.42028 6.51 6.60386 6.1711C6.7027 5.9734 6.84391 5.73334 6.92864 5.6345C7.01337 5.52153 7.04161 5.46504 6.98512 5.50741ZM6.85804 5.9734C7.01337 5.73334 7.06985 5.66274 7.53585 5.1685C7.71942 4.97081 7.76178 4.91432 7.64881 4.99905C7.30991 5.28147 6.57561 6.21346 6.7027 6.21346C6.71682 6.21346 6.78743 6.10049 6.85804 5.9734ZM13.0572 7.71029C13.2125 7.38551 13.1702 7.44199 12.8312 7.97859C12.69 8.20453 12.6618 8.27514 12.7465 8.16217C12.8312 8.06332 12.9725 7.86563 13.0572 7.71029ZM13.3255 7.44199C13.1984 7.69617 12.8595 8.20453 12.5629 8.59992C12.4217 8.7835 12.3653 8.88234 12.4359 8.82586C12.5065 8.76937 12.6759 8.55756 12.8171 8.35986C13.0854 7.99271 13.4949 7.30078 13.4526 7.25842C13.4385 7.2443 13.382 7.32903 13.3255 7.44199ZM12.3229 8.95295C12.3088 8.95295 12.2382 9.00943 12.1676 9.09416C12.1474 9.11934 12.1273 9.14272 12.1103 9.16238C12.0798 9.19787 12.0596 9.22125 12.0687 9.22125C12.0828 9.22125 12.1534 9.16476 12.224 9.09416C12.2946 9.00943 12.337 8.95295 12.3229 8.95295ZM12.9583 8.38811C12.7748 8.64228 12.4217 9.08004 12.1817 9.34834L11.7298 9.84258L12.2099 9.34834C12.4782 9.08004 12.8312 8.67053 12.9866 8.43047C13.5091 7.68205 13.4949 7.65381 12.9583 8.38811ZM9.99291 5.83219C10.1059 5.62038 10.1765 5.4368 10.1624 5.40856C10.1341 5.38032 9.62576 6.42528 9.20213 7.37139C8.65141 8.59992 7.80415 11.0711 7.81827 11.3818C7.81827 11.4241 7.84651 11.3677 7.87475 11.2688C7.88507 11.2327 7.90483 11.1645 7.92987 11.078C7.97335 10.9279 8.03285 10.7225 8.08657 10.5345C8.52432 9.09416 9.2445 7.3149 9.99291 5.83219ZM9.86582 5.64862C9.93643 5.54977 9.93643 5.53565 9.8517 5.60626C9.79522 5.64862 9.75285 5.7051 9.75285 5.73334C9.75285 5.77571 9.75285 5.78983 9.76698 5.77571C9.7811 5.76159 9.82346 5.7051 9.86582 5.64862ZM8.75026 7.90799C8.29838 9.03767 7.74766 10.6757 7.62057 11.3253C7.54997 11.6924 7.64881 11.4524 7.80415 10.831C8.01596 10.0544 8.42547 8.86822 8.90559 7.68205C9.08916 7.2443 9.65401 6.02989 9.71049 5.94516C9.73873 5.91692 9.75285 5.87456 9.73873 5.84631C9.69637 5.80395 9.15977 6.93364 8.75026 7.90799ZM7.2393 12.9633C7.22518 13.0481 7.2393 13.0904 7.25342 13.0622C7.26755 13.0198 7.26755 12.9492 7.25342 12.8927C7.25342 12.8504 7.2393 12.8786 7.2393 12.9633ZM7.40876 13.9942C7.39464 13.7541 7.39464 13.3305 7.42288 13.0481C7.47936 12.5538 7.46524 12.455 7.40876 12.5115C7.32403 12.6103 7.32403 14.446 7.40876 14.446C7.42288 14.446 7.42288 14.2483 7.40876 13.9942ZM7.56409 13.5282C7.57821 13.5141 7.59233 13.274 7.60645 12.9916C7.63469 12.7092 7.62057 12.5538 7.60645 12.6385C7.56409 12.808 7.53585 13.5705 7.56409 13.5282ZM17.2535 13.9236L17.6206 14.1071C17.9878 14.3048 18.3408 13.9659 18.9762 12.808L19.3575 12.1443L19.3857 12.5821C19.4422 13.4293 19.654 13.8671 20.1906 14.2201C20.3177 14.319 20.4448 14.3896 20.4731 14.3896C20.5578 14.4037 20.5578 14.2766 20.4731 13.853C20.4166 13.5141 20.4025 13.2316 20.4166 12.7092C20.4731 11.6783 20.6566 10.8875 21.3203 8.89646C21.5039 8.37398 21.6451 7.87975 21.631 7.79502C21.6169 7.68205 21.5604 7.62557 21.4333 7.56908C21.3486 7.52672 21.2497 7.44199 21.2356 7.39963C21.2215 7.32903 21.1509 7.30078 21.0803 7.30078C20.812 7.30078 20.4589 7.89387 20.0494 9.02355C19.9365 9.33422 19.7952 9.68724 19.7246 9.80021C19.654 9.91318 19.5411 10.1674 19.4563 10.3651C19.0892 11.2547 18.4114 12.5679 18.0866 12.9916C17.903 13.2316 17.7336 13.4293 17.7053 13.4293C17.6347 13.4293 17.5924 12.8504 17.6206 12.3279C17.7053 11.3394 17.9878 10.1674 18.4961 8.68465L18.7644 7.93623L18.6091 7.80914C18.5244 7.72442 18.4396 7.68205 18.4114 7.69617C18.3831 7.72441 18.3549 7.7103 18.3549 7.66793C18.3549 7.63969 18.3408 7.62557 18.3125 7.63969C18.2843 7.65381 18.2419 7.61145 18.1996 7.54084C18.1148 7.34315 17.9171 7.35727 17.7336 7.56908C17.663 7.66793 17.4794 7.97859 17.3382 8.26102C16.8722 9.19301 16.4909 10.4215 16.3638 11.4665C16.2226 12.5962 16.5898 13.6129 17.2535 13.9236ZM20.8826 8.79762C20.8543 8.8541 20.8402 8.8541 20.8402 8.82586C20.8402 8.79762 20.8543 8.74113 20.8826 8.69877C20.9108 8.65641 20.9391 8.64228 20.9391 8.67053C20.9391 8.69877 20.9108 8.75525 20.8826 8.79762ZM20.9955 8.52932C20.9673 8.57168 20.9391 8.5858 20.9391 8.55756C20.9391 8.52932 20.9673 8.47283 20.9955 8.43047C21.0238 8.38811 21.052 8.37398 21.052 8.40223C21.052 8.43047 21.0238 8.48695 20.9955 8.52932ZM21.1085 8.26102C21.0803 8.30338 21.052 8.3175 21.052 8.28926C21.052 8.26102 21.0803 8.20453 21.1085 8.16217C21.1367 8.10568 21.1509 8.10568 21.1509 8.13393C21.1509 8.16217 21.1367 8.21865 21.1085 8.26102ZM21.2074 7.89387C21.2356 7.83738 21.2638 7.83738 21.2638 7.86563C21.2638 7.89387 21.2356 7.95035 21.2074 7.99271C21.1791 8.03508 21.1509 8.0492 21.1509 8.02096C21.1509 7.99271 21.1791 7.93623 21.2074 7.89387ZM20.6425 8.8541C20.7131 8.64228 21.1085 7.75266 21.165 7.69617C21.1871 7.67406 21.1226 7.83376 21.0258 8.0736L21.0253 8.075C20.9986 8.14107 20.9695 8.2132 20.9391 8.28926C20.6708 8.91059 20.5578 9.13652 20.6425 8.8541ZM20.0071 11.0146C20.0212 10.8734 20.0635 10.7181 20.0918 10.6616C20.12 10.591 20.12 10.6334 20.0918 10.7604C20.0494 11.0994 19.9647 11.297 20.0071 11.0146ZM19.9506 11.3535C19.9647 11.3959 19.9647 11.4665 19.9506 11.5089C19.9365 11.5512 19.9223 11.5089 19.9223 11.41C19.9223 11.3253 19.9365 11.297 19.9506 11.3535ZM17.2676 11.0711C17.2535 11.1135 17.2393 11.0852 17.2393 11.0146C17.2393 10.9299 17.2535 10.9017 17.2676 10.944C17.2817 10.9723 17.2817 11.0429 17.2676 11.0711ZM17.3099 10.831C17.2958 10.8452 17.2817 10.8169 17.2817 10.7604C17.2817 10.704 17.2958 10.6898 17.3241 10.7322C17.3382 10.7746 17.3241 10.8169 17.3099 10.831ZM17.3664 10.591C17.3523 10.6334 17.3382 10.6051 17.3382 10.5204C17.3382 10.4498 17.3523 10.4215 17.3664 10.4639C17.3805 10.4921 17.3805 10.5486 17.3664 10.591ZM17.5641 9.8567C17.5076 10.1109 17.437 10.2662 17.4794 10.0403C17.4935 9.94142 17.5359 9.81433 17.55 9.77197C17.5924 9.71549 17.5924 9.74373 17.5641 9.8567ZM18.1431 8.23277C18.1854 8.20453 18.1713 8.27514 18.1148 8.40223C18.0841 8.46363 18.0326 8.59178 17.9715 8.7436C17.9202 8.87107 17.8622 9.01533 17.8042 9.15064C17.6912 9.44719 17.6065 9.61664 17.6347 9.53191C17.6771 9.30597 18.0866 8.30338 18.1431 8.23277ZM17.3523 9.74373C17.5359 9.17889 17.9878 8.09156 18.016 8.11981C18.0301 8.13393 17.9454 8.37398 17.8324 8.64228C17.5641 9.26361 17.2676 10.238 17.1264 10.944C17.0558 11.2406 16.9852 11.6501 16.9569 11.8478L16.9145 12.2149L16.9287 11.8054C16.971 11.2547 17.1405 10.4215 17.3523 9.74373ZM17.2252 9.71549C17.2535 9.67312 17.2817 9.659 17.2817 9.68724C17.2817 9.71549 17.2535 9.78609 17.2252 9.82845C17.197 9.87082 17.1687 9.88494 17.1687 9.8567C17.1687 9.82845 17.197 9.75785 17.2252 9.71549ZM17.0699 10.2238C17.0699 10.1674 17.084 10.1532 17.0981 10.1956C17.1122 10.2238 17.1122 10.2803 17.0981 10.2944C17.084 10.3086 17.0699 10.2803 17.0699 10.2238ZM17.0134 10.4357C17.0134 10.3792 17.0275 10.3651 17.0416 10.4074C17.0699 10.4498 17.0558 10.4921 17.0416 10.5063C17.0275 10.5345 17.0134 10.4921 17.0134 10.4357ZM16.9569 10.6616L16.9597 10.6475C16.9712 10.5893 16.973 10.5799 16.9993 10.6192C17.0134 10.6616 17.0134 10.704 16.9852 10.7322C16.971 10.7463 16.9569 10.7181 16.9569 10.6616ZM16.9119 10.8913C16.9271 10.84 16.9349 10.814 16.9388 10.8145C16.9428 10.8151 16.9428 10.8437 16.9428 10.9017C16.9428 10.9723 16.9287 11.0993 16.9004 11.17C16.8722 11.2829 16.8581 11.2829 16.8581 11.1982C16.8581 11.1582 16.8722 11.0827 16.8855 11.012C16.891 10.9829 16.8963 10.9546 16.9004 10.9299L16.9119 10.8913ZM16.8298 11.4524C16.8439 11.5089 16.8439 11.5795 16.8298 11.6218C16.8157 11.6501 16.8016 11.6077 16.8016 11.523C16.8016 11.4383 16.8157 11.3959 16.8298 11.4524ZM24.5853 7.23018C24.7124 7.3149 24.9101 7.44199 25.023 7.5126C25.3054 7.68205 25.4749 7.92211 25.5596 8.23277C25.6161 8.44459 25.602 8.54344 25.5314 8.82586C25.3902 9.36246 25.1077 9.72961 24.9524 9.57428C24.9101 9.54603 24.9101 9.51779 24.9383 9.51779C24.9665 9.51779 24.9101 9.47543 24.8112 9.43306L24.6418 9.36246L24.67 8.68465C24.6982 8.3175 24.6982 8.00684 24.67 8.00684C24.5711 8.00684 24.317 8.19041 24.1334 8.38811C23.625 8.95295 23.4273 9.81433 23.6674 10.4357C23.7239 10.6051 23.9357 10.9864 24.1334 11.2829C24.67 12.1443 24.7688 12.342 24.7971 12.7798C24.8112 13.1328 24.7971 13.2034 24.67 13.4717C24.3876 14.0507 23.8651 14.3472 23.1026 14.3896C22.7919 14.4037 22.5377 14.3896 22.3824 14.3472C21.7611 14.1495 20.9279 13.5564 20.9279 13.3022C20.9279 13.2458 20.9985 13.1328 21.0691 13.0481C21.168 12.921 21.2103 12.8927 21.2386 12.9492C21.2668 12.9916 21.3092 13.0198 21.3374 13.0198C21.3657 13.0057 21.4221 13.0622 21.4645 13.1469C21.5069 13.2175 21.6481 13.3587 21.7752 13.4576C21.987 13.6411 22.0011 13.6411 22.2977 13.5988C22.919 13.5141 23.385 13.0622 23.4415 12.4691C23.4838 12.0596 23.385 11.7772 23.0037 11.2123C22.3683 10.2944 22.1706 9.72961 22.2412 9.09416C22.3259 8.48695 22.5801 7.97859 23.0178 7.56908C23.5827 7.0466 24.1475 6.91951 24.5853 7.23018ZM24.2605 12.9068C24.2605 12.8645 24.2322 12.9068 24.1899 13.0057C24.1334 13.1045 24.1052 13.2034 24.1052 13.2175C24.1052 13.2881 24.2605 12.9916 24.2605 12.9068ZM24.1052 12.695C24.091 12.4832 24.0769 12.5115 24.0063 12.8504C23.9498 13.0763 23.9639 13.0904 24.0204 12.9916C24.0628 12.9351 24.1052 12.808 24.1052 12.695ZM23.9216 12.7656C23.9357 12.7233 23.9357 12.6668 23.9216 12.6244C23.9075 12.5821 23.8933 12.6244 23.8933 12.695C23.8933 12.7656 23.9075 12.7939 23.9216 12.7656ZM22.7636 8.89646C22.7636 8.95295 22.7778 8.98119 22.7919 8.96707C22.806 8.95295 22.806 8.89646 22.7919 8.86822C22.7778 8.82586 22.7636 8.82586 22.7636 8.89646ZM22.8766 9.3201C22.9049 9.30597 22.919 9.24949 22.919 9.19301C22.919 9.13652 22.9755 8.93883 23.0461 8.74113L23.0593 8.70409C23.1235 8.52442 23.1723 8.38811 23.159 8.38811C23.1449 8.38811 23.0884 8.48695 23.0178 8.61404C22.9049 8.83998 22.7919 9.37658 22.8766 9.3201ZM23.272 8.71525C23.3056 8.63891 23.3409 8.55883 23.3709 8.48695C23.4556 8.33162 23.4838 8.24689 23.4273 8.30338C23.2861 8.47283 23.1449 8.76937 23.1167 8.98119L23.0884 9.16476L23.159 8.98119C23.1834 8.9163 23.2264 8.81861 23.272 8.71525ZM25.023 8.83998C25.023 8.89646 25.0371 8.92471 25.0513 8.91059C25.0654 8.89646 25.0654 8.83998 25.0513 8.81174C25.0371 8.76937 25.023 8.78349 25.023 8.83998Z" fill="url(#paint0_linear)"/>
<defs>
<linearGradient id="paint0_linear" x1="-1.27482" y1="-0.533216" x2="17.4371" y2="26.8836" gradientUnits="userSpaceOnUse">
<stop stop-color="#FA5457"/>
<stop offset="1" stop-color="#CF2E73"/>
</linearGradient>
</defs>
</svg>
