<svg width="24" height="24" viewBox="0 0 24 24" fill="none" xmlns="http://www.w3.org/2000/svg">
<path d="M3 2.25V21.75H11.25V18.75H12.75V21.75H21V2.25H3ZM4.5 3.75H19.5V20.25H14.25V17.25H9.75V20.25H4.5V3.75ZM6 5.25V6.75H9V5.25H6ZM10.5 5.25V6.75H13.5V5.25H10.5ZM15 5.25V6.75H18V5.25H15ZM6 8.25V9.75H9V8.25H6ZM10.5 8.25V9.75H13.5V8.25H10.5ZM15 8.25V9.75H18V8.25H15ZM6 11.25V12.75H9V11.25H6ZM10.5 11.25V12.75H13.5V11.25H10.5ZM15 11.25V12.75H18V11.25H15ZM6 14.25V15.75H9V14.25H6ZM10.5 14.25V15.75H13.5V14.25H10.5ZM15 14.25V15.75H18V14.25H15ZM6 17.25V18.75H9V17.25H6ZM15 17.25V18.75H18V17.25H15Z" fill="#01B4BC"/>
</svg>
