<svg width="119" height="77" viewBox="0 0 119 77" fill="none" xmlns="http://www.w3.org/2000/svg">
<path d="M28.5761 4.36791C28.5761 4.11591 28.7561 3.93591 29.4041 3.61191C30.2681 3.14391 30.7721 2.63991 30.7721 2.27991C30.7721 2.17191 30.5561 1.84791 30.2681 1.59591C29.8001 1.16391 29.6921 1.12791 29.2241 1.19991C28.9361 1.27191 28.1441 1.59591 27.4961 1.91991C23.0321 4.33191 18.3881 8.47191 15.0761 12.8999C14.5721 13.6199 14.1041 14.1599 14.0321 14.1239C13.9241 14.0519 13.7081 13.0079 13.4921 11.5679C13.2761 10.1639 13.3481 9.08391 13.7081 6.63591C13.9241 5.37591 14.1041 3.97191 14.1401 3.46791L14.2121 2.53191L13.6361 1.95591C13.3481 1.66791 13.0961 1.30791 13.0961 1.19991C13.0961 0.947911 12.4841 0.803911 12.1241 1.01991C11.9441 1.09191 11.6561 1.52391 11.4761 1.95591C11.2601 2.38791 10.9721 2.92791 10.7561 3.21591C9.64014 4.65591 7.12014 9.15591 5.64414 12.2519C3.19614 17.4359 1.50414 22.2959 1.14414 25.2839C1.00014 26.4719 1.03614 26.7239 1.28814 27.6959C1.61214 28.9919 1.82814 29.3879 2.44014 29.6039C2.69214 29.7119 2.94414 29.8919 3.05214 30.0359C3.16014 30.1439 3.30414 30.2519 3.41214 30.2519C3.66414 30.2519 3.91614 29.8559 3.84414 29.6039C3.80814 29.4959 3.84414 29.2079 3.95214 29.0279C4.06014 28.8119 4.31214 27.9839 4.49214 27.1919C5.64414 22.6559 7.76814 16.7879 10.0721 11.9279L10.6481 10.6679L10.9721 11.6399C11.4401 13.0439 12.0521 14.1959 12.6641 14.9159L13.2401 15.5279L12.6281 16.6079C11.7281 18.2279 11.4761 19.3079 11.9081 19.9199C12.2321 20.3159 13.0601 20.7119 13.3121 20.5319C13.4561 20.4599 13.9601 19.7399 14.4281 18.9119C15.7601 16.6799 17.6321 14.0879 19.2161 12.2159C20.6201 10.5239 22.2401 8.86791 22.0961 9.22791C22.0601 9.37191 21.6281 10.3439 21.1241 11.4239C18.3521 17.6519 16.9841 23.3759 17.4521 26.5799C17.6681 27.8399 17.9921 28.6679 18.4601 29.0639C18.9641 29.5319 20.0441 30.1079 20.3321 30.1079C20.6921 30.1079 20.7281 29.8919 20.4041 29.7119C20.2241 29.6039 20.1881 29.2799 20.1881 27.8399C20.1521 23.1959 21.8081 18.3719 26.8481 8.14791C27.8201 6.23991 28.5761 4.54791 28.5761 4.36791ZM6.68814 13.0799C6.79614 12.8999 6.90414 12.7919 6.90414 12.8639C6.90414 12.9719 6.79614 13.1519 6.68814 13.3679C6.58014 13.5479 6.50814 13.6559 6.50814 13.5479C6.50814 13.4759 6.58014 13.2599 6.68814 13.0799ZM6.07614 14.4479C6.14814 14.3399 6.22014 14.3039 6.22014 14.3759C6.22014 14.4479 6.14814 14.6279 6.07614 14.7359C6.00414 14.8439 5.96814 14.8799 5.96814 14.8079C5.96814 14.7359 6.00414 14.5559 6.07614 14.4479ZM5.68014 15.4199C5.75214 15.3119 5.78814 15.2759 5.78814 15.3479C5.78814 15.4199 5.75214 15.5639 5.68014 15.7079C5.60814 15.8159 5.53614 15.8519 5.53614 15.7439C5.53614 15.6719 5.60814 15.5279 5.68014 15.4199ZM4.70814 17.7599C4.78014 17.6519 4.85214 17.6159 4.85214 17.6879C4.85214 17.7599 4.78014 17.9039 4.70814 18.0119C4.63614 18.1199 4.56414 18.1559 4.56414 18.0839C4.56414 18.0119 4.63614 17.8679 4.70814 17.7599ZM4.38414 18.7319C4.42014 18.7679 4.20414 19.4879 3.88014 20.3519C3.59214 21.2159 3.34014 21.8639 3.34014 21.7919C3.34014 21.6119 4.31214 18.6959 4.38414 18.7319ZM3.19614 22.4759C3.19614 22.5479 3.08814 22.9799 2.94414 23.4479C2.80014 23.8799 2.65614 24.1319 2.65614 23.9879C2.69214 23.6999 3.16014 22.2599 3.19614 22.4759ZM2.62014 24.4559C2.65614 24.5279 2.65614 24.6719 2.62014 24.7799C2.58414 24.8879 2.54814 24.8159 2.54814 24.5999C2.54814 24.4199 2.58414 24.3479 2.62014 24.4559ZM2.33214 26.2919C2.29614 26.3999 2.26014 26.2919 2.26014 26.0399C2.26014 25.8239 2.29614 25.7519 2.33214 25.8959C2.36814 26.0039 2.36814 26.1839 2.33214 26.2919ZM2.47614 25.4639C2.44014 25.5719 2.40414 25.4999 2.40414 25.2839C2.40414 25.1039 2.44014 25.0319 2.47614 25.1399C2.51214 25.2119 2.51214 25.3559 2.47614 25.4639ZM2.94414 25.4279C2.80014 26.2199 2.65614 27.0479 2.62014 27.2999C2.54814 27.6599 2.54814 27.6599 2.54814 27.2279C2.47614 25.4639 3.95214 20.4599 5.96814 15.7079C7.01214 13.2239 10.0361 7.03191 10.2161 7.03191C10.2881 7.03191 9.71214 8.21991 8.99214 9.69591C5.96814 15.6359 3.73614 21.5039 2.94414 25.4279ZM3.16014 26.8319C3.12414 26.9399 3.08814 26.8679 3.08814 26.6519C3.08814 26.4719 3.12414 26.3999 3.16014 26.5079C3.19614 26.5799 3.19614 26.7599 3.16014 26.8319ZM9.28014 10.2719C7.33614 14.1239 5.75214 17.9759 4.52814 21.6479C4.24014 22.4759 3.84414 23.8439 3.62814 24.6719C3.19614 26.2559 3.05214 26.3999 3.41214 24.8879C3.98814 22.3319 5.75214 17.4719 7.51614 13.6199C8.63214 11.0639 10.1801 7.96791 10.2881 8.03991C10.3241 8.07591 9.85614 9.08391 9.28014 10.2719ZM12.7361 19.3439C12.7001 19.4159 12.6641 19.3079 12.6641 19.1639C12.7001 19.0199 12.7361 18.9839 12.7721 19.0919C12.8081 19.1999 12.8081 19.3079 12.7361 19.3439ZM13.1681 19.1279C13.0601 19.3799 12.9521 19.5239 12.9521 19.3799C12.9521 19.1999 13.3481 18.4079 13.3481 18.5879C13.3481 18.6239 13.2761 18.8759 13.1681 19.1279ZM20.4401 16.3199C20.4761 16.2119 20.5481 16.1399 20.5841 16.1759C20.6561 16.2119 20.5841 16.3199 20.5121 16.4279C20.3681 16.5359 20.3681 16.5359 20.4401 16.3199ZM20.3681 16.7159C20.4401 16.6799 20.4401 16.7159 20.4041 16.8599C20.3321 17.0759 20.2241 17.1479 20.2241 16.9319C20.2241 16.8599 20.2601 16.7519 20.3681 16.7159ZM19.1441 20.4239C19.1441 20.2439 19.1801 20.2079 19.2161 20.3159C19.2521 20.4239 19.2521 20.5319 19.2161 20.6039C19.1441 20.6399 19.1081 20.5679 19.1441 20.4239ZM19.0001 20.9639C19.0001 20.8199 19.0361 20.7839 19.0721 20.8919C19.1081 20.9639 19.1081 21.1079 19.0721 21.1439C19.0361 21.1799 19.0001 21.1079 19.0001 20.9639ZM18.8561 21.5039C18.8561 21.3599 18.8921 21.3239 18.9281 21.4319C18.9641 21.5399 18.9641 21.6479 18.9281 21.6839C18.8921 21.7199 18.8561 21.6479 18.8561 21.5039ZM18.7121 22.1879C18.7121 22.0439 18.7481 22.0079 18.7841 22.1159C18.8561 22.2239 18.8201 22.3319 18.7841 22.3679C18.7481 22.4399 18.7121 22.3319 18.7121 22.1879ZM18.6401 23.0519C18.6041 23.1239 18.5681 23.0159 18.5681 22.8719C18.6041 22.7279 18.6041 22.6919 18.6761 22.7999C18.7121 22.9079 18.7121 23.0159 18.6401 23.0519ZM18.9281 23.8439L18.7121 25.1039L18.7841 24.0599C18.9641 21.1439 21.0161 15.2039 23.5361 10.1639C24.5081 8.21991 25.8041 5.95191 25.9481 5.95191C25.9841 5.95191 25.9121 6.09591 25.8041 6.27591C25.3001 7.06791 23.7161 10.0919 22.8881 11.8199C21.3761 15.1319 20.1521 18.4799 19.4681 21.2519C19.2881 22.0079 19.0361 23.1599 18.9281 23.8439ZM19.6121 22.3679C19.5761 22.4399 19.5401 22.3319 19.5401 22.1879C19.5401 22.0439 19.5761 22.0079 19.6121 22.1159C19.6481 22.2239 19.6481 22.3319 19.6121 22.3679ZM19.7561 21.8279C19.7201 21.8639 19.6841 21.7919 19.6841 21.6479C19.6841 21.5039 19.7201 21.4679 19.7561 21.5759C19.7921 21.6479 19.7921 21.7919 19.7561 21.8279ZM26.6681 5.73591C25.3721 8.03991 24.8321 9.01191 23.7881 11.2079C22.4201 14.0159 21.1601 17.1119 20.5121 19.2719C19.9001 21.2519 19.8281 21.4319 19.8281 21.1799C19.7921 20.7839 20.7641 17.9039 21.7001 15.5639C23.1041 11.9639 26.0561 6.09591 26.7761 5.41191C26.8841 5.26791 26.8481 5.44791 26.6681 5.73591Z" fill="url(#paint0_linear)"/>
<path d="M31.4978 13.9799C29.8058 14.4839 28.3298 15.6359 26.8538 17.4719C24.2978 20.6399 23.3258 24.8879 24.5138 27.3719C24.9458 28.2359 25.8458 29.0639 27.1418 29.8199C28.2218 30.4319 28.3298 30.4319 29.2298 30.3959C29.8418 30.3599 30.4178 30.2519 30.7418 30.0719C32.7578 29.0999 36.1058 24.2039 35.0258 23.8079C34.8818 23.7359 34.5938 24.0239 34.1978 24.6359C33.8378 25.1399 33.1178 26.0039 32.5778 26.5799C31.3178 27.8399 29.7338 28.6679 28.4738 28.7759L27.6458 28.8119L27.3578 28.1639C27.1058 27.5879 27.0698 27.3359 27.1418 26.0399C27.2138 24.7079 27.7178 22.6559 27.9338 22.7999C29.6258 23.7359 31.1378 23.4839 32.8298 22.0079C34.7738 20.2799 36.0698 16.6799 35.1698 15.3839C34.9898 15.1319 34.8098 14.9159 34.7738 14.9159C34.7378 14.9159 34.4138 14.6999 34.0538 14.3759C33.1898 13.6919 32.6498 13.6199 31.4978 13.9799ZM25.2698 23.8079C25.2338 23.8439 25.1978 23.7719 25.1978 23.6279C25.1978 23.4839 25.2338 23.4479 25.2698 23.5559C25.3418 23.6639 25.3058 23.7719 25.2698 23.8079ZM25.3418 23.0159C25.3418 22.9079 25.4138 22.6919 25.4858 22.5479C25.5578 22.3679 25.5938 22.3319 25.5938 22.4759C25.5938 22.5839 25.5218 22.7999 25.4858 22.9439C25.3778 23.1239 25.3418 23.1599 25.3418 23.0159ZM25.4138 24.5999C25.5218 23.7719 25.8098 22.5479 26.0978 21.8639C26.4218 21.0359 26.4218 21.3599 26.0618 22.4759C25.8818 23.0519 25.6658 23.9159 25.5578 24.3839C25.3778 25.2119 25.3418 25.2479 25.4138 24.5999ZM26.0978 23.9519C26.0618 23.9879 26.0258 23.9159 26.0258 23.7719C26.0258 23.5919 26.0618 23.5919 26.0978 23.6999C26.1338 23.7719 26.1338 23.9159 26.0978 23.9519ZM26.6738 21.9359C26.6738 22.0439 26.5658 22.4399 26.4218 22.8359C26.2058 23.3399 26.1698 23.4119 26.2418 23.0519C26.3498 22.5119 26.7098 21.6119 26.6738 21.9359ZM28.5818 18.4799C28.7978 18.2999 28.7978 18.2999 28.6538 18.5159C28.4738 18.7679 28.3658 18.8399 28.3658 18.7319C28.3658 18.6959 28.4738 18.5879 28.5818 18.4799ZM27.1058 19.9919C27.0338 20.1719 26.9258 20.2799 26.8898 20.2799C26.8538 20.2799 26.8898 20.1719 26.9618 19.9919C27.0698 19.8479 27.1418 19.7399 27.1778 19.7399C27.2138 19.7399 27.1778 19.8479 27.1058 19.9919ZM27.8618 19.7039C27.5738 20.1719 27.3218 20.5679 27.2858 20.5679C27.1778 20.5679 27.9698 19.1999 28.1858 19.0199C28.2938 18.9479 28.1498 19.2359 27.8618 19.7039ZM33.9818 18.5879C33.9818 18.6599 33.8738 18.8399 33.7658 18.9839C33.5498 19.2359 33.5498 19.2359 33.6938 18.9119C33.9098 18.4799 33.9818 18.4079 33.9818 18.5879ZM33.6578 15.9239C33.8018 16.1039 33.3698 17.6159 32.9378 18.5159C32.2898 19.8119 31.2458 20.9279 30.2018 21.3959C29.4458 21.7559 28.3658 21.9359 28.3658 21.6839C28.3658 21.4679 29.5178 19.7039 30.3098 18.6599C31.4258 17.2919 33.4058 15.6719 33.6578 15.9239Z" fill="url(#paint1_linear)"/>
<path d="M50.285 13.1159C50.141 13.1159 49.925 12.9359 49.745 12.7199C49.241 12.0359 48.413 12.2879 47.765 13.3319C47.549 13.6559 47.297 13.9439 47.225 13.9439C47.045 13.9439 46.577 13.6199 46.109 13.1519C45.065 12.1079 43.301 12.2879 41.537 13.6199C40.277 14.5559 38.261 17.5799 37.541 19.6679C36.677 22.1879 36.461 24.8879 37.001 26.3279C37.325 27.1559 38.117 28.0559 38.657 28.1639C38.837 28.2359 39.161 28.3799 39.341 28.5239C39.773 28.8479 40.601 28.8479 41.249 28.4879C41.933 28.1639 43.157 26.7239 44.165 25.0679L44.921 23.8439L44.993 25.5719C45.065 26.5439 45.173 27.5519 45.245 27.8759C45.497 28.5599 46.505 29.6399 47.153 29.9279C47.441 30.0359 47.729 30.1799 47.765 30.2879C47.873 30.4319 48.233 30.4679 48.305 30.3239C48.341 30.2519 48.269 29.6759 48.161 29.0279C48.017 28.3439 47.945 27.1559 47.945 26.0399C47.945 23.3759 48.341 21.7199 50.501 15.6719C50.789 14.9159 51.005 14.1599 51.005 14.0159C51.005 13.6559 50.573 13.1159 50.285 13.1159ZM37.937 24.3479C37.901 24.4919 37.865 24.3839 37.865 24.0959C37.865 23.8439 37.901 23.7359 37.937 23.8799C37.973 23.9879 37.973 24.2039 37.937 24.3479ZM38.009 23.1959C38.009 23.0519 38.045 22.7999 38.117 22.6559C38.189 22.4759 38.225 22.4759 38.225 22.5839C38.225 22.6919 38.153 22.9439 38.117 23.1599C38.009 23.4119 38.009 23.4479 38.009 23.1959ZM38.333 24.5639C38.189 25.3559 38.117 25.6079 38.117 25.2839C38.081 23.8799 38.873 20.8919 39.737 19.1639C40.385 17.9399 40.385 18.1559 39.773 19.4879C39.485 20.0999 39.053 21.2159 38.873 21.9719C38.657 22.6919 38.441 23.8799 38.333 24.5639ZM39.017 23.6279C38.621 25.1759 38.549 25.0679 38.873 23.4479C39.161 22.1159 39.665 20.6039 40.277 19.3799C40.781 18.3719 41.861 16.6079 42.113 16.4639C42.185 16.4279 41.897 16.8959 41.501 17.5439C40.565 18.9839 40.313 19.4879 39.773 20.9999C39.521 21.6839 39.161 22.8719 39.017 23.6279ZM45.857 18.4799C45.533 19.6679 42.869 23.9879 41.357 25.7879C40.925 26.2559 40.457 26.7599 40.241 26.9039L39.881 27.1199V26.5799C39.881 25.2839 41.141 21.4679 42.185 19.6319C43.409 17.3999 45.389 15.3119 46.325 15.3119C46.757 15.3119 46.757 15.6359 46.397 16.7159C46.217 17.2559 46.001 18.0839 45.857 18.4799ZM46.289 21.8639C46.325 21.9719 46.325 22.1159 46.289 22.2239C46.253 22.2959 46.217 22.2239 46.217 22.0439C46.217 21.8639 46.253 21.7919 46.289 21.8639ZM46.289 25.7159C46.289 25.9319 46.253 25.7519 46.253 25.3199C46.253 24.9239 46.289 24.7439 46.289 24.9599C46.325 25.1759 46.325 25.4999 46.289 25.7159ZM46.829 21.5759C46.721 22.1879 46.541 23.0879 46.469 23.6279L46.361 24.5999L46.433 23.4119C46.505 22.2599 46.865 20.3159 46.973 20.4599C47.009 20.4959 46.937 20.9999 46.829 21.5759ZM47.117 22.2959C47.081 22.3319 47.045 22.2599 47.045 22.1159C47.045 21.9359 47.081 21.8999 47.117 22.0079C47.153 22.1159 47.153 22.2239 47.117 22.2959ZM47.369 21.0359C47.333 21.1079 47.297 20.9999 47.297 20.8559C47.333 20.7119 47.369 20.6759 47.405 20.7839C47.441 20.8919 47.441 20.9999 47.369 21.0359ZM47.513 20.4239C47.477 20.5319 47.477 20.4599 47.477 20.2439C47.477 20.0639 47.477 19.9919 47.513 20.0999C47.585 20.1719 47.585 20.3519 47.513 20.4239ZM47.585 19.7039C47.585 19.5959 47.657 19.4159 47.729 19.3079C47.801 19.1999 47.837 19.1639 47.837 19.2359C47.837 19.4879 47.585 19.9199 47.585 19.7039ZM49.277 14.0159C49.169 14.2319 49.097 14.3039 49.097 14.0879C49.097 14.0159 49.133 13.9439 49.205 13.8719C49.313 13.8359 49.313 13.8719 49.277 14.0159ZM49.853 13.9439C49.601 14.4119 49.457 14.5199 49.601 14.1239C49.709 13.7999 50.033 13.2959 50.033 13.4399C50.033 13.5119 49.961 13.7279 49.853 13.9439Z" fill="url(#paint2_linear)"/>
<path d="M59.3502 1.41591C59.1702 1.27191 58.8462 0.983911 58.6302 0.767911C58.3062 0.443911 58.1982 0.407912 57.9102 0.51591C57.7302 0.587911 57.4782 0.767911 57.3702 0.911911C56.9022 1.41591 56.1102 2.85591 55.5702 4.11591C54.3822 6.85191 52.2942 13.6199 51.5742 16.9319C50.9262 19.9199 50.8542 20.4239 50.8542 23.3759C50.8542 26.0039 50.8902 26.3639 51.1782 27.2279C51.7182 29.0279 52.4382 29.7479 54.0222 30.2879C55.0302 30.6119 55.5702 30.2519 54.8502 29.7119C54.6702 29.5319 54.3462 29.0279 54.2022 28.5959C53.9142 27.8399 53.8782 27.5519 53.8782 25.2479C53.9142 23.0159 53.9502 22.4759 54.2742 20.9279C54.8862 18.0479 55.8942 14.5199 57.8022 8.68791C58.7742 5.66391 59.6022 2.89191 59.6742 2.45991C59.7102 1.77591 59.7102 1.66791 59.3502 1.41591ZM57.1542 3.43191C57.2622 3.21591 57.3702 3.14391 57.3702 3.21591C57.3702 3.28791 57.2622 3.50391 57.1542 3.68391C57.0462 3.86391 56.9742 3.97191 56.9742 3.89991C56.9742 3.82791 57.0462 3.61191 57.1542 3.43191ZM56.8302 4.22391C56.9022 4.11591 56.9742 4.07991 56.9742 4.18791C56.9742 4.25991 56.9022 4.40391 56.8302 4.51191C56.7582 4.61991 56.6862 4.65591 56.6862 4.58391C56.6862 4.51191 56.7582 4.36791 56.8302 4.22391ZM56.5422 4.90791C56.6142 4.79991 56.6862 4.76391 56.6862 4.87191C56.6862 4.94391 56.6142 5.08791 56.5422 5.19591C56.4702 5.30391 56.4342 5.33991 56.4342 5.26791C56.4342 5.19591 56.4702 5.05191 56.5422 4.90791ZM56.2902 5.62791C56.3622 5.48391 56.3982 5.48391 56.3982 5.55591C56.3982 5.62791 56.3622 5.77191 56.2902 5.87991C56.2182 5.98791 56.1462 6.02391 56.1462 5.95191C56.1462 5.87991 56.2182 5.73591 56.2902 5.62791ZM55.8222 6.85191C55.8582 6.67191 55.9662 6.41991 56.0382 6.31191C56.1102 6.16791 56.1102 6.20391 56.0742 6.41991C56.0022 6.63591 55.9302 6.88791 55.8582 6.99591C55.7502 7.13991 55.7502 7.06791 55.8222 6.85191ZM55.4622 7.85991C55.6062 7.49991 55.7142 7.28391 55.7142 7.39191C55.7142 7.49991 55.6062 7.89591 55.4622 8.29191C55.3182 8.65191 55.2102 8.86791 55.2102 8.75991C55.2102 8.65191 55.3182 8.25591 55.4622 7.85991ZM55.0302 9.19191C55.1022 9.04791 55.1742 9.04791 55.1742 9.11991C55.1382 9.37191 54.9222 9.80391 54.9222 9.58791C54.9222 9.47991 54.9582 9.29991 55.0302 9.19191ZM51.8622 24.7799C51.8262 24.9959 51.7902 24.8159 51.7902 24.4199C51.7902 23.9879 51.8262 23.8079 51.8622 24.0239C51.8982 24.2399 51.8982 24.5639 51.8622 24.7799ZM51.9702 21.8999C51.9342 22.0439 51.9342 21.9359 51.9342 21.6839C51.9342 21.3959 51.9342 21.2879 51.9702 21.4319C52.0062 21.5399 52.0062 21.7559 51.9702 21.8999ZM52.1142 20.5319C52.1502 20.6399 52.1502 20.7839 52.1142 20.8919C52.0782 20.9639 52.0422 20.8919 52.0422 20.7119C52.0422 20.5319 52.0782 20.4239 52.1142 20.5319ZM52.7622 22.4039C52.6902 23.0879 52.6542 23.6639 52.6182 23.6999C52.5462 23.8079 52.5822 22.2599 52.6902 21.7199C52.7982 21.3599 52.7982 21.5759 52.7622 22.4039ZM56.0022 9.58791C55.5342 10.9919 54.8502 13.3319 54.4182 14.8079C53.9862 16.2839 53.4462 18.2999 53.2302 19.3439C53.0142 20.3519 52.8702 20.8559 52.9062 20.4239C53.0142 19.5599 53.7702 16.3199 54.3102 14.5559C55.0302 12.1079 56.7222 6.95991 56.7582 6.99591C56.7942 7.03191 56.4342 8.21991 56.0022 9.58791ZM57.4422 5.41191C57.0822 6.34791 56.8302 6.85191 57.0462 6.16791C57.2622 5.44791 57.6942 4.36791 57.7302 4.40391C57.7662 4.43991 57.6222 4.87191 57.4422 5.41191ZM58.1982 3.43191C58.1262 3.53991 58.0542 3.57591 58.0542 3.46791C58.0542 3.39591 58.1262 3.25191 58.1982 3.14391C58.2702 3.03591 58.3422 2.99991 58.3422 3.07191C58.3422 3.14391 58.2702 3.28791 58.1982 3.43191ZM58.0182 2.81991C57.1542 4.79991 56.1102 7.57191 55.2822 10.2719C52.8702 17.8679 52.2582 20.8199 52.2942 24.5639C52.2942 25.6799 52.2582 26.6159 52.2222 26.6159C52.1862 26.6159 52.1502 26.3279 52.1502 25.9679C52.1502 25.6079 52.1142 25.1759 52.0782 25.0319C51.9702 24.4559 52.3302 20.8559 52.6542 19.1279C53.0142 17.3999 53.6982 14.6999 54.4182 12.3959C55.2462 9.69591 56.1462 6.92391 56.6502 5.59191C57.2622 4.00791 58.4862 1.30791 58.5582 1.41591C58.5942 1.41591 58.3422 2.06391 58.0182 2.81991Z" fill="url(#paint3_linear)"/>
<path d="M10.5761 48.5759C9.67614 48.0719 9.46014 47.9999 8.77614 47.9999C8.30814 47.9999 7.94814 47.9639 7.80414 47.8199C6.68814 46.7759 4.16814 48.9719 2.47614 52.4999C0.532142 56.5319 -0.079858 60.9599 1.03614 63.3359C1.54014 64.4519 3.01614 65.7479 3.77214 65.7479C3.88014 65.7479 4.24014 65.8919 4.56414 66.0719C5.24814 66.4679 5.64414 66.5039 6.50814 66.2159C8.34414 65.5679 10.3241 62.5799 11.8361 58.0799C12.9521 54.7319 13.2041 52.0319 12.5201 50.4119C12.1241 49.5479 11.8721 49.3319 10.5761 48.5759ZM11.0081 56.2079C11.0081 56.0279 11.0441 55.9919 11.0801 56.0999C11.1161 56.2079 11.1161 56.3159 11.0801 56.3879C11.0441 56.4239 11.0081 56.3519 11.0081 56.2079ZM2.47614 56.0639C2.51214 55.8839 2.54814 55.8479 2.58414 55.9919C2.62014 56.0639 2.62014 56.2079 2.58414 56.2439C2.51214 56.2799 2.47614 56.2079 2.47614 56.0639ZM1.97214 58.8719C1.93614 59.3759 1.86414 59.8079 1.86414 59.8439C1.75614 59.9519 1.82814 58.8359 1.93614 58.4039C2.00814 58.1519 2.00814 58.3319 1.97214 58.8719ZM2.11614 57.7199C2.11614 57.5759 2.15214 57.2879 2.22414 57.1079C2.29614 56.8199 2.33214 56.8199 2.33214 57.0359C2.33214 57.1799 2.26014 57.4679 2.22414 57.6479C2.11614 57.9359 2.11614 57.9359 2.11614 57.7199ZM2.72814 57.3599C2.54814 58.0799 2.40414 59.1959 2.36814 60.2399C2.26014 61.8599 2.26014 61.9319 2.15214 61.1399C1.93614 59.3399 2.94414 55.0559 4.13214 52.7159C4.56414 51.8519 4.56414 52.0679 4.13214 53.0039C3.73614 53.9039 3.26814 55.4159 2.72814 57.3599ZM3.80814 60.2039C3.77214 60.2759 3.73614 60.1679 3.73614 60.0239C3.73614 59.8799 3.77214 59.8439 3.80814 59.9519C3.84414 60.0599 3.84414 60.1679 3.80814 60.2039ZM4.06014 54.6599C3.80814 55.4879 3.37614 56.9279 3.16014 57.8999C2.94414 58.8359 2.76414 59.4839 2.76414 59.3399C2.72814 58.3319 3.88014 54.4079 4.74414 52.6079C5.14014 51.7439 5.53614 51.0599 5.57214 51.0599C5.60814 51.0599 5.39214 51.5279 5.10414 52.1399C4.81614 52.7159 4.34814 53.8679 4.06014 54.6599ZM10.1801 59.7359C10.0361 59.8799 10.0361 59.8439 10.1081 59.6639C10.1441 59.5199 10.2521 59.4479 10.2881 59.4839C10.3241 59.5199 10.2881 59.6639 10.1801 59.7359ZM10.6481 58.6199C10.5761 58.7999 10.5041 59.0519 10.4321 59.1599C10.3241 59.3039 10.3241 59.2679 10.3961 59.0159C10.4321 58.8359 10.5401 58.5839 10.6121 58.4759C10.6841 58.3319 10.6841 58.3679 10.6481 58.6199ZM10.6841 52.2479C10.5041 55.5959 8.16414 61.6439 6.36414 63.2999C6.14814 63.4799 5.75214 63.8039 5.46414 64.0199C5.14014 64.1999 4.85214 64.3799 4.81614 64.3799C4.52814 64.3799 4.27614 62.9039 4.27614 61.5359C4.27614 59.9159 4.60014 58.0079 5.32014 55.5599C6.00414 53.1119 6.50814 52.1039 7.55214 51.1319C8.41614 50.3759 10.0361 49.4399 10.2881 49.6199C10.5761 49.7999 10.7561 50.9519 10.6841 52.2479ZM11.0801 57.4319C10.8281 57.9719 10.8281 57.7199 11.0441 57.1079C11.1521 56.8199 11.2601 56.7119 11.2601 56.8199C11.2601 56.9279 11.1521 57.2159 11.0801 57.4319ZM11.2601 55.1639C11.3681 54.9119 11.3681 54.8759 11.3681 55.0919C11.3681 55.2719 11.3321 55.5239 11.2601 55.6679C11.1161 55.9919 11.1161 55.6319 11.2601 55.1639ZM11.3321 56.4959C11.2961 56.5679 11.2601 56.4599 11.2601 56.3159C11.2961 56.1719 11.2961 56.1359 11.3681 56.2439C11.4041 56.3519 11.4041 56.4599 11.3321 56.4959ZM11.6201 55.5599C11.5841 55.5959 11.5481 55.5239 11.5481 55.3799C11.5481 55.1999 11.5841 55.1639 11.6201 55.2719C11.6561 55.3799 11.6561 55.5239 11.6201 55.5599ZM11.6561 53.7599C11.6561 53.9759 11.5841 54.2999 11.5481 54.4799C11.4401 54.7319 11.4401 54.6239 11.5121 54.1559C11.5841 53.3639 11.6921 53.1479 11.6561 53.7599ZM11.7641 55.0199C11.7281 55.0559 11.6921 54.9839 11.6921 54.8039C11.6921 54.6599 11.7281 54.6239 11.7641 54.7319C11.8001 54.8399 11.8001 54.9479 11.7641 55.0199ZM11.7641 53.0759C11.7281 53.2199 11.6921 53.0759 11.6921 52.7879C11.7281 52.4639 11.7281 52.3559 11.7641 52.5359C11.8001 52.7159 11.8001 52.9679 11.7641 53.0759ZM11.9081 54.2999C11.8361 54.3719 11.8001 54.2639 11.8361 54.1199C11.8361 53.9759 11.8721 53.9399 11.9081 54.0479C11.9441 54.1559 11.9441 54.2639 11.9081 54.2999Z" fill="url(#paint4_linear)"/>
<path d="M28.8852 49.7279C28.8132 49.7279 28.4892 49.4759 28.1652 49.1519C27.1932 48.2159 26.7612 48.1799 25.3932 48.8639C24.0252 49.5119 20.4612 53.5439 18.5892 56.5319C18.3732 56.9279 18.1212 57.2519 18.1212 57.2519C17.9772 57.2519 18.5532 55.9559 19.5612 53.8319C20.1732 52.6079 20.6412 51.4919 20.6412 51.4199C20.6412 51.2399 20.1372 50.7719 19.6692 50.5559C19.4532 50.4479 19.2012 50.1959 19.0572 50.0159C18.7692 49.5839 18.0852 49.6559 17.5452 50.1959C16.8612 50.8799 15.1692 54.2279 14.4852 56.2439C14.0172 57.6839 13.6572 59.4839 13.6572 60.3839C13.6572 61.4279 14.5212 64.7759 14.8812 65.1719C15.0612 65.3519 15.2772 65.4959 15.3852 65.4959C15.4572 65.4959 15.6372 65.6039 15.7812 65.7839C16.0692 66.1079 16.6812 66.0359 17.1492 65.6399C17.2572 65.5319 18.0852 64.0559 18.9132 62.3999C21.0732 58.0799 22.4412 55.9559 24.9252 53.2559C25.8612 52.1759 26.7252 51.4559 26.6172 51.7799C26.5812 51.8879 26.1492 53.0759 25.6452 54.4439C25.1412 55.8119 24.5292 57.6119 24.3132 58.4759C23.9532 59.9159 23.8812 60.2759 23.8812 62.2559C23.8812 64.2719 23.9172 64.5239 24.2052 65.2079C24.5652 66.1079 24.8892 66.5039 25.6812 67.1879C26.0412 67.4399 26.4012 67.6919 26.5092 67.6919C26.7252 67.6919 26.7252 67.6919 26.4732 67.1159C26.0412 66.3239 26.0412 64.5599 26.4732 62.5439C26.8332 60.6359 27.1572 59.6279 28.2012 56.7839C29.6052 53.0039 29.8932 51.1679 29.3172 50.1959C29.1372 49.9439 28.9572 49.7279 28.8852 49.7279ZM18.8052 58.9079C18.8412 58.9079 18.5892 59.4839 18.2292 60.1679C17.6172 61.4279 17.3652 61.8599 17.6172 61.2119C17.8332 60.6719 18.7332 58.9079 18.8052 58.9079ZM16.2492 55.1279C16.3212 55.0919 16.3572 55.1279 16.3212 55.2719C16.2132 55.4879 16.1052 55.5599 16.1052 55.3439C16.1052 55.2719 16.1772 55.1639 16.2492 55.1279ZM16.0692 55.6679C16.1052 55.7039 15.9972 56.0999 15.7812 56.6039C15.6012 57.0719 15.4572 57.3959 15.4572 57.3239C15.4212 57.1439 16.0332 55.5959 16.0692 55.6679ZM15.3132 57.7559C15.3852 57.5759 15.4212 57.5399 15.4212 57.6839C15.4212 57.7919 15.3492 58.0079 15.3132 58.1519C15.2412 58.3319 15.1692 58.3319 15.1692 58.2239C15.1692 58.1159 15.2412 57.8999 15.3132 57.7559ZM14.9892 59.5559C14.9172 59.5919 14.8812 59.5199 14.9172 59.3759C14.9172 59.1959 14.9532 59.1959 14.9892 59.3039C15.0252 59.3759 15.0252 59.5199 14.9892 59.5559ZM15.0972 58.8719C15.0612 58.9079 15.0252 58.8359 15.0252 58.6919C15.0252 58.5119 15.0612 58.5119 15.1332 58.6199C15.1692 58.6919 15.1692 58.8359 15.0972 58.8719ZM16.2492 56.6399C16.0332 57.3239 15.6732 58.4759 15.4932 59.2319C15.3132 60.0239 15.1692 60.4199 15.1692 60.2039C15.1332 59.0879 16.2852 55.6319 17.4372 53.3999C18.4452 51.4559 18.5172 51.5639 17.5812 53.5439C17.0772 54.5879 16.5012 55.9559 16.2492 56.6399ZM16.5372 56.9279C16.5372 56.5319 17.9412 53.4359 18.7692 51.9959C19.5972 50.5919 19.5252 50.9879 18.6612 52.5359C18.2292 53.2919 17.6172 54.5879 17.2572 55.4159C16.6452 56.8919 16.5372 57.1079 16.5372 56.9279ZM17.3652 61.9679C17.2572 62.1119 17.2212 62.0759 17.2932 61.8959C17.3652 61.7519 17.4372 61.6799 17.4732 61.7159C17.5092 61.7519 17.4732 61.8599 17.3652 61.9679ZM17.0052 63.8399C16.9692 64.0199 16.8612 64.2719 16.7892 64.3799C16.6812 64.5239 16.6812 64.4879 16.7532 64.2719C16.7892 64.0559 16.8972 63.8039 16.9692 63.6959C17.0412 63.5519 17.0772 63.5879 17.0052 63.8399ZM16.9332 63.0119C16.8612 63.1199 16.8252 63.1559 16.8252 63.0839C16.8252 63.0119 16.8612 62.8679 16.9332 62.7599C17.0052 62.6159 17.0772 62.6159 17.0772 62.6879C17.0772 62.7599 17.0052 62.9039 16.9332 63.0119ZM20.1732 57.5399C19.8492 58.0439 19.1292 59.3759 18.5532 60.4919C18.0132 61.6079 17.4372 62.7599 17.3292 63.0119C17.2212 63.2999 17.1132 63.4439 17.0772 63.3719C17.0412 62.8679 20.5692 56.3159 20.8932 56.3159C20.9652 56.3159 20.9292 56.3519 20.1732 57.5399ZM21.5052 55.5239C21.3252 55.7399 21.2172 55.8119 21.2172 55.7039C21.2172 55.6679 21.3252 55.5599 21.4332 55.4519C21.6492 55.2719 21.6492 55.3079 21.5052 55.5239ZM21.9012 54.9479C21.7212 55.1999 21.6132 55.2719 21.6132 55.1639C21.6132 55.1279 21.7212 55.0199 21.8652 54.9119C22.0812 54.7319 22.0812 54.7319 21.9012 54.9479ZM26.0052 56.5679C26.0772 56.4599 26.1492 56.4239 26.1492 56.4959C26.1492 56.5679 26.0772 56.7479 26.0052 56.8559C25.9332 56.9639 25.8612 56.9999 25.8612 56.9279C25.8612 56.8559 25.9332 56.6759 26.0052 56.5679ZM25.3932 60.0959C25.3572 60.1319 25.3212 60.0599 25.3212 59.9159C25.3212 59.7719 25.3572 59.7359 25.3932 59.8439C25.4652 59.9519 25.4292 60.0599 25.3932 60.0959ZM25.5732 59.3759C25.5012 59.5559 25.4652 59.5919 25.4652 59.4479C25.4652 59.3399 25.5372 59.1239 25.5732 58.9799C25.6812 58.7999 25.7172 58.7639 25.7172 58.9079C25.7172 59.0159 25.6452 59.2319 25.5732 59.3759ZM27.8412 52.7879C27.6972 53.4719 25.7172 58.7279 25.7892 58.2959C25.8252 58.0439 26.1132 57.1799 26.4372 56.3519C26.7252 55.5239 27.1572 54.3359 27.4092 53.6879C27.8412 52.4639 28.0212 52.1039 27.8412 52.7879ZM28.0212 52.2839C27.9492 52.3199 27.9132 52.2479 27.9492 52.1039C27.9492 51.9239 27.9852 51.9239 28.0212 52.0319C28.0572 52.1039 28.0572 52.2479 28.0212 52.2839Z" fill="url(#paint5_linear)"/>
<path d="M40.095 44.9399C40.851 45.0119 41.499 45.0839 41.499 45.0839C41.499 45.1199 41.247 45.9119 40.923 46.9199C38.835 53.1119 37.863 58.7999 38.403 61.9319C38.727 63.8039 39.591 64.9199 41.463 65.8919C42.543 66.4679 43.191 66.5399 43.299 66.2159C43.335 66.1079 43.083 65.9279 42.723 65.7479C41.931 65.4239 41.607 64.8119 41.391 63.2279C41.031 60.6359 41.787 56.7479 44.415 47.8559L45.171 45.3719H47.367C50.211 45.3359 50.715 45.2639 51.039 44.6519C51.183 44.3999 51.255 44.1479 51.219 44.1119C51.147 43.9679 48.375 43.5719 46.755 43.4639L45.711 43.3919L45.963 42.3839C46.107 41.8439 46.215 41.1239 46.215 40.7279C46.251 40.1159 46.215 40.0079 45.855 39.7559C45.639 39.6119 45.315 39.3239 45.135 39.1439C44.739 38.7839 44.595 38.7119 44.307 38.9279C44.091 39.1079 43.263 40.7639 42.687 42.1319C42.327 43.1039 42.291 43.1399 41.895 43.0679C41.679 43.0319 40.923 42.9599 40.239 42.9239C38.943 42.8159 38.403 42.9599 38.403 43.3559C38.403 43.4639 38.259 43.6799 38.115 43.8239C37.503 44.4359 38.007 44.6879 40.095 44.9399ZM39.555 57.6479C39.519 57.6839 39.483 57.6119 39.483 57.4679C39.519 57.2879 39.519 57.2519 39.591 57.3599C39.627 57.4679 39.627 57.5759 39.555 57.6479ZM39.699 59.4839C39.663 59.5919 39.663 59.5199 39.663 59.3039C39.663 59.1239 39.663 59.0519 39.699 59.1599C39.735 59.2319 39.735 59.4119 39.699 59.4839ZM40.815 51.4919C40.851 51.2399 40.959 50.8799 41.031 50.7359C41.103 50.5559 41.103 50.6279 41.031 50.9519C40.995 51.2039 40.923 51.5639 40.851 51.7079C40.743 51.8879 40.743 51.8159 40.815 51.4919ZM40.599 52.2479C40.599 52.0679 40.635 52.0319 40.671 52.1759C40.707 52.2479 40.707 52.3919 40.671 52.4279C40.635 52.4639 40.599 52.3919 40.599 52.2479ZM40.455 52.7879C40.455 52.6439 40.491 52.6079 40.527 52.7159C40.563 52.7879 40.563 52.9319 40.527 52.9679C40.491 53.0039 40.455 52.9319 40.455 52.7879ZM40.311 53.3279C40.311 53.1839 40.347 53.1479 40.419 53.2559C40.455 53.3639 40.455 53.4719 40.383 53.5079C40.347 53.5799 40.311 53.4719 40.311 53.3279ZM40.167 53.9039C40.203 53.7239 40.239 53.6879 40.275 53.7959C40.311 53.9039 40.311 54.0119 40.239 54.0839C40.203 54.1199 40.167 54.0479 40.167 53.9039ZM40.059 54.5879C40.059 54.4079 40.095 54.3719 40.131 54.4799C40.167 54.5879 40.167 54.6959 40.131 54.7679C40.059 54.8039 40.023 54.7319 40.059 54.5879ZM39.915 55.2719C39.987 54.9119 39.987 54.8759 39.987 55.1999C40.023 55.3799 39.951 55.7039 39.915 55.8839C39.807 56.1719 39.771 56.1719 39.807 55.9559C39.807 55.8119 39.843 55.4879 39.915 55.2719ZM45.027 40.0079C45.171 39.8639 45.099 40.1159 44.559 41.6279C44.055 43.1039 43.875 43.4639 43.875 43.1759C43.875 43.0319 44.955 40.0799 45.027 40.0079ZM43.875 42.1679C43.947 42.0599 44.019 42.0239 44.019 42.0959C44.019 42.1679 43.947 42.3119 43.875 42.4559C43.803 42.5639 43.731 42.5999 43.731 42.5279C43.731 42.4199 43.803 42.2759 43.875 42.1679ZM42.831 46.7039C42.327 48.2879 41.031 52.7519 40.635 54.3719C40.527 54.9479 40.275 56.2079 40.095 57.1799C39.915 58.1879 39.771 58.7999 39.771 58.5479C39.771 58.0439 40.203 55.4879 40.563 53.9399C41.211 51.2399 42.939 45.5519 43.191 45.2639C43.371 45.0839 43.371 45.1559 42.831 46.7039ZM42.651 45.5879C42.723 45.4799 42.759 45.4439 42.759 45.5159C42.759 45.5879 42.723 45.7679 42.651 45.8759C42.579 45.9839 42.507 46.0199 42.507 45.9479C42.507 45.8759 42.579 45.6959 42.651 45.5879ZM42.435 46.3079C42.471 46.3439 42.183 47.2799 41.823 48.4319C41.463 49.5479 41.139 50.4119 41.139 50.3039C41.139 50.0879 42.363 46.2359 42.435 46.3079Z" fill="url(#paint6_linear)"/>
<path d="M55.1059 66.2159C55.4299 66.4679 55.9699 66.4679 56.3659 66.2159C56.7979 65.8919 56.7619 65.7839 56.1139 65.4959C55.4299 65.2079 55.2499 64.7039 55.2499 62.9399C55.2499 61.4639 55.5379 59.8799 56.1859 57.2879C56.7619 55.1639 56.9419 53.4359 56.6899 52.6799C56.4739 52.0319 55.8259 51.4199 55.1779 51.2039C54.8899 51.1319 54.5299 50.9519 54.4219 50.7719C53.9899 50.3399 53.2339 50.4119 52.6219 50.9519C52.0099 51.4559 50.5699 53.6159 49.4539 55.5959C49.0219 56.4239 48.6259 57.0719 48.5899 57.0359C48.5179 56.9279 49.2019 54.5879 50.0659 52.0679C50.8219 49.9079 51.2179 48.7919 52.7299 44.8679C53.7379 42.2399 54.3499 40.4039 54.3499 39.8639C54.3499 39.3959 54.0979 38.9999 53.8099 38.9999C53.7019 38.9999 53.6299 38.9279 53.6299 38.8199C53.6299 38.7479 53.5939 38.7119 53.5219 38.7479C53.4499 38.8199 53.3419 38.6759 53.2699 38.4959C52.9099 37.7399 52.2619 38.2079 51.2899 39.8639C49.4539 42.9959 46.5739 50.1599 45.4939 54.4079C44.1979 59.4479 43.9819 63.4079 44.9539 64.1639C45.1339 64.3439 45.4219 64.4519 45.5299 64.4159C45.6739 64.3799 45.9259 64.4879 46.1059 64.6319C46.5739 65.0639 46.7899 64.9919 47.1139 64.1999C47.7259 62.7239 50.1019 58.0799 50.9659 56.6759C51.8659 55.2719 53.0899 53.7239 53.1979 53.8679C53.2339 53.9039 53.0899 54.6959 52.9099 55.5959C52.4059 57.9719 52.2619 59.2679 52.2619 60.9959C52.2619 62.6879 52.4779 63.6599 53.0179 64.5599C53.4139 65.2439 54.2779 65.9999 54.6019 65.9999C54.7459 65.9999 54.9619 66.1079 55.1059 66.2159ZM55.3219 54.2639C55.3219 54.1199 55.3579 54.0839 55.3939 54.1919C55.4299 54.2999 55.4299 54.4079 55.3939 54.4439C55.3219 54.4799 55.2859 54.4079 55.3219 54.2639ZM53.2339 40.1519C53.2339 40.2239 53.0899 40.5119 52.9459 40.7639C52.8019 41.0159 52.6939 41.1959 52.6939 41.1239C52.6939 41.0159 52.8019 40.7639 52.9459 40.4759C53.0899 40.2239 53.2339 40.0799 53.2339 40.1519ZM51.9379 41.0519C51.9739 41.0519 51.9019 41.2319 51.7939 41.4839C51.5419 41.9879 51.4699 42.0959 51.4699 41.9519C51.4699 41.8079 51.8659 41.0519 51.9379 41.0519ZM45.9619 60.5999C45.6739 62.6879 45.5299 63.2639 45.6379 61.9679C45.9619 58.1159 47.1499 53.6879 49.4899 47.4959C50.5699 44.6879 53.0539 39.0359 53.1979 39.1799C53.2339 39.2159 53.0179 39.7199 52.7659 40.2959C51.7219 42.5279 49.7779 47.1359 48.9139 49.5119C47.2939 54.0119 46.4659 57.1079 45.9619 60.5999ZM46.3579 60.5999C46.3579 60.8159 46.2859 61.1759 46.2499 61.3559L46.1419 61.6799V61.3559C46.1419 61.1759 46.1779 60.8159 46.2499 60.5999L46.3579 60.1679V60.5999ZM46.6459 58.9439C46.4659 59.8439 46.3939 59.9879 46.4299 59.4479C46.6099 58.0439 47.6899 54.0479 48.8059 50.8799C49.7779 48.0359 52.5139 41.2319 52.6579 41.3759C52.6579 41.3759 52.1179 42.8519 51.3979 44.5799C50.6779 46.3079 49.8859 48.2879 49.6699 48.9359C48.4459 52.3559 47.9779 53.8319 47.4739 55.7039C47.1859 56.7839 46.7899 58.2599 46.6459 58.9439ZM55.2139 55.2359C55.1419 55.9199 54.6379 57.7919 54.6379 57.5039C54.6019 57.3959 54.7819 56.7119 54.9619 55.9919C55.1419 55.2719 55.2499 54.9479 55.2139 55.2359ZM54.4579 53.7599C54.5299 53.3999 54.5299 53.3639 54.5659 53.6519C54.6019 53.8319 54.5659 54.0119 54.4939 54.0839C54.4219 54.1559 54.4219 54.0479 54.4579 53.7599ZM54.3499 54.5519C54.3499 54.3719 54.3859 54.3359 54.4219 54.4439C54.4579 54.5519 54.4579 54.6959 54.4219 54.7319C54.3859 54.7679 54.3499 54.6959 54.3499 54.5519ZM54.2779 55.0199C54.3139 55.0919 54.3139 55.2359 54.2779 55.3439C54.2419 55.4519 54.2059 55.3439 54.2059 55.1639C54.2059 54.9839 54.2419 54.9119 54.2779 55.0199ZM54.0619 55.7759C54.0619 55.6319 54.0979 55.5959 54.1699 55.7039C54.2059 55.8119 54.2059 55.9199 54.1339 55.9559C54.0979 55.9919 54.0619 55.9199 54.0619 55.7759ZM53.9179 56.4599C53.9539 56.3159 53.9899 56.2799 54.0259 56.3879C54.0619 56.4959 54.0619 56.6039 53.9899 56.6399C53.9539 56.6759 53.9179 56.6039 53.9179 56.4599ZM53.8099 56.9999C53.8099 56.8559 53.8459 56.8199 53.8819 56.9279C53.9179 57.0359 53.9179 57.1439 53.8819 57.1799C53.8099 57.2519 53.7739 57.1439 53.8099 56.9999ZM53.7379 57.6119C53.7739 57.7199 53.7739 57.8639 53.7379 57.9359C53.7019 58.0439 53.6659 57.9719 53.6659 57.7919C53.6659 57.5759 53.7019 57.5039 53.7379 57.6119ZM53.3059 60.8879C53.2699 60.9599 53.2339 60.8519 53.2339 60.7079C53.2699 60.5639 53.2699 60.5279 53.3419 60.6359C53.3779 60.7439 53.3779 60.8519 53.3059 60.8879ZM53.4499 59.5919C53.4139 59.6999 53.4139 59.5919 53.4139 59.3399C53.4139 59.1239 53.4499 59.0519 53.4859 59.1959C53.4859 59.3399 53.4859 59.5199 53.4499 59.5919ZM53.5219 58.5479C53.5579 58.2959 53.5579 58.2239 53.5939 58.3679C53.6299 58.5119 53.6299 58.6919 53.5939 58.7639C53.5579 58.8719 53.5219 58.7639 53.5219 58.5479ZM53.5939 61.0679C53.7019 59.5199 53.8459 58.4759 54.3139 56.2799C54.5659 55.2359 54.7819 54.0839 54.8539 53.6519C54.9979 52.9319 54.9979 52.9319 54.9979 53.4719C54.9979 53.7599 54.8899 54.5879 54.7459 55.2359C54.6019 55.9199 54.3859 56.9279 54.2419 57.5039C54.1339 58.0439 53.9179 59.3399 53.7739 60.3839C53.5579 61.9319 53.5219 62.0399 53.5939 61.0679ZM54.2779 59.7359C54.2419 59.8439 54.2059 59.7359 54.2419 59.4839C54.2419 59.2679 54.2419 59.1959 54.2779 59.3399C54.3139 59.4479 54.3139 59.6279 54.2779 59.7359ZM54.4579 58.6559C54.3859 59.0519 54.3499 59.0519 54.3499 58.7279C54.3499 58.5479 54.4219 58.2599 54.4579 58.0439C54.5659 57.7919 54.5659 57.7559 54.5659 57.9719C54.5659 58.1519 54.5299 58.4399 54.4579 58.6559Z" fill="url(#paint7_linear)"/>
<path d="M64.7556 49.9799C63.0636 50.4839 61.5876 51.6359 60.1116 53.4719C57.5556 56.6399 56.5836 60.8879 57.7716 63.3719C58.2036 64.2359 59.1036 65.0639 60.3996 65.8199C61.4796 66.4319 61.5876 66.4319 62.4876 66.3959C63.0996 66.3599 63.6756 66.2519 63.9996 66.0719C66.0156 65.0999 69.3636 60.2039 68.2836 59.8079C68.1396 59.7359 67.8516 60.0239 67.4556 60.6359C67.0956 61.1399 66.3756 62.0039 65.8356 62.5799C64.5756 63.8399 62.9916 64.6679 61.7316 64.7759L60.9036 64.8119L60.6156 64.1639C60.3636 63.5879 60.3276 63.3359 60.3996 62.0399C60.4716 60.7079 60.9756 58.6559 61.1916 58.7999C62.8836 59.7359 64.3956 59.4839 66.0876 58.0079C68.0316 56.2799 69.3276 52.6799 68.4276 51.3839C68.2476 51.1319 68.0676 50.9159 68.0316 50.9159C67.9956 50.9159 67.6716 50.6999 67.3116 50.3759C66.4476 49.6919 65.9076 49.6199 64.7556 49.9799ZM58.5276 59.8079C58.4916 59.8439 58.4556 59.7719 58.4556 59.6279C58.4556 59.4839 58.4916 59.4479 58.5276 59.5559C58.5996 59.6639 58.5636 59.7719 58.5276 59.8079ZM58.5996 59.0159C58.5996 58.9079 58.6716 58.6919 58.7436 58.5479C58.8156 58.3679 58.8516 58.3319 58.8516 58.4759C58.8516 58.5839 58.7796 58.7999 58.7436 58.9439C58.6356 59.1239 58.5996 59.1599 58.5996 59.0159ZM58.6716 60.5999C58.7796 59.7719 59.0676 58.5479 59.3556 57.8639C59.6796 57.0359 59.6796 57.3599 59.3196 58.4759C59.1396 59.0519 58.9236 59.9159 58.8156 60.3839C58.6356 61.2119 58.5996 61.2479 58.6716 60.5999ZM59.3556 59.9519C59.3196 59.9879 59.2836 59.9159 59.2836 59.7719C59.2836 59.5919 59.3196 59.5919 59.3556 59.6999C59.3916 59.7719 59.3916 59.9159 59.3556 59.9519ZM59.9316 57.9359C59.9316 58.0439 59.8236 58.4399 59.6796 58.8359C59.4636 59.3399 59.4276 59.4119 59.4996 59.0519C59.6076 58.5119 59.9676 57.6119 59.9316 57.9359ZM61.8396 54.4799C62.0556 54.2999 62.0556 54.2999 61.9116 54.5159C61.7316 54.7679 61.6236 54.8399 61.6236 54.7319C61.6236 54.6959 61.7316 54.5879 61.8396 54.4799ZM60.3636 55.9919C60.2916 56.1719 60.1836 56.2799 60.1476 56.2799C60.1116 56.2799 60.1476 56.1719 60.2196 55.9919C60.3276 55.8479 60.3996 55.7399 60.4356 55.7399C60.4716 55.7399 60.4356 55.8479 60.3636 55.9919ZM61.1196 55.7039C60.8316 56.1719 60.5796 56.5679 60.5436 56.5679C60.4356 56.5679 61.2276 55.1999 61.4436 55.0199C61.5516 54.9479 61.4076 55.2359 61.1196 55.7039ZM67.2396 54.5879C67.2396 54.6599 67.1316 54.8399 67.0236 54.9839C66.8076 55.2359 66.8076 55.2359 66.9516 54.9119C67.1676 54.4799 67.2396 54.4079 67.2396 54.5879ZM66.9156 51.9239C67.0596 52.1039 66.6276 53.6159 66.1956 54.5159C65.5476 55.8119 64.5036 56.9279 63.4596 57.3959C62.7036 57.7559 61.6236 57.9359 61.6236 57.6839C61.6236 57.4679 62.7756 55.7039 63.5676 54.6599C64.6836 53.2919 66.6636 51.6719 66.9156 51.9239Z" fill="url(#paint8_linear)"/>
<path d="M92.8325 53.3639C92.9405 51.3479 92.9405 51.3479 92.6165 51.0239C92.2565 50.6999 91.8245 50.4479 91.6085 50.4839C91.5725 50.5199 91.5005 50.4119 91.5005 50.3039C91.5005 50.1959 91.4645 50.0879 91.3925 50.0879C91.3205 50.0879 91.2485 50.0159 91.2485 49.9079C91.2485 49.6919 91.1765 49.6559 90.7445 49.6559C90.3485 49.6559 90.3125 49.6919 90.1325 50.1599L89.9885 50.6639L89.5925 50.3399C89.3765 50.1599 88.9445 49.8359 88.6205 49.5839C87.5765 48.7559 86.5685 48.6839 85.1285 49.3319C81.0245 51.2039 77.8565 59.8079 79.4045 63.1919C80.2325 64.9559 81.3125 64.8839 82.0325 65.5319C82.2845 65.7479 82.5365 65.8199 83.1125 65.8199C83.7965 65.8199 84.0125 65.7479 84.5525 65.3519C85.3805 64.7759 86.1725 63.8039 87.1085 62.1119C87.5045 61.3919 87.8645 60.8159 87.9005 60.8519C87.9725 60.9239 87.0005 64.1639 86.5685 65.2439C86.1365 66.4319 85.8845 66.9359 84.8045 69.2759C82.7885 73.5239 80.9885 75.3239 78.8285 75.2519C78.3605 75.2519 77.7845 75.1439 77.5685 75.0359C76.9565 74.7119 76.7765 74.9999 77.3165 75.4319C77.7845 75.7919 79.3685 76.5839 79.9085 76.7279C80.4125 76.8719 81.3845 76.7639 82.1765 76.5119C83.5445 76.0799 85.3445 74.3519 87.0365 71.7959C88.2245 70.0319 89.0165 68.5199 89.9165 66.2879C90.8885 63.8759 91.3925 62.1119 92.1485 58.4039C92.6525 55.9559 92.7965 55.0199 92.8325 53.3639ZM89.4845 59.6279C89.4845 59.4839 89.5205 59.4479 89.5565 59.5559C89.5925 59.6279 89.5925 59.7719 89.5565 59.8079C89.4845 59.8439 89.4485 59.7719 89.4845 59.6279ZM89.4485 60.2039C89.4485 60.3479 89.3765 60.5999 89.3045 60.7439C89.1605 61.1039 89.1605 60.7079 89.3045 60.2399C89.4125 59.9879 89.4485 59.9519 89.4485 60.2039ZM80.3405 59.8799C80.3045 59.9879 80.3045 59.8799 80.3045 59.6279C80.3045 59.4119 80.3405 59.3399 80.3765 59.4839C80.4125 59.5919 80.3765 59.7719 80.3405 59.8799ZM80.4125 58.9439C80.4125 58.6559 80.7725 57.4679 80.8085 57.7199C80.8085 57.7919 80.7365 58.1519 80.6285 58.5479C80.5205 58.9079 80.4125 59.0879 80.4125 58.9439ZM80.7365 60.2039L80.5565 61.4279L80.5925 60.3839C80.6285 59.8079 80.8085 58.7999 81.0245 58.1519C81.3845 56.9279 82.3925 54.6599 82.7885 54.1559C82.8965 54.0119 82.7525 54.4079 82.4285 55.0559C82.0685 55.7039 81.6005 56.8559 81.3845 57.6119C81.1325 58.3319 80.8445 59.5199 80.7365 60.2039ZM81.6005 58.6199C81.2045 59.9159 81.0965 59.8799 81.4565 58.5479C81.8525 56.9279 83.3285 53.9399 84.1565 52.9319C84.3725 52.6799 84.1925 53.0399 83.7965 53.6879C83.3645 54.3359 82.7885 55.4519 82.5005 56.1719C82.1765 56.8559 81.7805 57.9719 81.6005 58.6199ZM87.6845 56.4239C86.3165 59.5559 84.4085 62.6519 83.4005 63.4079C82.4285 64.0919 82.3925 64.0559 82.5005 62.1479C82.5725 60.9239 82.6805 60.1319 82.9325 59.2319C83.9405 55.8119 85.8485 52.7519 87.5765 51.7439C87.9725 51.5279 88.3685 51.3479 88.5125 51.3479C88.6205 51.3479 88.8365 51.6719 89.0165 52.1759L89.3405 53.0399L88.8005 54.0839C88.4765 54.6239 87.9725 55.7039 87.6845 56.4239ZM89.1605 61.2119C89.1965 61.4639 88.6565 63.1559 88.6565 62.9399C88.6565 62.8679 88.7645 62.3999 88.9085 61.8959C89.0525 61.4279 89.1605 61.1039 89.1605 61.2119ZM87.9365 66.0359C88.0085 65.8919 88.0805 65.8919 88.0805 65.9639C88.0805 66.0359 88.0085 66.1799 87.9365 66.2879C87.8645 66.3959 87.8285 66.4319 87.8285 66.3599C87.8285 66.2879 87.8645 66.1439 87.9365 66.0359ZM89.3405 63.9119C89.0165 64.8839 88.4405 66.2879 88.0805 67.0439C87.3245 68.6279 87.1805 68.7719 87.8645 67.2239C88.3685 66.1439 89.1605 64.0919 89.5565 62.8319C89.6645 62.3999 89.8085 62.0759 89.8445 62.1119C89.8805 62.1479 89.6645 62.9399 89.3405 63.9119ZM89.9525 61.8599C89.9165 61.8959 89.8805 61.8239 89.8805 61.6799C89.8805 61.5359 89.9165 61.4999 89.9525 61.6079C89.9885 61.7159 89.9885 61.8239 89.9525 61.8599ZM90.0965 61.3199C90.0605 61.3559 90.0245 61.2839 90.0245 61.1399C90.0245 60.9599 90.0605 60.9599 90.0965 61.0679C90.1325 61.1399 90.1325 61.2839 90.0965 61.3199ZM88.6925 64.3799C88.2605 65.5679 88.0805 65.9279 88.0805 65.7119C88.0805 65.6399 88.1885 65.2799 88.3685 64.8839C88.8005 63.6959 89.5565 60.9959 90.0245 58.8359C90.2765 57.7559 90.4925 56.8559 90.5285 56.8919C90.7085 57.0719 89.4125 62.3279 88.6925 64.3799ZM90.6365 56.5679C90.6005 56.6759 90.5645 56.6039 90.5645 56.4239C90.5645 56.2079 90.6005 56.1359 90.6365 56.2439C90.6725 56.3519 90.6725 56.4959 90.6365 56.5679ZM90.7805 55.9559C90.7445 56.0279 90.7085 55.9199 90.7085 55.7759C90.7085 55.6319 90.7445 55.5959 90.7805 55.7039C90.8165 55.8119 90.8165 55.9199 90.7805 55.9559Z" fill="url(#paint9_linear)"/>
<path d="M103.494 48.5759C102.594 48.0719 102.378 47.9999 101.694 47.9999C101.226 47.9999 100.866 47.9639 100.722 47.8199C99.6061 46.7759 97.0861 48.9719 95.3941 52.4999C93.4501 56.5319 92.8381 60.9599 93.9541 63.3359C94.4581 64.4519 95.9341 65.7479 96.6901 65.7479C96.7981 65.7479 97.1581 65.8919 97.4821 66.0719C98.1661 66.4679 98.5621 66.5039 99.4261 66.2159C101.262 65.5679 103.242 62.5799 104.754 58.0799C105.87 54.7319 106.122 52.0319 105.438 50.4119C105.042 49.5479 104.79 49.3319 103.494 48.5759ZM103.926 56.2079C103.926 56.0279 103.962 55.9919 103.998 56.0999C104.034 56.2079 104.034 56.3159 103.998 56.3879C103.962 56.4239 103.926 56.3519 103.926 56.2079ZM95.3941 56.0639C95.4301 55.8839 95.4661 55.8479 95.5021 55.9919C95.5381 56.0639 95.5381 56.2079 95.5021 56.2439C95.4301 56.2799 95.3941 56.2079 95.3941 56.0639ZM94.8901 58.8719C94.8541 59.3759 94.7821 59.8079 94.7821 59.8439C94.6741 59.9519 94.7461 58.8359 94.8541 58.4039C94.9261 58.1519 94.9261 58.3319 94.8901 58.8719ZM95.0341 57.7199C95.0341 57.5759 95.0701 57.2879 95.1421 57.1079C95.2141 56.8199 95.2501 56.8199 95.2501 57.0359C95.2501 57.1799 95.1781 57.4679 95.1421 57.6479C95.0341 57.9359 95.0341 57.9359 95.0341 57.7199ZM95.6461 57.3599C95.4661 58.0799 95.3221 59.1959 95.2861 60.2399C95.1781 61.8599 95.1781 61.9319 95.0701 61.1399C94.8541 59.3399 95.8621 55.0559 97.0501 52.7159C97.4821 51.8519 97.4821 52.0679 97.0501 53.0039C96.6541 53.9039 96.1861 55.4159 95.6461 57.3599ZM96.7261 60.2039C96.6901 60.2759 96.6541 60.1679 96.6541 60.0239C96.6541 59.8799 96.6901 59.8439 96.7261 59.9519C96.7621 60.0599 96.7621 60.1679 96.7261 60.2039ZM96.9781 54.6599C96.7261 55.4879 96.2941 56.9279 96.0781 57.8999C95.8621 58.8359 95.6821 59.4839 95.6821 59.3399C95.6461 58.3319 96.7981 54.4079 97.6621 52.6079C98.0581 51.7439 98.4541 51.0599 98.4901 51.0599C98.5261 51.0599 98.3101 51.5279 98.0221 52.1399C97.7341 52.7159 97.2661 53.8679 96.9781 54.6599ZM103.098 59.7359C102.954 59.8799 102.954 59.8439 103.026 59.6639C103.062 59.5199 103.17 59.4479 103.206 59.4839C103.242 59.5199 103.206 59.6639 103.098 59.7359ZM103.566 58.6199C103.494 58.7999 103.422 59.0519 103.35 59.1599C103.242 59.3039 103.242 59.2679 103.314 59.0159C103.35 58.8359 103.458 58.5839 103.53 58.4759C103.602 58.3319 103.602 58.3679 103.566 58.6199ZM103.602 52.2479C103.422 55.5959 101.082 61.6439 99.2821 63.2999C99.0661 63.4799 98.6701 63.8039 98.3821 64.0199C98.0581 64.1999 97.7701 64.3799 97.7341 64.3799C97.4461 64.3799 97.1941 62.9039 97.1941 61.5359C97.1941 59.9159 97.5181 58.0079 98.2381 55.5599C98.9221 53.1119 99.4261 52.1039 100.47 51.1319C101.334 50.3759 102.954 49.4399 103.206 49.6199C103.494 49.7999 103.674 50.9519 103.602 52.2479ZM103.998 57.4319C103.746 57.9719 103.746 57.7199 103.962 57.1079C104.07 56.8199 104.178 56.7119 104.178 56.8199C104.178 56.9279 104.07 57.2159 103.998 57.4319ZM104.178 55.1639C104.286 54.9119 104.286 54.8759 104.286 55.0919C104.286 55.2719 104.25 55.5239 104.178 55.6679C104.034 55.9919 104.034 55.6319 104.178 55.1639ZM104.25 56.4959C104.214 56.5679 104.178 56.4599 104.178 56.3159C104.214 56.1719 104.214 56.1359 104.286 56.2439C104.322 56.3519 104.322 56.4599 104.25 56.4959ZM104.538 55.5599C104.502 55.5959 104.466 55.5239 104.466 55.3799C104.466 55.1999 104.502 55.1639 104.538 55.2719C104.574 55.3799 104.574 55.5239 104.538 55.5599ZM104.574 53.7599C104.574 53.9759 104.502 54.2999 104.466 54.4799C104.358 54.7319 104.358 54.6239 104.43 54.1559C104.502 53.3639 104.61 53.1479 104.574 53.7599ZM104.682 55.0199C104.646 55.0559 104.61 54.9839 104.61 54.8039C104.61 54.6599 104.646 54.6239 104.682 54.7319C104.718 54.8399 104.718 54.9479 104.682 55.0199ZM104.682 53.0759C104.646 53.2199 104.61 53.0759 104.61 52.7879C104.646 52.4639 104.646 52.3559 104.682 52.5359C104.718 52.7159 104.718 52.9679 104.682 53.0759ZM104.826 54.2999C104.754 54.3719 104.718 54.2639 104.754 54.1199C104.754 53.9759 104.79 53.9399 104.826 54.0479C104.862 54.1559 104.862 54.2639 104.826 54.2999Z" fill="url(#paint10_linear)"/>
<path d="M118.779 36.8759C118.707 36.9119 118.671 36.8399 118.671 36.7319C118.671 36.5519 118.563 36.5159 118.311 36.5519C118.131 36.5879 118.023 36.5879 118.059 36.5159C118.095 36.4439 118.059 36.4079 117.951 36.4079C117.879 36.4079 117.663 36.2279 117.519 36.0479C117.015 35.3999 116.511 35.7599 115.395 37.4519C113.487 40.4399 110.427 47.3879 109.203 51.6719C108.195 55.0559 108.087 55.7399 107.979 57.7559C107.943 59.0879 107.979 59.9159 108.087 60.3119C108.267 61.0319 109.167 62.1119 109.851 62.4719C110.463 62.7959 110.967 62.8319 110.967 62.5439C110.967 62.4359 110.895 62.2919 110.823 62.2559C110.607 62.1119 110.787 59.0519 111.147 57.2519C112.083 52.6439 113.883 47.9999 117.303 41.1239C117.915 39.9359 118.527 38.6039 118.671 38.2079C118.959 37.3799 118.995 36.7319 118.779 36.8759ZM108.987 57.9719C108.951 58.0799 108.951 57.9719 108.951 57.7199C108.951 57.5039 108.987 57.4319 109.023 57.5759C109.059 57.6839 109.059 57.8639 108.987 57.9719ZM115.503 40.4399C115.575 40.4039 115.611 40.4399 115.539 40.5839C115.467 40.7999 115.359 40.8359 115.359 40.6559C115.359 40.5839 115.431 40.4759 115.503 40.4399ZM115.287 40.9079C115.323 40.9079 115.251 41.1959 115.071 41.5199C114.747 42.1319 114.675 42.2399 114.675 42.0959C114.675 41.9519 115.215 40.9079 115.287 40.9079ZM114.495 42.4919C114.675 42.2399 114.675 42.2399 114.531 42.5639C114.315 42.9959 114.279 43.0679 114.279 42.8879C114.279 42.8159 114.351 42.6359 114.495 42.4919ZM114.135 43.1759C114.207 43.1399 114.279 43.1759 114.279 43.2479C114.279 43.3199 114.207 43.4279 114.135 43.4639C114.063 43.4999 113.991 43.4999 113.991 43.3919C113.991 43.3199 114.063 43.2479 114.135 43.1759ZM109.347 58.3679C109.239 59.3759 109.239 59.4479 109.203 58.7279C109.167 56.8199 110.319 52.3199 111.867 48.3959C112.479 46.8119 113.883 43.6439 113.955 43.7159C113.955 43.7519 113.775 44.2559 113.487 44.8319C112.011 48.1079 110.391 52.8599 109.743 55.8119C109.563 56.5679 109.383 57.7199 109.347 58.3679ZM109.887 57.3239C109.779 57.6839 109.779 57.6839 109.779 57.3959C109.779 57.2159 109.815 56.8919 109.887 56.7119C109.959 56.4239 109.995 56.4239 109.995 56.6399C109.995 56.7839 109.923 57.1079 109.887 57.3239ZM116.331 40.1519C113.991 44.6519 112.299 48.5759 111.255 51.9599C111.003 52.6439 110.643 53.9039 110.427 54.7679C110.211 55.6319 110.031 56.2439 110.031 56.0639C109.995 55.7039 110.859 52.5719 111.399 51.0239C112.479 47.8199 114.207 43.8239 115.971 40.5119C116.475 39.5039 117.123 38.3159 117.339 37.8839C117.555 37.4519 117.771 37.0919 117.807 37.1279C117.807 37.1639 117.159 38.4959 116.331 40.1519ZM111.903 64.5239C111.075 64.1639 110.679 64.1999 109.347 64.8839C108.339 65.3879 107.259 66.3959 107.259 66.8639C107.259 67.1879 107.799 67.6919 108.015 67.5839C108.123 67.5479 108.303 67.6559 108.447 67.7999C108.807 68.2319 109.023 68.1599 109.635 67.4759C110.427 66.6479 111.039 66.2159 111.975 65.8919C113.163 65.4239 113.163 65.0639 111.903 64.5239Z" fill="url(#paint11_linear)"/>
<defs>
<linearGradient id="paint0_linear" x1="-4.3603" y1="-6.09854" x2="87.1992" y2="103.869" gradientUnits="userSpaceOnUse">
<stop stop-color="#FA5457"/>
<stop offset="1" stop-color="#CF2E73"/>
</linearGradient>
<linearGradient id="paint1_linear" x1="-4.3603" y1="-6.09854" x2="87.1992" y2="103.869" gradientUnits="userSpaceOnUse">
<stop stop-color="#FA5457"/>
<stop offset="1" stop-color="#CF2E73"/>
</linearGradient>
<linearGradient id="paint2_linear" x1="-4.3603" y1="-6.09854" x2="87.1992" y2="103.869" gradientUnits="userSpaceOnUse">
<stop stop-color="#FA5457"/>
<stop offset="1" stop-color="#CF2E73"/>
</linearGradient>
<linearGradient id="paint3_linear" x1="-4.3603" y1="-6.09854" x2="87.1992" y2="103.869" gradientUnits="userSpaceOnUse">
<stop stop-color="#FA5457"/>
<stop offset="1" stop-color="#CF2E73"/>
</linearGradient>
<linearGradient id="paint4_linear" x1="-4.3603" y1="-6.09854" x2="87.1992" y2="103.869" gradientUnits="userSpaceOnUse">
<stop stop-color="#FA5457"/>
<stop offset="1" stop-color="#CF2E73"/>
</linearGradient>
<linearGradient id="paint5_linear" x1="-4.3603" y1="-6.09854" x2="87.1992" y2="103.869" gradientUnits="userSpaceOnUse">
<stop stop-color="#FA5457"/>
<stop offset="1" stop-color="#CF2E73"/>
</linearGradient>
<linearGradient id="paint6_linear" x1="-4.3603" y1="-6.09854" x2="87.1992" y2="103.869" gradientUnits="userSpaceOnUse">
<stop stop-color="#FA5457"/>
<stop offset="1" stop-color="#CF2E73"/>
</linearGradient>
<linearGradient id="paint7_linear" x1="-4.3603" y1="-6.09854" x2="87.1992" y2="103.869" gradientUnits="userSpaceOnUse">
<stop stop-color="#FA5457"/>
<stop offset="1" stop-color="#CF2E73"/>
</linearGradient>
<linearGradient id="paint8_linear" x1="-4.3603" y1="-6.09854" x2="87.1992" y2="103.869" gradientUnits="userSpaceOnUse">
<stop stop-color="#FA5457"/>
<stop offset="1" stop-color="#CF2E73"/>
</linearGradient>
<linearGradient id="paint9_linear" x1="-4.3603" y1="-6.09854" x2="87.1992" y2="103.869" gradientUnits="userSpaceOnUse">
<stop stop-color="#FA5457"/>
<stop offset="1" stop-color="#CF2E73"/>
</linearGradient>
<linearGradient id="paint10_linear" x1="-4.3603" y1="-6.09854" x2="87.1992" y2="103.869" gradientUnits="userSpaceOnUse">
<stop stop-color="#FA5457"/>
<stop offset="1" stop-color="#CF2E73"/>
</linearGradient>
<linearGradient id="paint11_linear" x1="-4.3603" y1="-6.09854" x2="87.1992" y2="103.869" gradientUnits="userSpaceOnUse">
<stop stop-color="#FA5457"/>
<stop offset="1" stop-color="#CF2E73"/>
</linearGradient>
</defs>
</svg>
