<svg width="51" height="34" viewBox="0 0 51 34" fill="none" xmlns="http://www.w3.org/2000/svg">
<path d="M5.148 33.2131C5.256 33.4291 5.76 33.3571 5.832 33.1411C5.868 33.0331 5.832 32.8171 5.76 32.7091C5.616 32.5651 5.58 31.7371 5.652 29.2531C5.724 25.8691 5.832 25.1131 6.084 25.0411C6.156 25.0051 6.66 24.8971 7.236 24.7531C10.224 24.0691 12.96 22.3051 16.524 18.7411C19.224 16.0411 20.628 13.9891 21.492 11.3971C21.816 10.3531 21.852 10.0291 21.852 8.51708C21.852 6.86108 21.852 6.75308 21.42 5.88908C21.204 5.42108 20.664 4.55708 20.268 4.05308C18.684 1.96508 17.64 1.28108 15.444 0.81308C12.528 0.201081 9.468 0.741082 6.876 2.32508C5.328 3.22508 3.276 4.95308 2.34 6.03308C1.332 7.25708 0.432 8.98508 0.324 9.95708C0.216 10.8211 0.468 11.3611 1.26 12.1171C1.872 12.6931 2.448 12.8371 2.16 12.3331C1.98 11.9731 2.124 11.3611 2.628 10.3531C3.996 7.65308 7.092 5.20508 10.62 4.05308C12.204 3.51308 14.544 3.40508 16.164 3.83708C17.64 4.19708 18.756 4.73708 18.936 5.16908C19.116 5.67308 19.08 7.14908 18.864 8.19308C18.108 11.7571 15.588 15.3211 11.376 18.7051C9.36 20.3251 6.84 21.9811 6.624 21.7651C6.516 21.6931 7.704 18.1651 8.388 16.5091C8.748 15.6811 9.612 13.6291 10.332 12.0091C11.088 10.3531 11.736 8.69708 11.808 8.26508C11.988 7.50908 11.988 7.50908 11.592 7.18508C11.376 7.00508 11.16 6.89708 11.088 6.93308C11.016 6.96908 10.944 6.93308 10.944 6.86108C10.944 6.78908 10.872 6.71708 10.764 6.71708C10.692 6.71708 10.512 6.57308 10.44 6.39308C10.224 5.88908 9.684 5.92508 9.072 6.50108C8.46 7.07708 7.056 9.63308 6.156 11.9371C5.256 14.1691 3.456 19.6771 3.132 21.1891C2.7 23.2771 2.736 23.2411 1.8 23.1331C1.188 23.0611 0.972 22.9891 0.648 22.6291C0.216 22.1611 0 22.1251 0 22.4851C0 22.8811 0.792 23.7091 1.692 24.3571C2.196 24.7171 2.448 24.9331 2.376 25.0771C2.232 25.4371 2.304 29.1451 2.448 29.8291C2.736 31.1251 3.96 32.8891 4.644 33.0331C4.896 33.0691 5.112 33.1411 5.148 33.2131ZM3.24 6.82508C3.456 6.68108 3.456 6.68108 3.312 6.89708C3.132 7.11308 2.988 7.18508 2.988 7.07708C2.988 7.04108 3.096 6.93308 3.24 6.82508ZM1.512 9.38108C1.8 8.76908 2.52 7.61708 2.808 7.40108C2.952 7.29308 2.88 7.43708 2.664 7.72508C2.448 7.97708 2.088 8.58908 1.836 9.09308C1.368 9.95708 1.224 10.1011 1.512 9.38108ZM4.212 6.53708C3.024 7.79708 2.88 7.97708 2.484 8.58908C2.304 8.91308 2.124 9.20108 2.088 9.20108C1.764 9.20108 3.636 6.82508 4.5 6.10508C4.788 5.88908 4.68 6.03308 4.212 6.53708ZM17.712 13.7011C18.576 12.3331 18.684 12.1891 18.288 13.0171C18.072 13.4131 17.712 13.9171 17.496 14.1691C17.28 14.4571 17.352 14.2771 17.712 13.7011ZM17.028 15.2851C17.784 14.2771 18.648 12.9811 18.972 12.3331C19.116 12.0451 19.26 11.8291 19.296 11.8651C19.404 11.9731 18.36 13.7371 17.676 14.6731C17.316 15.1771 16.884 15.7171 16.704 15.8611C16.524 16.0051 16.668 15.7531 17.028 15.2851ZM16.02 16.5451C16.2 16.3291 16.38 16.1851 16.416 16.1851C16.452 16.1851 16.344 16.3291 16.164 16.5451C15.984 16.7251 15.804 16.8691 15.768 16.8691C15.732 16.8691 15.876 16.7251 16.02 16.5451ZM16.056 17.1931C16.668 16.5091 17.568 15.3931 18.036 14.7451C19.404 12.8731 19.44 12.9451 18.108 14.8531C17.712 15.4651 16.812 16.5091 16.128 17.1931L14.904 18.4531L16.056 17.1931ZM10.908 7.14908C10.944 7.22108 10.764 7.68908 10.476 8.22908C8.568 12.0091 6.732 16.5451 5.616 20.2171C5.4 20.9731 5.148 21.8371 5.076 22.0891C5.004 22.3411 4.932 22.4851 4.932 22.3771C4.896 21.5851 7.056 15.2851 8.46 12.1531C9.54 9.74108 10.836 7.07708 10.908 7.14908ZM10.116 7.65308C10.332 7.47308 10.332 7.50908 10.152 7.76108C10.044 7.90508 9.936 8.04908 9.9 8.08508C9.864 8.12108 9.864 8.08508 9.864 7.97708C9.864 7.90508 9.972 7.76108 10.116 7.65308ZM4.428 22.2331C4.752 20.5771 6.156 16.4011 7.308 13.5211C8.352 11.0371 9.72 8.15708 9.828 8.26508C9.864 8.33708 9.828 8.44508 9.756 8.51708C9.612 8.73308 8.172 11.8291 7.704 12.9451C6.48 15.9691 5.436 18.9931 4.896 20.9731C4.5 22.5571 4.248 23.1691 4.428 22.2331ZM3.492 26.6611C3.456 26.7331 3.42 26.6251 3.456 26.4091C3.456 26.1931 3.492 26.1211 3.492 26.2291C3.528 26.3731 3.528 26.5531 3.492 26.6611ZM3.924 26.6251C3.852 27.3451 3.852 28.4251 3.888 29.0371C3.924 29.6851 3.924 30.1891 3.888 30.1891C3.672 30.1891 3.672 25.5091 3.888 25.2571C4.032 25.1131 4.068 25.3651 3.924 26.6251ZM4.392 26.4811C4.356 27.2011 4.32 27.8131 4.284 27.8491C4.212 27.9571 4.284 26.0131 4.392 25.5811C4.428 25.3651 4.464 25.7611 4.392 26.4811Z" fill="url(#paint0_linear)"/>
<path d="M29.7011 1.06508C29.5211 0.92108 29.1971 0.63308 28.9811 0.417081C28.6571 0.0930808 28.5491 0.0570815 28.2611 0.16508C28.0811 0.237081 27.8291 0.417081 27.7211 0.561081C27.2531 1.06508 26.4611 2.50508 25.9211 3.76508C24.7331 6.50108 22.6451 13.2691 21.9251 16.5811C21.2771 19.5691 21.2051 20.0731 21.2051 23.0251C21.2051 25.6531 21.2411 26.0131 21.5291 26.8771C22.0691 28.6771 22.7891 29.3971 24.3731 29.9371C25.3811 30.2611 25.9211 29.9011 25.2011 29.3611C25.0211 29.1811 24.6971 28.6771 24.5531 28.2451C24.2651 27.4891 24.2291 27.2011 24.2291 24.8971C24.2651 22.6651 24.3011 22.1251 24.6251 20.5771C25.2371 17.6971 26.2451 14.1691 28.1531 8.33708C29.1251 5.31308 29.9531 2.54108 30.0251 2.10908C30.0611 1.42508 30.0611 1.31708 29.7011 1.06508ZM27.5051 3.08108C27.6131 2.86508 27.7211 2.79308 27.7211 2.86508C27.7211 2.93708 27.6131 3.15308 27.5051 3.33308C27.3971 3.51308 27.3251 3.62108 27.3251 3.54908C27.3251 3.47708 27.3971 3.26108 27.5051 3.08108ZM27.1811 3.87308C27.2531 3.76508 27.3251 3.72908 27.3251 3.83708C27.3251 3.90908 27.2531 4.05308 27.1811 4.16108C27.1091 4.26908 27.0371 4.30508 27.0371 4.23308C27.0371 4.16108 27.1091 4.01708 27.1811 3.87308ZM26.8931 4.55708C26.9651 4.44908 27.0371 4.41308 27.0371 4.52108C27.0371 4.59308 26.9651 4.73708 26.8931 4.84508C26.8211 4.95308 26.7851 4.98908 26.7851 4.91708C26.7851 4.84508 26.8211 4.70108 26.8931 4.55708ZM26.6411 5.27708C26.7131 5.13308 26.7491 5.13308 26.7491 5.20508C26.7491 5.27708 26.7131 5.42108 26.6411 5.52908C26.5691 5.63708 26.4971 5.67308 26.4971 5.60108C26.4971 5.52908 26.5691 5.38508 26.6411 5.27708ZM26.1731 6.50108C26.2091 6.32108 26.3171 6.06908 26.3891 5.96108C26.4611 5.81708 26.4611 5.85308 26.4251 6.06908C26.3531 6.28508 26.2811 6.53708 26.2091 6.64508C26.1011 6.78908 26.1011 6.71708 26.1731 6.50108ZM25.8131 7.50908C25.9571 7.14908 26.0651 6.93308 26.0651 7.04108C26.0651 7.14908 25.9571 7.54508 25.8131 7.94108C25.6691 8.30108 25.5611 8.51708 25.5611 8.40908C25.5611 8.30108 25.6691 7.90508 25.8131 7.50908ZM25.3811 8.84108C25.4531 8.69708 25.5251 8.69708 25.5251 8.76908C25.4891 9.02108 25.2731 9.45308 25.2731 9.23708C25.2731 9.12908 25.3091 8.94908 25.3811 8.84108ZM22.2131 24.4291C22.1771 24.6451 22.1411 24.4651 22.1411 24.0691C22.1411 23.6371 22.1771 23.4571 22.2131 23.6731C22.2491 23.8891 22.2491 24.2131 22.2131 24.4291ZM22.3211 21.5491C22.2851 21.6931 22.2851 21.5851 22.2851 21.3331C22.2851 21.0451 22.2851 20.9371 22.3211 21.0811C22.3571 21.1891 22.3571 21.4051 22.3211 21.5491ZM22.4651 20.1811C22.5011 20.2891 22.5011 20.4331 22.4651 20.5411C22.4291 20.6131 22.3931 20.5411 22.3931 20.3611C22.3931 20.1811 22.4291 20.0731 22.4651 20.1811ZM23.1131 22.0531C23.0411 22.7371 23.0051 23.3131 22.9691 23.3491C22.8971 23.4571 22.9331 21.9091 23.0411 21.3691C23.1491 21.0091 23.1491 21.2251 23.1131 22.0531ZM26.3531 9.23708C25.8851 10.6411 25.2011 12.9811 24.7691 14.4571C24.3371 15.9331 23.7971 17.9491 23.5811 18.9931C23.3651 20.0011 23.2211 20.5051 23.2571 20.0731C23.3651 19.2091 24.1211 15.9691 24.6611 14.2051C25.3811 11.7571 27.0731 6.60908 27.1091 6.64508C27.1451 6.68108 26.7851 7.86908 26.3531 9.23708ZM27.7931 5.06108C27.4331 5.99708 27.1811 6.50108 27.3971 5.81708C27.6131 5.09708 28.0451 4.01708 28.0811 4.05308C28.1171 4.08908 27.9731 4.52108 27.7931 5.06108ZM28.5491 3.08108C28.4771 3.18908 28.4051 3.22508 28.4051 3.11708C28.4051 3.04508 28.4771 2.90108 28.5491 2.79308C28.6211 2.68508 28.6931 2.64908 28.6931 2.72108C28.6931 2.79308 28.6211 2.93708 28.5491 3.08108ZM28.3691 2.46908C27.5051 4.44908 26.4611 7.22108 25.6331 9.92108C23.2211 17.5171 22.6091 20.4691 22.6451 24.2131C22.6451 25.3291 22.6091 26.2651 22.5731 26.2651C22.5371 26.2651 22.5011 25.9771 22.5011 25.6171C22.5011 25.2571 22.4651 24.8251 22.4291 24.6811C22.3211 24.1051 22.6811 20.5051 23.0051 18.7771C23.3651 17.0491 24.0491 14.3491 24.7691 12.0451C25.5971 9.34508 26.4971 6.57308 27.0011 5.24108C27.6131 3.65708 28.8371 0.95708 28.9091 1.06508C28.9451 1.06508 28.6931 1.71308 28.3691 2.46908Z" fill="url(#paint1_linear)"/>
<path d="M28.9859 28.8571C29.2739 29.0011 29.7059 29.2171 29.9219 29.3251C30.8579 29.8291 31.7579 28.9651 33.3779 26.0131L34.3499 24.3211L34.4219 25.4371C34.5659 27.5971 35.1059 28.7131 36.4739 29.6131C36.7979 29.8651 37.1219 30.0451 37.1939 30.0451C37.4099 30.0811 37.4099 29.7571 37.1939 28.6771C37.0499 27.8131 37.0139 27.0931 37.0499 25.7611C37.1939 23.1331 37.6619 21.1171 39.3539 16.0411C39.8219 14.7091 40.1819 13.4491 40.1459 13.2331C40.1099 12.9451 39.9659 12.8011 39.6419 12.6571C39.4259 12.5491 39.1739 12.3331 39.1379 12.2251C39.1019 12.0451 38.9219 11.9731 38.7419 11.9731C38.0579 11.9731 37.1579 13.4851 36.1139 16.3651C35.8259 17.1571 35.4659 18.0571 35.2859 18.3451C35.1059 18.6331 34.8179 19.2811 34.6019 19.7851C33.6659 22.0531 31.9379 25.4011 31.1099 26.4811C30.6419 27.0931 30.2099 27.5971 30.1379 27.5971C29.9579 27.5971 29.8499 26.1211 29.9219 24.7891C30.1379 22.2691 30.8579 19.2811 32.1539 15.5011L32.8379 13.5931L32.4419 13.2691C32.2259 13.0531 32.0099 12.9451 31.9379 12.9811C31.8659 13.0531 31.7939 13.0171 31.7939 12.9091C31.7939 12.8371 31.7579 12.8011 31.6859 12.8371C31.6139 12.8731 31.5059 12.7651 31.3979 12.5851C31.1819 12.0811 30.6779 12.1171 30.2099 12.6571C30.0299 12.9091 29.5619 13.7011 29.2019 14.4211C28.0139 16.7971 27.0419 19.9291 26.7179 22.5931C26.3579 25.4731 27.2939 28.0651 28.9859 28.8571ZM38.2379 15.7891C38.1659 15.9331 38.1299 15.9331 38.1299 15.8611C38.1299 15.7891 38.1659 15.6451 38.2379 15.5371C38.3099 15.4291 38.3819 15.3931 38.3819 15.4651C38.3819 15.5371 38.3099 15.6811 38.2379 15.7891ZM38.5259 15.1051C38.4539 15.2131 38.3819 15.2491 38.3819 15.1771C38.3819 15.1051 38.4539 14.9611 38.5259 14.8531C38.5979 14.7451 38.6699 14.7091 38.6699 14.7811C38.6699 14.8531 38.5979 14.9971 38.5259 15.1051ZM38.8139 14.4211C38.7419 14.5291 38.6699 14.5651 38.6699 14.4931C38.6699 14.4211 38.7419 14.2771 38.8139 14.1691C38.8859 14.0251 38.9219 14.0251 38.9219 14.0971C38.9219 14.1691 38.8859 14.3131 38.8139 14.4211ZM39.0659 13.4851C39.1379 13.3411 39.2099 13.3411 39.2099 13.4131C39.2099 13.4851 39.1379 13.6291 39.0659 13.7371C38.9939 13.8451 38.9219 13.8811 38.9219 13.8091C38.9219 13.7371 38.9939 13.5931 39.0659 13.4851ZM37.6259 15.9331C37.8059 15.3931 38.8139 13.1251 38.9579 12.9811C39.0299 12.9091 38.7419 13.5931 38.3819 14.4931C37.6979 16.0771 37.4099 16.6531 37.6259 15.9331ZM36.0059 21.4411C36.0419 21.0811 36.1499 20.6851 36.2219 20.5411C36.2939 20.3611 36.2939 20.4691 36.2219 20.7931C36.1139 21.6571 35.8979 22.1611 36.0059 21.4411ZM35.8619 22.3051C35.8979 22.4131 35.8979 22.5931 35.8619 22.7011C35.8259 22.8091 35.7899 22.7011 35.7899 22.4491C35.7899 22.2331 35.8259 22.1611 35.8619 22.3051ZM29.0219 21.5851C28.9859 21.6931 28.9499 21.6211 28.9499 21.4411C28.9499 21.2251 28.9859 21.1531 29.0219 21.2611C29.0579 21.3331 29.0579 21.5131 29.0219 21.5851ZM29.1299 20.9731C29.0939 21.0091 29.0579 20.9371 29.0579 20.7931C29.0579 20.6491 29.0939 20.6131 29.1659 20.7211C29.2019 20.8291 29.1659 20.9371 29.1299 20.9731ZM29.2739 20.3611C29.2379 20.4691 29.2019 20.3971 29.2019 20.1811C29.2019 20.0011 29.2379 19.9291 29.2739 20.0371C29.3099 20.1091 29.3099 20.2531 29.2739 20.3611ZM29.7779 18.4891C29.6339 19.1371 29.4539 19.5331 29.5619 18.9571C29.5979 18.7051 29.7059 18.3811 29.7419 18.2731C29.8499 18.1291 29.8499 18.2011 29.7779 18.4891ZM31.2539 14.3491C31.3619 14.2771 31.3259 14.4571 31.1819 14.7811C31.0379 15.0691 30.7139 15.9331 30.3899 16.6891C30.1019 17.4451 29.8859 17.8771 29.9579 17.6611C30.0659 17.0851 31.1099 14.5291 31.2539 14.3491ZM29.2379 18.2011C29.7059 16.7611 30.8579 13.9891 30.9299 14.0611C30.9659 14.0971 30.7499 14.7091 30.4619 15.3931C29.7779 16.9771 29.0219 19.4611 28.6619 21.2611C28.4819 22.0171 28.3019 23.0611 28.2299 23.5651L28.1219 24.5011L28.1579 23.4571C28.2659 22.0531 28.6979 19.9291 29.2379 18.2011ZM28.9139 18.1291C28.9859 18.0211 29.0579 17.9851 29.0579 18.0571C29.0579 18.1291 28.9859 18.3091 28.9139 18.4171C28.8419 18.5251 28.7699 18.5611 28.7699 18.4891C28.7699 18.4171 28.8419 18.2371 28.9139 18.1291ZM28.5179 19.4251C28.5179 19.2811 28.5539 19.2451 28.5899 19.3531C28.6259 19.4251 28.6259 19.5691 28.5899 19.6051C28.5539 19.6411 28.5179 19.5691 28.5179 19.4251ZM28.3739 19.9651C28.3739 19.8211 28.4099 19.7851 28.4459 19.8931C28.5179 20.0011 28.4819 20.1091 28.4459 20.1451C28.4099 20.2171 28.3739 20.1091 28.3739 19.9651ZM28.2299 20.5411C28.2659 20.3611 28.2659 20.3251 28.3379 20.4331C28.3739 20.5411 28.3739 20.6491 28.3019 20.7211C28.2659 20.7571 28.2299 20.6851 28.2299 20.5411ZM28.0859 21.2251C28.1939 20.8651 28.1939 20.8291 28.1939 21.1531C28.1939 21.3331 28.1579 21.6571 28.0859 21.8371C28.0139 22.1251 27.9779 22.1251 27.9779 21.9091C27.9779 21.7651 28.0499 21.4411 28.0859 21.2251ZM27.9059 22.5571C27.9419 22.7011 27.9419 22.8811 27.9059 22.9891C27.8699 23.0611 27.8339 22.9531 27.8339 22.7371C27.8339 22.5211 27.8699 22.4131 27.9059 22.5571Z" fill="url(#paint2_linear)"/>
<path d="M48.7935 12.5131C48.5055 12.3331 48.0015 12.0091 47.6775 11.7931C46.5615 11.0011 45.1215 11.3251 43.6815 12.6571C42.5655 13.7011 41.9175 14.9971 41.7015 16.5451C41.5215 18.1651 42.0255 19.6051 43.6455 21.9451C44.6175 23.3851 44.8695 24.1051 44.7615 25.1491C44.6175 26.6611 43.4295 27.8131 41.8455 28.0291C41.0895 28.1371 41.0535 28.1371 40.5135 27.6691C40.1895 27.4171 39.8295 27.0571 39.7215 26.8771C39.6135 26.6611 39.4695 26.5171 39.3975 26.5531C39.3255 26.5531 39.2175 26.4811 39.1455 26.3731C39.0735 26.2291 38.9655 26.3011 38.7135 26.6251C38.5335 26.8411 38.3535 27.1291 38.3535 27.2731C38.3535 27.9211 40.4775 29.4331 42.0615 29.9371C42.4575 30.0451 43.1055 30.0811 43.8975 30.0451C45.8415 29.9371 47.1735 29.1811 47.8935 27.7051C48.2175 27.0211 48.2535 26.8411 48.2175 25.9411C48.1455 24.8251 47.8935 24.3211 46.5255 22.1251C46.0215 21.3691 45.4815 20.3971 45.3375 19.9651C44.7255 18.3811 45.2295 16.1851 46.5255 14.7451C46.9935 14.2411 47.6415 13.7731 47.8935 13.7731C47.9655 13.7731 47.9655 14.5651 47.8935 15.5011L47.8215 17.2291L48.2535 17.4091C48.5055 17.5171 48.6495 17.6251 48.5775 17.6251C48.5055 17.6251 48.5055 17.6971 48.6135 17.7691C49.0095 18.1651 49.7295 17.2291 50.0895 15.8611C50.2695 15.1411 50.3055 14.8891 50.1615 14.3491C49.9455 13.5571 49.5135 12.9451 48.7935 12.5131ZM46.6695 26.5171C46.7775 26.2651 46.8495 26.1571 46.8495 26.2651C46.8495 26.4811 46.4535 27.2371 46.4535 27.0571C46.4535 27.0211 46.5255 26.7691 46.6695 26.5171ZM46.2015 26.1211C46.3815 25.2571 46.4175 25.1851 46.4535 25.7251C46.4535 26.0131 46.3455 26.3371 46.2375 26.4811C46.0935 26.7331 46.0575 26.6971 46.2015 26.1211ZM45.9855 25.5451C46.0215 25.6531 46.0215 25.7971 45.9855 25.9051C45.9495 25.9771 45.9135 25.9051 45.9135 25.7251C45.9135 25.5451 45.9495 25.4371 45.9855 25.5451ZM43.1055 16.2211C43.0695 16.2571 43.0335 16.1851 43.0335 16.0411C43.0335 15.8611 43.0695 15.8611 43.1055 15.9691C43.1415 16.0411 43.1415 16.1851 43.1055 16.2211ZM43.4295 16.7971C43.4295 16.9411 43.3935 17.0851 43.3215 17.1211C43.1055 17.2651 43.3935 15.8971 43.6815 15.3211C43.8615 14.9971 44.0055 14.7451 44.0415 14.7451C44.0775 14.7451 43.9335 15.1411 43.7535 15.6451C43.5735 16.1491 43.4295 16.6531 43.4295 16.7971ZM44.5815 14.9971C44.4015 15.4291 44.1495 15.9691 44.0415 16.2571L43.8615 16.7251L43.9335 16.2571C44.0055 15.7171 44.3655 14.9611 44.7255 14.5291C44.8695 14.3851 44.7975 14.6011 44.5815 14.9971ZM48.8655 16.0771C48.8295 16.1131 48.7935 16.0411 48.7935 15.8971C48.7935 15.7531 48.8295 15.7171 48.8655 15.8251C48.9015 15.8971 48.9015 16.0411 48.8655 16.0771Z" fill="url(#paint3_linear)"/>
<defs>
<linearGradient id="paint0_linear" x1="51.1436" y1="44.1492" x2="-7.77331" y2="32.8198" gradientUnits="userSpaceOnUse">
<stop stop-color="#212530"/>
<stop offset="1" stop-color="#50555C"/>
</linearGradient>
<linearGradient id="paint1_linear" x1="51.1436" y1="44.1492" x2="-7.77331" y2="32.8198" gradientUnits="userSpaceOnUse">
<stop stop-color="#212530"/>
<stop offset="1" stop-color="#50555C"/>
</linearGradient>
<linearGradient id="paint2_linear" x1="51.1436" y1="44.1492" x2="-7.77331" y2="32.8198" gradientUnits="userSpaceOnUse">
<stop stop-color="#212530"/>
<stop offset="1" stop-color="#50555C"/>
</linearGradient>
<linearGradient id="paint3_linear" x1="51.1436" y1="44.1492" x2="-7.77331" y2="32.8198" gradientUnits="userSpaceOnUse">
<stop stop-color="#212530"/>
<stop offset="1" stop-color="#50555C"/>
</linearGradient>
</defs>
</svg>
