<svg width="112" height="34" viewBox="0 0 112 34" fill="none" xmlns="http://www.w3.org/2000/svg">
<path d="M2.412 33.1719C2.664 33.2799 3.24 33.4239 3.744 33.4959C4.968 33.6759 5.22 33.6759 6.408 33.5319C7.56 33.3519 9.396 32.7759 10.656 32.1999C14.364 30.4719 16.38 28.3119 17.172 25.3239C17.46 24.1719 17.424 23.4159 17.028 22.4799C16.704 21.7599 14.796 19.5999 14.256 19.3839C14.04 19.3119 13.86 19.1679 13.86 19.1319C13.86 19.0959 14.364 18.6999 14.976 18.2319C17.388 16.4319 20.448 13.2279 21.708 11.1399C22.788 9.37591 23.256 7.14391 22.788 5.73991C22.572 5.09191 21.672 3.43591 21.06 2.60791C20.592 1.99591 19.476 1.23991 18.612 0.987907C17.568 0.699907 15.444 0.771908 13.932 1.20391C11.124 1.95991 8.172 3.68791 5.796 5.99191C3.348 8.36791 1.656 11.0679 1.656 12.5799C1.656 13.0479 2.34 14.1279 2.628 14.1279C2.7 14.1279 2.916 13.7679 3.096 13.3359C3.96 11.2119 6.336 8.25991 8.568 6.60391C9.756 5.70391 11.844 4.65991 13.32 4.19191C14.688 3.72391 15.84 3.57991 17.424 3.65191C18.792 3.68791 18.972 3.72391 19.764 4.19191C20.232 4.44391 20.664 4.76791 20.736 4.91191C21.06 5.88391 19.872 8.90791 18.432 10.8159C16.812 12.9759 13.86 15.6399 11.124 17.4399C10.26 18.0159 9.18 18.7359 8.748 19.0239C8.28 19.3119 7.92 19.5279 7.884 19.4919C7.812 19.4559 9 16.5399 10.62 12.8679C11.088 11.7519 11.628 10.4559 11.772 10.0239C12.096 9.19591 12.168 8.40391 11.952 8.40391C11.88 8.40391 11.808 8.33191 11.808 8.22391C11.808 8.04391 11.628 7.93591 11.376 8.00791C11.304 8.00791 11.268 7.93591 11.268 7.86391C11.268 7.75591 11.16 7.71991 11.052 7.79191C10.908 7.82791 10.836 7.71991 10.764 7.46791C10.692 7.14391 10.62 7.03591 10.332 7.03591C9.792 7.03591 9.504 7.28791 8.748 8.40391C7.38 10.4199 5.436 14.6319 4.392 17.7639C3.456 20.6439 2.916 23.7759 3.096 25.3599C3.276 27.0159 4.068 28.4199 5.004 28.8159C5.256 28.8879 5.544 29.0679 5.616 29.2119C5.868 29.4999 6.552 29.4639 6.732 29.1399C6.876 28.8519 6.732 28.3839 6.444 28.2759C6.192 28.2039 6.12 25.6119 6.3 24.5679C6.408 24.0999 6.552 23.3799 6.696 22.9479C6.876 22.2279 6.912 22.1919 7.272 22.2279C7.488 22.2639 8.136 22.1559 8.784 21.9399C10.764 21.3279 13.32 21.2199 14.472 21.7599C14.868 21.9399 14.904 22.0839 14.616 23.1639C14.148 25.0359 12.132 27.5559 10.08 28.9599C7.74 30.5079 5.004 31.5159 2.952 31.5159C1.764 31.5519 1.692 31.5159 1.044 31.0839C0.396 30.6519 0 30.5439 0 30.7599C0 31.1199 1.692 32.7759 2.412 33.1719ZM6.588 6.56791C6.84 6.31591 7.092 6.09991 7.128 6.09991C7.164 6.09991 6.984 6.31591 6.732 6.56791C6.48 6.81991 6.228 7.03591 6.192 7.03591C6.156 7.03591 6.336 6.81991 6.588 6.56791ZM3.024 11.1759C2.952 11.3199 2.844 11.4279 2.808 11.4279C2.772 11.4279 2.808 11.3199 2.88 11.1759C2.952 10.9959 3.06 10.8879 3.096 10.8879C3.132 10.8879 3.096 10.9959 3.024 11.1759ZM3.744 9.98791C3.636 10.1319 3.492 10.3839 3.384 10.5279L3.132 10.8159L3.276 10.5279C3.348 10.3839 3.528 10.1319 3.636 9.98791L3.852 9.73591L3.744 9.98791ZM4.716 9.12391C4.428 9.33991 4.392 9.37591 4.572 9.15991C4.932 8.72791 4.86 8.61991 4.428 8.97991C4.212 9.15991 4.284 9.01591 4.644 8.61991C4.932 8.25991 5.4 7.75591 5.652 7.53991C5.904 7.28791 5.832 7.43191 5.472 7.79191C4.86 8.43991 4.608 8.83591 4.932 8.61991C5.004 8.58391 5.076 8.58391 5.076 8.65591C5.076 8.72791 4.896 8.94391 4.716 9.12391ZM7.812 5.95591C7.704 6.06391 7.056 6.67591 6.372 7.32391L5.148 8.47591L6.192 7.39591C6.732 6.81991 7.38 6.20791 7.632 6.06391C7.848 5.88391 7.956 5.84791 7.812 5.95591ZM6.12 16.7919C6.228 16.3239 7.452 13.5519 7.74 13.0119C8.064 12.4359 7.956 12.7599 7.092 14.8119C6.12 17.0439 6.012 17.2599 6.12 16.7919ZM5.58 18.3039C5.616 18.1239 5.76 17.7639 5.868 17.5479C6.012 17.2239 6.012 17.1879 5.94 17.4759C5.904 17.6559 5.796 18.0159 5.688 18.2319C5.544 18.5559 5.508 18.5559 5.58 18.3039ZM5.292 19.0959C5.4 18.8439 5.472 18.7359 5.472 18.8439C5.472 19.0959 5.112 19.9239 5.076 19.7079C5.076 19.6359 5.184 19.3479 5.292 19.0959ZM4.932 20.1399C5.004 19.9599 5.076 19.9599 5.076 20.0679C5.076 20.2119 5.004 20.4279 4.932 20.5719C4.86 20.7519 4.824 20.7519 4.824 20.6439C4.824 20.4999 4.896 20.2839 4.932 20.1399ZM4.68 21.1119C4.68 20.9319 4.716 20.8959 4.752 21.0039C4.788 21.1119 4.788 21.2199 4.752 21.2919C4.716 21.3279 4.68 21.2559 4.68 21.1119ZM4.608 23.7399C4.572 23.8119 4.536 23.7039 4.536 23.5599C4.536 23.4159 4.572 23.3799 4.644 23.4879C4.68 23.5959 4.644 23.7039 4.608 23.7399ZM5.076 21.7959C4.86 22.6239 4.68 23.1639 4.68 23.0199C4.644 22.1199 5.868 18.3039 7.092 15.3879C8.136 12.8679 10.584 8.04391 10.584 8.43991C10.584 8.51191 10.044 9.59191 9.396 10.8519C8.028 13.6599 6.804 16.5039 6.048 18.6639C5.724 19.5639 5.292 20.9679 5.076 21.7959ZM7.812 15.5679C7.488 16.2879 6.912 17.7639 6.516 18.8439C6.12 19.9239 5.76 20.7519 5.76 20.6799C5.76 20.2839 7.344 16.1079 8.316 13.9479C9.252 11.9319 10.836 8.69191 10.908 8.69191C10.944 8.69191 10.98 8.72791 10.944 8.79991C10.836 9.01591 9.54 11.6799 8.964 12.9399C8.64 13.6599 8.1 14.8479 7.812 15.5679ZM18.72 11.9679C18.864 11.8239 19.008 11.7159 19.044 11.7159C19.08 11.7159 19.008 11.8239 18.864 11.9679C18.72 12.1479 18.576 12.2559 18.54 12.2559C18.504 12.2559 18.612 12.1479 18.72 11.9679ZM18.18 12.6879C18.324 12.5079 18.468 12.3999 18.504 12.3999C18.54 12.3999 18.468 12.5079 18.324 12.6879C18.18 12.8319 18.036 12.9399 18 12.9399C17.964 12.9399 18.036 12.8319 18.18 12.6879ZM17.172 14.0919C18.108 13.1199 19.188 11.9319 19.548 11.4279C20.268 10.4199 20.412 10.2759 20.196 10.7079C19.98 11.1399 19.116 12.2559 18.216 13.2639C17.784 13.7319 16.956 14.5599 16.416 15.0279C15.696 15.6759 15.84 15.4599 17.172 14.0919ZM13.392 17.9439C13.464 17.8719 14.004 17.4039 14.616 16.9359C15.228 16.4319 16.488 15.3159 17.424 14.3799C18.72 13.1199 18.936 12.9759 18.324 13.6599C17.604 14.5239 15.768 16.1799 14.292 17.3679C13.644 17.8359 13.104 18.1959 13.392 17.9439ZM14.4 26.2599C14.508 26.1159 14.58 25.9719 14.616 25.9719C14.652 25.9719 14.616 26.1159 14.544 26.2599C14.472 26.4039 14.364 26.5119 14.328 26.5119C14.292 26.5119 14.328 26.4039 14.4 26.2599ZM14.256 27.0159C14.616 26.5479 15.012 25.8999 15.192 25.6119C15.372 25.3239 15.516 25.1439 15.516 25.2519C15.516 25.4319 14.58 26.9439 14.112 27.4839C13.5 28.2039 13.572 27.9519 14.256 27.0159ZM13.932 28.1679C14.256 27.8439 14.724 27.3039 14.94 26.9439C15.192 26.6199 15.372 26.4039 15.372 26.4399C15.372 26.5119 15.192 26.7999 14.976 27.1239C14.76 27.4479 14.292 27.9519 13.968 28.2399L13.392 28.7799L13.932 28.1679Z" fill="url(#paint0_linear)"/>
<path d="M26.6363 13.8759C24.9443 14.3799 23.4683 15.5319 21.9923 17.3679C19.4363 20.5359 18.4643 24.7839 19.6523 27.2679C20.0843 28.1319 20.9843 28.9599 22.2803 29.7159C23.3603 30.3279 23.4683 30.3279 24.3683 30.2919C24.9803 30.2559 25.5563 30.1479 25.8803 29.9679C27.8963 28.9959 31.2443 24.0999 30.1643 23.7039C30.0203 23.6319 29.7323 23.9199 29.3363 24.5319C28.9763 25.0359 28.2563 25.8999 27.7163 26.4759C26.4563 27.7359 24.8723 28.5639 23.6123 28.6719L22.7843 28.7079L22.4963 28.0599C22.2443 27.4839 22.2083 27.2319 22.2803 25.9359C22.3523 24.6039 22.8563 22.5519 23.0723 22.6959C24.7643 23.6319 26.2763 23.3799 27.9683 21.9039C29.9123 20.1759 31.2083 16.5759 30.3083 15.2799C30.1283 15.0279 29.9483 14.8119 29.9123 14.8119C29.8763 14.8119 29.5523 14.5959 29.1923 14.2719C28.3283 13.5879 27.7883 13.5159 26.6363 13.8759ZM20.4083 23.7039C20.3723 23.7399 20.3363 23.6679 20.3363 23.5239C20.3363 23.3799 20.3723 23.3439 20.4083 23.4519C20.4803 23.5599 20.4443 23.6679 20.4083 23.7039ZM20.4803 22.9119C20.4803 22.8039 20.5523 22.5879 20.6243 22.4439C20.6963 22.2639 20.7323 22.2279 20.7323 22.3719C20.7323 22.4799 20.6603 22.6959 20.6243 22.8399C20.5163 23.0199 20.4803 23.0559 20.4803 22.9119ZM20.5523 24.4959C20.6603 23.6679 20.9483 22.4439 21.2363 21.7599C21.5603 20.9319 21.5603 21.2559 21.2003 22.3719C21.0203 22.9479 20.8043 23.8119 20.6963 24.2799C20.5163 25.1079 20.4803 25.1439 20.5523 24.4959ZM21.2363 23.8479C21.2003 23.8839 21.1643 23.8119 21.1643 23.6679C21.1643 23.4879 21.2003 23.4879 21.2363 23.5959C21.2723 23.6679 21.2723 23.8119 21.2363 23.8479ZM21.8123 21.8319C21.8123 21.9399 21.7043 22.3359 21.5603 22.7319C21.3443 23.2359 21.3083 23.3079 21.3803 22.9479C21.4883 22.4079 21.8483 21.5079 21.8123 21.8319ZM23.7203 18.3759C23.9363 18.1959 23.9363 18.1959 23.7923 18.4119C23.6123 18.6639 23.5043 18.7359 23.5043 18.6279C23.5043 18.5919 23.6123 18.4839 23.7203 18.3759ZM22.2443 19.8879C22.1723 20.0679 22.0643 20.1759 22.0283 20.1759C21.9923 20.1759 22.0283 20.0679 22.1003 19.8879C22.2083 19.7439 22.2803 19.6359 22.3163 19.6359C22.3523 19.6359 22.3163 19.7439 22.2443 19.8879ZM23.0003 19.5999C22.7123 20.0679 22.4603 20.4639 22.4243 20.4639C22.3163 20.4639 23.1083 19.0959 23.3243 18.9159C23.4323 18.8439 23.2883 19.1319 23.0003 19.5999ZM29.1203 18.4839C29.1203 18.5559 29.0123 18.7359 28.9043 18.8799C28.6883 19.1319 28.6883 19.1319 28.8323 18.8079C29.0483 18.3759 29.1203 18.3039 29.1203 18.4839ZM28.7963 15.8199C28.9403 15.9999 28.5083 17.5119 28.0763 18.4119C27.4283 19.7079 26.3843 20.8239 25.3403 21.2919C24.5843 21.6519 23.5043 21.8319 23.5043 21.5799C23.5043 21.3639 24.6563 19.5999 25.4483 18.5559C26.5643 17.1879 28.5443 15.5679 28.7963 15.8199Z" fill="url(#paint1_linear)"/>
<path d="M40.8156 12.7599C40.5276 12.5799 40.0236 12.2559 39.6996 12.0399C38.5836 11.2479 37.1436 11.5719 35.7036 12.9039C34.5876 13.9479 33.9396 15.2439 33.7236 16.7919C33.5436 18.4119 34.0476 19.8519 35.6676 22.1919C36.6396 23.6319 36.8916 24.3519 36.7836 25.3959C36.6396 26.9079 35.4516 28.0599 33.8676 28.2759C33.1116 28.3839 33.0756 28.3839 32.5356 27.9159C32.2116 27.6639 31.8516 27.3039 31.7436 27.1239C31.6356 26.9079 31.4916 26.7639 31.4196 26.7999C31.3476 26.7999 31.2396 26.7279 31.1676 26.6199C31.0956 26.4759 30.9876 26.5479 30.7356 26.8719C30.5556 27.0879 30.3756 27.3759 30.3756 27.5199C30.3756 28.1679 32.4996 29.6799 34.0836 30.1839C34.4796 30.2919 35.1276 30.3279 35.9196 30.2919C37.8636 30.1839 39.1956 29.4279 39.9156 27.9519C40.2396 27.2679 40.2756 27.0879 40.2396 26.1879C40.1676 25.0719 39.9156 24.5679 38.5476 22.3719C38.0436 21.6159 37.5036 20.6439 37.3596 20.2119C36.7476 18.6279 37.2516 16.4319 38.5476 14.9919C39.0156 14.4879 39.6636 14.0199 39.9156 14.0199C39.9876 14.0199 39.9876 14.8119 39.9156 15.7479L39.8436 17.4759L40.2756 17.6559C40.5276 17.7639 40.6716 17.8719 40.5996 17.8719C40.5276 17.8719 40.5276 17.9439 40.6356 18.0159C41.0316 18.4119 41.7516 17.4759 42.1116 16.1079C42.2916 15.3879 42.3276 15.1359 42.1836 14.5959C41.9676 13.8039 41.5356 13.1919 40.8156 12.7599ZM38.6916 26.7639C38.7996 26.5119 38.8716 26.4039 38.8716 26.5119C38.8716 26.7279 38.4756 27.4839 38.4756 27.3039C38.4756 27.2679 38.5476 27.0159 38.6916 26.7639ZM38.2236 26.3679C38.4036 25.5039 38.4396 25.4319 38.4756 25.9719C38.4756 26.2599 38.3676 26.5839 38.2596 26.7279C38.1156 26.9799 38.0796 26.9439 38.2236 26.3679ZM38.0076 25.7919C38.0436 25.8999 38.0436 26.0439 38.0076 26.1519C37.9716 26.2239 37.9356 26.1519 37.9356 25.9719C37.9356 25.7919 37.9716 25.6839 38.0076 25.7919ZM35.1276 16.4679C35.0916 16.5039 35.0556 16.4319 35.0556 16.2879C35.0556 16.1079 35.0916 16.1079 35.1276 16.2159C35.1636 16.2879 35.1636 16.4319 35.1276 16.4679ZM35.4516 17.0439C35.4516 17.1879 35.4156 17.3319 35.3436 17.3679C35.1276 17.5119 35.4156 16.1439 35.7036 15.5679C35.8836 15.2439 36.0276 14.9919 36.0636 14.9919C36.0996 14.9919 35.9556 15.3879 35.7756 15.8919C35.5956 16.3959 35.4516 16.8999 35.4516 17.0439ZM36.6036 15.2439C36.4236 15.6759 36.1716 16.2159 36.0636 16.5039L35.8836 16.9719L35.9556 16.5039C36.0276 15.9639 36.3876 15.2079 36.7476 14.7759C36.8916 14.6319 36.8196 14.8479 36.6036 15.2439ZM40.8876 16.3239C40.8516 16.3599 40.8156 16.2879 40.8156 16.1439C40.8156 15.9999 40.8516 15.9639 40.8876 16.0719C40.9236 16.1439 40.9236 16.2879 40.8876 16.3239Z" fill="url(#paint2_linear)"/>
<path d="M43.8469 8.83591C44.6029 8.90791 45.2509 8.97991 45.2509 8.97991C45.2509 9.01591 44.9989 9.80791 44.6749 10.8159C42.5869 17.0079 41.6149 22.6959 42.1549 25.8279C42.4789 27.6999 43.3429 28.8159 45.2149 29.7879C46.2949 30.3639 46.9429 30.4359 47.0509 30.1119C47.0869 30.0039 46.8349 29.8239 46.4749 29.6439C45.6829 29.3199 45.3589 28.7079 45.1429 27.1239C44.7829 24.5319 45.5389 20.6439 48.1669 11.7519L48.9229 9.26791H51.1189C53.9629 9.23191 54.4669 9.15991 54.7909 8.54791C54.9349 8.29591 55.0069 8.04391 54.9709 8.00791C54.8989 7.86391 52.1269 7.46791 50.5069 7.35991L49.4629 7.28791L49.7149 6.27991C49.8589 5.73991 49.9669 5.01991 49.9669 4.62391C50.0029 4.01191 49.9669 3.90391 49.6069 3.65191C49.3909 3.50791 49.0669 3.21991 48.8869 3.03991C48.4909 2.67991 48.3469 2.60791 48.0589 2.82391C47.8429 3.00391 47.0149 4.65991 46.4389 6.02791C46.0789 6.99991 46.0429 7.03591 45.6469 6.96391C45.4309 6.92791 44.6749 6.85591 43.9909 6.81991C42.6949 6.71191 42.1549 6.85591 42.1549 7.25191C42.1549 7.35991 42.0109 7.57591 41.8669 7.71991C41.2549 8.33191 41.7589 8.58391 43.8469 8.83591ZM43.3069 21.5439C43.2709 21.5799 43.2349 21.5079 43.2349 21.3639C43.2709 21.1839 43.2709 21.1479 43.3429 21.2559C43.3789 21.3639 43.3789 21.4719 43.3069 21.5439ZM43.4509 23.3799C43.4149 23.4879 43.4149 23.4159 43.4149 23.1999C43.4149 23.0199 43.4149 22.9479 43.4509 23.0559C43.4869 23.1279 43.4869 23.3079 43.4509 23.3799ZM44.5669 15.3879C44.6029 15.1359 44.7109 14.7759 44.7829 14.6319C44.8549 14.4519 44.8549 14.5239 44.7829 14.8479C44.7469 15.0999 44.6749 15.4599 44.6029 15.6039C44.4949 15.7839 44.4949 15.7119 44.5669 15.3879ZM44.3509 16.1439C44.3509 15.9639 44.3869 15.9279 44.4229 16.0719C44.4589 16.1439 44.4589 16.2879 44.4229 16.3239C44.3869 16.3599 44.3509 16.2879 44.3509 16.1439ZM44.2069 16.6839C44.2069 16.5399 44.2429 16.5039 44.2789 16.6119C44.3149 16.6839 44.3149 16.8279 44.2789 16.8639C44.2429 16.8999 44.2069 16.8279 44.2069 16.6839ZM44.0629 17.2239C44.0629 17.0799 44.0989 17.0439 44.1709 17.1519C44.2069 17.2599 44.2069 17.3679 44.1349 17.4039C44.0989 17.4759 44.0629 17.3679 44.0629 17.2239ZM43.9189 17.7999C43.9549 17.6199 43.9909 17.5839 44.0269 17.6919C44.0629 17.7999 44.0629 17.9079 43.9909 17.9799C43.9549 18.0159 43.9189 17.9439 43.9189 17.7999ZM43.8109 18.4839C43.8109 18.3039 43.8469 18.2679 43.8829 18.3759C43.9189 18.4839 43.9189 18.5919 43.8829 18.6639C43.8109 18.6999 43.7749 18.6279 43.8109 18.4839ZM43.6669 19.1679C43.7389 18.8079 43.7389 18.7719 43.7389 19.0959C43.7749 19.2759 43.7029 19.5999 43.6669 19.7799C43.5589 20.0679 43.5229 20.0679 43.5589 19.8519C43.5589 19.7079 43.5949 19.3839 43.6669 19.1679ZM48.7789 3.90391C48.9229 3.75991 48.8509 4.01191 48.3109 5.52391C47.8069 6.99991 47.6269 7.35991 47.6269 7.07191C47.6269 6.92791 48.7069 3.97591 48.7789 3.90391ZM47.6269 6.06391C47.6989 5.95591 47.7709 5.91991 47.7709 5.99191C47.7709 6.06391 47.6989 6.20791 47.6269 6.35191C47.5549 6.45991 47.4829 6.49591 47.4829 6.42391C47.4829 6.31591 47.5549 6.17191 47.6269 6.06391ZM46.5829 10.5999C46.0789 12.1839 44.7829 16.6479 44.3869 18.2679C44.2789 18.8439 44.0269 20.1039 43.8469 21.0759C43.6669 22.0839 43.5229 22.6959 43.5229 22.4439C43.5229 21.9399 43.9549 19.3839 44.3149 17.8359C44.9629 15.1359 46.6909 9.44791 46.9429 9.15991C47.1229 8.97991 47.1229 9.05191 46.5829 10.5999ZM46.4029 9.48391C46.4749 9.37591 46.5109 9.33991 46.5109 9.41191C46.5109 9.48391 46.4749 9.66391 46.4029 9.77191C46.3309 9.87991 46.2589 9.91591 46.2589 9.84391C46.2589 9.77191 46.3309 9.59191 46.4029 9.48391ZM46.1869 10.2039C46.2229 10.2399 45.9349 11.1759 45.5749 12.3279C45.2149 13.4439 44.8909 14.3079 44.8909 14.1999C44.8909 13.9839 46.1149 10.1319 46.1869 10.2039Z" fill="url(#paint3_linear)"/>
<path d="M60.0834 26.4039C60.2274 26.5839 60.4434 27.0159 60.4794 27.3399C60.5874 27.9519 60.8754 28.3119 61.3794 28.4199C61.5594 28.4199 61.7754 28.5279 61.8474 28.5999C62.0274 28.7799 62.0274 28.7799 62.3514 28.5999C62.4954 28.5279 62.6394 28.2039 62.7474 27.6999C63.1434 25.7559 64.0794 23.2719 65.7354 19.8159C67.7874 15.4959 71.9994 8.51191 74.9514 4.51591C76.3914 2.60791 76.5354 2.31991 76.3554 1.88791C76.2474 1.67191 76.1034 1.56391 75.9594 1.63591C75.8514 1.67191 75.8154 1.63591 75.8514 1.56391C75.8874 1.49191 75.8874 1.45591 75.8154 1.45591C75.7074 1.45591 75.6354 1.31191 75.5634 1.16791C75.3474 0.483907 74.6634 0.771907 73.5114 2.03191C71.7834 3.90391 68.2194 9.01591 66.0594 12.7599C64.2594 15.8919 62.2074 20.2839 61.4874 22.5519C61.3434 23.0919 61.1274 23.4879 61.0554 23.4159C61.0194 23.3439 60.9474 22.1559 60.9474 20.7879C60.9474 17.0439 61.1634 15.3519 62.6754 8.04391C63.2514 5.19991 63.4674 3.72391 63.3594 3.11191C63.2874 2.85991 63.2154 2.67991 63.1794 2.75191C63.1434 2.78791 63.0354 2.67991 62.9274 2.53591C62.8194 2.35591 62.6394 2.28391 62.5314 2.31991C62.4234 2.35591 62.3514 2.31991 62.3514 2.24791C62.3514 2.17591 62.2434 2.13991 62.1354 2.13991C62.0634 2.13991 61.8834 1.95991 61.7754 1.77991C61.5594 1.38391 60.9834 1.31191 60.6594 1.67191C59.7954 2.64391 57.8154 9.26791 57.3834 12.5799C57.0234 15.6399 57.4554 21.1479 58.2114 23.1279C58.5714 24.0279 59.6874 25.9719 60.0834 26.4039ZM73.7994 3.50791C73.9434 3.36391 74.0874 3.21991 74.1234 3.21991C74.1594 3.21991 74.0514 3.36391 73.9434 3.50791C73.7994 3.65191 73.6554 3.75991 73.6194 3.75991C73.5834 3.75991 73.6554 3.65191 73.7994 3.50791ZM73.2594 4.26391L73.6194 3.83191L73.2954 4.33591C71.4954 6.89191 69.9114 9.19591 69.1914 10.3839C68.2914 11.8599 68.1114 12.1479 68.1114 11.9679C68.1114 11.6439 72.4314 5.19991 73.2594 4.26391ZM67.4634 12.9759C67.6074 12.7239 67.7154 12.5439 67.7514 12.5439C67.7874 12.5439 67.7514 12.7239 67.6074 12.9759C67.4994 13.1919 67.3554 13.3719 67.3194 13.3719C67.2834 13.3719 67.3554 13.1919 67.4634 12.9759ZM66.9234 13.9839C67.0314 13.8399 66.8874 14.1999 66.5634 14.8119C65.6274 16.6119 65.0874 17.5839 65.0874 17.4399C65.0874 17.2959 66.6714 14.3439 66.9234 13.9839ZM65.0154 17.6199C65.0514 17.6199 64.9794 17.8359 64.8714 18.0879C64.6194 18.5919 64.5474 18.6999 64.5474 18.5559C64.5474 18.3759 64.9434 17.6199 65.0154 17.6199ZM63.8274 19.9599C63.9354 19.8519 63.9714 19.8159 63.9714 19.8879C63.9714 19.9599 63.9354 20.1399 63.8274 20.2479C63.7554 20.3559 63.7194 20.3919 63.7194 20.3199C63.7194 20.2479 63.7554 20.0679 63.8274 19.9599ZM66.8154 14.8839C68.9754 10.9599 73.5474 4.08391 74.9874 2.60791C75.3114 2.31991 74.8794 2.93191 74.1954 3.75991C70.8474 7.97191 65.5914 16.8639 63.6474 21.6879C63.1434 22.9119 63.0354 23.1279 63.0354 22.9119C63.0354 22.4799 65.2314 17.7999 66.8154 14.8839ZM62.8914 23.2719C62.9634 23.1279 62.9994 23.1279 62.9994 23.1999C62.9994 23.2719 62.9634 23.4159 62.8914 23.5239C62.8194 23.6319 62.7474 23.6679 62.7474 23.5959C62.7474 23.5239 62.8194 23.3799 62.8914 23.2719ZM62.1354 25.6119C62.2434 25.0719 62.7114 23.6679 62.7474 23.8839C62.7474 23.9559 62.6034 24.4599 62.3874 25.0359C62.2074 25.6119 62.0994 25.8639 62.1354 25.6119ZM62.0274 26.2239C62.0634 26.3319 62.0634 26.4759 62.0274 26.5839C61.9914 26.6919 61.9554 26.5839 61.9554 26.4039C61.9554 26.2239 61.9914 26.1519 62.0274 26.2239ZM61.8834 26.9799C61.9194 27.1239 61.9194 27.3399 61.8834 27.4839C61.8474 27.5919 61.8114 27.4839 61.8114 27.2319C61.8114 26.9799 61.8474 26.8719 61.8834 26.9799ZM61.6674 26.0439C61.6674 25.8999 61.7034 25.8639 61.7394 25.9719C61.7754 26.0799 61.7754 26.1879 61.7394 26.2239C61.7034 26.2959 61.6674 26.1879 61.6674 26.0439ZM61.4874 27.2319C61.5594 27.2319 61.5954 27.3759 61.5594 27.5919C61.5234 27.7719 61.4514 27.9159 61.4154 27.9159C61.4154 27.9159 61.3794 27.7719 61.3794 27.5919C61.3794 27.3759 61.4154 27.2319 61.4874 27.2319ZM59.7954 13.8759C59.7594 13.9479 59.7234 13.8399 59.7234 13.6959C59.7594 13.5519 59.7954 13.5159 59.8314 13.6239C59.8674 13.7319 59.8674 13.8399 59.7954 13.8759ZM59.9394 13.0119C59.9034 13.0839 59.9034 13.0119 59.9034 12.8319C59.9034 12.6519 59.9034 12.5799 59.9394 12.6519C60.0114 12.7599 60.0114 12.9039 59.9394 13.0119ZM60.0834 12.2559C60.0474 12.2919 60.0114 12.2199 60.0114 12.0759C60.0114 11.8959 60.0474 11.8599 60.0834 11.9679C60.1194 12.0759 60.1194 12.1839 60.0834 12.2559ZM60.2274 11.5719C60.1914 11.6079 60.1554 11.5359 60.1554 11.3919C60.1554 11.2119 60.1914 11.1759 60.2274 11.2839C60.2634 11.3919 60.2634 11.4999 60.2274 11.5719ZM60.3714 10.8879C60.2994 10.9239 60.2994 10.8519 60.2994 10.7079C60.2994 10.5279 60.3354 10.4919 60.3714 10.5999C60.4074 10.7079 60.4074 10.8159 60.3714 10.8879ZM60.6234 16.1439C60.5874 16.2519 60.5874 16.1439 60.5874 15.9279C60.5874 15.6759 60.6234 15.6039 60.6594 15.7479C60.6954 15.8919 60.6954 16.0719 60.6234 16.1439ZM60.7674 15.0639C60.7314 15.1719 60.6954 15.0279 60.7314 14.8119C60.7314 14.5959 60.7674 14.5239 60.7674 14.6319C60.8034 14.7759 60.8034 14.9559 60.7674 15.0639ZM60.9114 14.2359C60.8754 14.3439 60.8394 14.2359 60.8394 13.9839C60.8394 13.7679 60.8754 13.6959 60.9114 13.8399C60.9474 13.9479 60.9474 14.1279 60.9114 14.2359ZM60.9114 8.54791C60.8754 8.58391 60.8394 8.51191 60.8394 8.36791C60.8394 8.18791 60.8754 8.15191 60.9114 8.25991C60.9474 8.36791 60.9474 8.47591 60.9114 8.54791ZM60.4794 7.97191C59.7234 11.1399 59.3274 13.2279 59.1834 15.0999C59.1114 16.0719 59.0034 17.4759 59.0034 18.1959C58.9674 18.8799 58.9674 18.2319 58.9674 16.6839C59.0034 14.5239 59.0754 13.5159 59.2914 12.3639C59.6514 10.4559 60.7674 5.88391 60.9834 5.55991C61.1274 5.30791 61.1274 5.45191 60.4794 7.97191ZM60.9834 7.79191C60.9834 7.64791 61.0194 7.61191 61.0554 7.71991C61.0914 7.82791 61.0914 7.93591 61.0554 7.97191C60.9834 8.04391 60.9834 7.93591 60.9834 7.79191ZM61.0914 13.1559C61.0194 13.5519 60.9834 13.5519 60.9834 13.2279C60.9834 13.0479 61.0554 12.7239 61.0914 12.4719C61.1994 12.1119 61.1994 12.1119 61.1994 12.3999C61.1994 12.6159 61.1634 12.9399 61.0914 13.1559ZM61.3434 11.8959C61.3074 12.0039 61.2714 11.9319 61.2714 11.7159C61.2714 11.5359 61.3074 11.4639 61.3434 11.5719C61.3794 11.6439 61.3794 11.8239 61.3434 11.8959ZM61.4514 11.2839C61.4154 11.3199 61.3794 11.2479 61.3794 11.1039C61.3794 10.9239 61.4154 10.9239 61.4514 11.0319C61.5234 11.1039 61.4874 11.2479 61.4514 11.2839ZM62.0274 8.40391C62.0634 8.51191 62.0634 8.65591 62.0274 8.76391C61.9914 8.83591 61.9554 8.76391 61.9554 8.58391C61.9554 8.40391 61.9914 8.29591 62.0274 8.40391ZM61.9194 9.12391C61.9194 9.23191 61.8114 9.66391 61.7394 10.0959C61.6314 10.4919 61.5234 10.7079 61.5234 10.5639C61.5234 10.4199 61.5954 9.98791 61.7034 9.59191C61.8114 9.23191 61.9194 9.01591 61.9194 9.12391ZM61.7754 2.71591C61.8834 2.49991 61.9194 2.53591 61.8474 2.89591C61.7034 3.54391 61.1274 5.23591 61.1274 5.05591C61.0914 4.80391 61.5954 3.00391 61.7754 2.71591ZM58.5714 15.3159C58.6074 14.3439 58.7154 13.0119 58.8594 12.3639C59.3634 9.44791 61.0194 3.21991 61.3074 3.21991C61.3434 3.21991 61.2354 3.54391 61.0914 3.93991C60.5874 5.41591 59.3994 10.2039 58.9674 12.5439C58.8594 13.2639 58.6794 14.5599 58.6074 15.4239L58.4994 17.0079L58.5714 15.3159Z" fill="url(#paint4_linear)"/>
<path d="M81.8103 13.0119C81.6663 13.0119 81.4503 12.8319 81.2703 12.6159C80.7663 11.9319 79.9383 12.1839 79.2903 13.2279C79.0743 13.5519 78.8223 13.8399 78.7503 13.8399C78.5703 13.8399 78.1023 13.5159 77.6343 13.0479C76.5903 12.0039 74.8263 12.1839 73.0623 13.5159C71.8023 14.4519 69.7863 17.4759 69.0663 19.5639C68.2023 22.0839 67.9863 24.7839 68.5263 26.2239C68.8503 27.0519 69.6423 27.9519 70.1823 28.0599C70.3623 28.1319 70.6863 28.2759 70.8663 28.4199C71.2983 28.7439 72.1263 28.7439 72.7743 28.3839C73.4583 28.0599 74.6823 26.6199 75.6903 24.9639L76.4463 23.7399L76.5183 25.4679C76.5903 26.4399 76.6983 27.4479 76.7703 27.7719C77.0223 28.4559 78.0303 29.5359 78.6783 29.8239C78.9663 29.9319 79.2543 30.0759 79.2903 30.1839C79.3983 30.3279 79.7583 30.3639 79.8303 30.2199C79.8663 30.1479 79.7943 29.5719 79.6863 28.9239C79.5423 28.2399 79.4703 27.0519 79.4703 25.9359C79.4703 23.2719 79.8663 21.6159 82.0263 15.5679C82.3143 14.8119 82.5303 14.0559 82.5303 13.9119C82.5303 13.5519 82.0983 13.0119 81.8103 13.0119ZM69.4623 24.2439C69.4263 24.3879 69.3903 24.2799 69.3903 23.9919C69.3903 23.7399 69.4263 23.6319 69.4623 23.7759C69.4983 23.8839 69.4983 24.0999 69.4623 24.2439ZM69.5343 23.0919C69.5343 22.9479 69.5703 22.6959 69.6423 22.5519C69.7143 22.3719 69.7503 22.3719 69.7503 22.4799C69.7503 22.5879 69.6783 22.8399 69.6423 23.0559C69.5343 23.3079 69.5343 23.3439 69.5343 23.0919ZM69.8583 24.4599C69.7143 25.2519 69.6423 25.5039 69.6423 25.1799C69.6063 23.7759 70.3983 20.7879 71.2623 19.0599C71.9103 17.8359 71.9103 18.0519 71.2983 19.3839C71.0103 19.9959 70.5783 21.1119 70.3983 21.8679C70.1823 22.5879 69.9663 23.7759 69.8583 24.4599ZM70.5423 23.5239C70.1463 25.0719 70.0743 24.9639 70.3983 23.3439C70.6863 22.0119 71.1903 20.4999 71.8023 19.2759C72.3063 18.2679 73.3863 16.5039 73.6383 16.3599C73.7103 16.3239 73.4223 16.7919 73.0263 17.4399C72.0903 18.8799 71.8383 19.3839 71.2983 20.8959C71.0463 21.5799 70.6863 22.7679 70.5423 23.5239ZM77.3823 18.3759C77.0583 19.5639 74.3943 23.8839 72.8823 25.6839C72.4503 26.1519 71.9823 26.6559 71.7663 26.7999L71.4063 27.0159V26.4759C71.4063 25.1799 72.6663 21.3639 73.7103 19.5279C74.9343 17.2959 76.9143 15.2079 77.8503 15.2079C78.2823 15.2079 78.2823 15.5319 77.9223 16.6119C77.7423 17.1519 77.5263 17.9799 77.3823 18.3759ZM77.8143 21.7599C77.8503 21.8679 77.8503 22.0119 77.8143 22.1199C77.7783 22.1919 77.7423 22.1199 77.7423 21.9399C77.7423 21.7599 77.7783 21.6879 77.8143 21.7599ZM77.8143 25.6119C77.8143 25.8279 77.7783 25.6479 77.7783 25.2159C77.7783 24.8199 77.8143 24.6399 77.8143 24.8559C77.8503 25.0719 77.8503 25.3959 77.8143 25.6119ZM78.3543 21.4719C78.2463 22.0839 78.0663 22.9839 77.9943 23.5239L77.8863 24.4959L77.9583 23.3079C78.0303 22.1559 78.3903 20.2119 78.4983 20.3559C78.5343 20.3919 78.4623 20.8959 78.3543 21.4719ZM78.6423 22.1919C78.6063 22.2279 78.5703 22.1559 78.5703 22.0119C78.5703 21.8319 78.6063 21.7959 78.6423 21.9039C78.6783 22.0119 78.6783 22.1199 78.6423 22.1919ZM78.8943 20.9319C78.8583 21.0039 78.8223 20.8959 78.8223 20.7519C78.8583 20.6079 78.8943 20.5719 78.9303 20.6799C78.9663 20.7879 78.9663 20.8959 78.8943 20.9319ZM79.0383 20.3199C79.0023 20.4279 79.0023 20.3559 79.0023 20.1399C79.0023 19.9599 79.0023 19.8879 79.0383 19.9959C79.1103 20.0679 79.1103 20.2479 79.0383 20.3199ZM79.1103 19.5999C79.1103 19.4919 79.1823 19.3119 79.2543 19.2039C79.3263 19.0959 79.3623 19.0599 79.3623 19.1319C79.3623 19.3839 79.1103 19.8159 79.1103 19.5999ZM80.8023 13.9119C80.6943 14.1279 80.6223 14.1999 80.6223 13.9839C80.6223 13.9119 80.6583 13.8399 80.7303 13.7679C80.8383 13.7319 80.8383 13.7679 80.8023 13.9119ZM81.3783 13.8399C81.1263 14.3079 80.9823 14.4159 81.1263 14.0199C81.2343 13.6959 81.5583 13.1919 81.5583 13.3359C81.5583 13.4079 81.4863 13.6239 81.3783 13.8399Z" fill="url(#paint5_linear)"/>
<path d="M90.8755 1.31191C90.6955 1.16791 90.3715 0.879906 90.1555 0.663907C89.8315 0.339907 89.7235 0.303908 89.4355 0.411906C89.2555 0.483907 89.0035 0.663907 88.8955 0.807907C88.4275 1.31191 87.6355 2.75191 87.0955 4.01191C85.9075 6.74791 83.8195 13.5159 83.0995 16.8279C82.4515 19.8159 82.3795 20.3199 82.3795 23.2719C82.3795 25.8999 82.4155 26.2599 82.7035 27.1239C83.2435 28.9239 83.9635 29.6439 85.5475 30.1839C86.5555 30.5079 87.0955 30.1479 86.3755 29.6079C86.1955 29.4279 85.8715 28.9239 85.7275 28.4919C85.4395 27.7359 85.4035 27.4479 85.4035 25.1439C85.4395 22.9119 85.4755 22.3719 85.7995 20.8239C86.4115 17.9439 87.4195 14.4159 89.3275 8.58391C90.2995 5.55991 91.1275 2.78791 91.1995 2.35591C91.2355 1.67191 91.2355 1.56391 90.8755 1.31191ZM88.6795 3.32791C88.7875 3.11191 88.8955 3.03991 88.8955 3.11191C88.8955 3.18391 88.7875 3.39991 88.6795 3.57991C88.5715 3.75991 88.4995 3.86791 88.4995 3.79591C88.4995 3.72391 88.5715 3.50791 88.6795 3.32791ZM88.3555 4.11991C88.4275 4.01191 88.4995 3.97591 88.4995 4.08391C88.4995 4.15591 88.4275 4.29991 88.3555 4.40791C88.2835 4.51591 88.2115 4.55191 88.2115 4.47991C88.2115 4.40791 88.2835 4.26391 88.3555 4.11991ZM88.0675 4.80391C88.1395 4.69591 88.2115 4.65991 88.2115 4.76791C88.2115 4.83991 88.1395 4.98391 88.0675 5.09191C87.9955 5.19991 87.9595 5.23591 87.9595 5.16391C87.9595 5.09191 87.9955 4.94791 88.0675 4.80391ZM87.8155 5.52391C87.8875 5.37991 87.9235 5.37991 87.9235 5.45191C87.9235 5.52391 87.8875 5.66791 87.8155 5.77591C87.7435 5.88391 87.6715 5.91991 87.6715 5.84791C87.6715 5.77591 87.7435 5.63191 87.8155 5.52391ZM87.3475 6.74791C87.3835 6.56791 87.4915 6.31591 87.5635 6.20791C87.6355 6.06391 87.6355 6.09991 87.5995 6.31591C87.5275 6.53191 87.4555 6.78391 87.3835 6.89191C87.2755 7.03591 87.2755 6.96391 87.3475 6.74791ZM86.9875 7.75591C87.1315 7.39591 87.2395 7.17991 87.2395 7.28791C87.2395 7.39591 87.1315 7.79191 86.9875 8.18791C86.8435 8.54791 86.7355 8.76391 86.7355 8.65591C86.7355 8.54791 86.8435 8.15191 86.9875 7.75591ZM86.5555 9.08791C86.6275 8.94391 86.6995 8.94391 86.6995 9.01591C86.6635 9.26791 86.4475 9.69991 86.4475 9.48391C86.4475 9.37591 86.4835 9.19591 86.5555 9.08791ZM83.3875 24.6759C83.3515 24.8919 83.3155 24.7119 83.3155 24.3159C83.3155 23.8839 83.3515 23.7039 83.3875 23.9199C83.4235 24.1359 83.4235 24.4599 83.3875 24.6759ZM83.4955 21.7959C83.4595 21.9399 83.4595 21.8319 83.4595 21.5799C83.4595 21.2919 83.4595 21.1839 83.4955 21.3279C83.5315 21.4359 83.5315 21.6519 83.4955 21.7959ZM83.6395 20.4279C83.6755 20.5359 83.6755 20.6799 83.6395 20.7879C83.6035 20.8599 83.5675 20.7879 83.5675 20.6079C83.5675 20.4279 83.6035 20.3199 83.6395 20.4279ZM84.2875 22.2999C84.2155 22.9839 84.1795 23.5599 84.1435 23.5959C84.0715 23.7039 84.1075 22.1559 84.2155 21.6159C84.3235 21.2559 84.3235 21.4719 84.2875 22.2999ZM87.5275 9.48391C87.0595 10.8879 86.3755 13.2279 85.9435 14.7039C85.5115 16.1799 84.9715 18.1959 84.7555 19.2399C84.5395 20.2479 84.3955 20.7519 84.4315 20.3199C84.5395 19.4559 85.2955 16.2159 85.8355 14.4519C86.5555 12.0039 88.2475 6.85591 88.2835 6.89191C88.3195 6.92791 87.9595 8.11591 87.5275 9.48391ZM88.9675 5.30791C88.6075 6.24391 88.3555 6.74791 88.5715 6.06391C88.7875 5.34391 89.2195 4.26391 89.2555 4.29991C89.2915 4.33591 89.1475 4.76791 88.9675 5.30791ZM89.7235 3.32791C89.6515 3.43591 89.5795 3.47191 89.5795 3.36391C89.5795 3.29191 89.6515 3.14791 89.7235 3.03991C89.7955 2.93191 89.8675 2.89591 89.8675 2.96791C89.8675 3.03991 89.7955 3.18391 89.7235 3.32791ZM89.5435 2.71591C88.6795 4.69591 87.6355 7.46791 86.8075 10.1679C84.3955 17.7639 83.7835 20.7159 83.8195 24.4599C83.8195 25.5759 83.7835 26.5119 83.7475 26.5119C83.7115 26.5119 83.6755 26.2239 83.6755 25.8639C83.6755 25.5039 83.6395 25.0719 83.6035 24.9279C83.4955 24.3519 83.8555 20.7519 84.1795 19.0239C84.5395 17.2959 85.2235 14.5959 85.9435 12.2919C86.7715 9.59191 87.6715 6.81991 88.1755 5.48791C88.7875 3.90391 90.0115 1.20391 90.0835 1.31191C90.1195 1.31191 89.8675 1.95991 89.5435 2.71591Z" fill="url(#paint6_linear)"/>
<path d="M90.1603 29.1039C90.4483 29.2479 90.8803 29.4639 91.0963 29.5719C92.0323 30.0759 92.9323 29.2119 94.5523 26.2599L95.5243 24.5679L95.5963 25.6839C95.7403 27.8439 96.2803 28.9599 97.6483 29.8599C97.9723 30.1119 98.2963 30.2919 98.3683 30.2919C98.5843 30.3279 98.5843 30.0039 98.3683 28.9239C98.2243 28.0599 98.1883 27.3399 98.2243 26.0079C98.3683 23.3799 98.8363 21.3639 100.528 16.2879C100.996 14.9559 101.356 13.6959 101.32 13.4799C101.284 13.1919 101.14 13.0479 100.816 12.9039C100.6 12.7959 100.348 12.5799 100.312 12.4719C100.276 12.2919 100.096 12.2199 99.9163 12.2199C99.2323 12.2199 98.3323 13.7319 97.2883 16.6119C97.0003 17.4039 96.6403 18.3039 96.4603 18.5919C96.2803 18.8799 95.9923 19.5279 95.7763 20.0319C94.8403 22.2999 93.1123 25.6479 92.2843 26.7279C91.8163 27.3399 91.3843 27.8439 91.3123 27.8439C91.1323 27.8439 91.0243 26.3679 91.0963 25.0359C91.3123 22.5159 92.0323 19.5279 93.3283 15.7479L94.0123 13.8399L93.6163 13.5159C93.4003 13.2999 93.1843 13.1919 93.1123 13.2279C93.0403 13.2999 92.9683 13.2639 92.9683 13.1559C92.9683 13.0839 92.9323 13.0479 92.8603 13.0839C92.7883 13.1199 92.6803 13.0119 92.5723 12.8319C92.3563 12.3279 91.8523 12.3639 91.3843 12.9039C91.2043 13.1559 90.7363 13.9479 90.3763 14.6679C89.1883 17.0439 88.2163 20.1759 87.8923 22.8399C87.5323 25.7199 88.4683 28.3119 90.1603 29.1039ZM99.4123 16.0359C99.3403 16.1799 99.3043 16.1799 99.3043 16.1079C99.3043 16.0359 99.3403 15.8919 99.4123 15.7839C99.4843 15.6759 99.5563 15.6399 99.5563 15.7119C99.5563 15.7839 99.4843 15.9279 99.4123 16.0359ZM99.7003 15.3519C99.6283 15.4599 99.5563 15.4959 99.5563 15.4239C99.5563 15.3519 99.6283 15.2079 99.7003 15.0999C99.7723 14.9919 99.8443 14.9559 99.8443 15.0279C99.8443 15.0999 99.7723 15.2439 99.7003 15.3519ZM99.9883 14.6679C99.9163 14.7759 99.8443 14.8119 99.8443 14.7399C99.8443 14.6679 99.9163 14.5239 99.9883 14.4159C100.06 14.2719 100.096 14.2719 100.096 14.3439C100.096 14.4159 100.06 14.5599 99.9883 14.6679ZM100.24 13.7319C100.312 13.5879 100.384 13.5879 100.384 13.6599C100.384 13.7319 100.312 13.8759 100.24 13.9839C100.168 14.0919 100.096 14.1279 100.096 14.0559C100.096 13.9839 100.168 13.8399 100.24 13.7319ZM98.8003 16.1799C98.9803 15.6399 99.9883 13.3719 100.132 13.2279C100.204 13.1559 99.9163 13.8399 99.5563 14.7399C98.8723 16.3239 98.5843 16.8999 98.8003 16.1799ZM97.1803 21.6879C97.2163 21.3279 97.3243 20.9319 97.3963 20.7879C97.4683 20.6079 97.4683 20.7159 97.3963 21.0399C97.2883 21.9039 97.0723 22.4079 97.1803 21.6879ZM97.0363 22.5519C97.0723 22.6599 97.0723 22.8399 97.0363 22.9479C97.0003 23.0559 96.9643 22.9479 96.9643 22.6959C96.9643 22.4799 97.0003 22.4079 97.0363 22.5519ZM90.1963 21.8319C90.1603 21.9399 90.1243 21.8679 90.1243 21.6879C90.1243 21.4719 90.1603 21.3999 90.1963 21.5079C90.2323 21.5799 90.2323 21.7599 90.1963 21.8319ZM90.3043 21.2199C90.2683 21.2559 90.2323 21.1839 90.2323 21.0399C90.2323 20.8959 90.2683 20.8599 90.3403 20.9679C90.3763 21.0759 90.3403 21.1839 90.3043 21.2199ZM90.4483 20.6079C90.4123 20.7159 90.3763 20.6439 90.3763 20.4279C90.3763 20.2479 90.4123 20.1759 90.4483 20.2839C90.4843 20.3559 90.4843 20.4999 90.4483 20.6079ZM90.9523 18.7359C90.8083 19.3839 90.6283 19.7799 90.7363 19.2039C90.7723 18.9519 90.8803 18.6279 90.9163 18.5199C91.0243 18.3759 91.0243 18.4479 90.9523 18.7359ZM92.4283 14.5959C92.5363 14.5239 92.5003 14.7039 92.3563 15.0279C92.2123 15.3159 91.8883 16.1799 91.5643 16.9359C91.2763 17.6919 91.0603 18.1239 91.1323 17.9079C91.2403 17.3319 92.2843 14.7759 92.4283 14.5959ZM90.4123 18.4479C90.8803 17.0079 92.0323 14.2359 92.1043 14.3079C92.1403 14.3439 91.9243 14.9559 91.6363 15.6399C90.9523 17.2239 90.1963 19.7079 89.8363 21.5079C89.6563 22.2639 89.4763 23.3079 89.4043 23.8119L89.2963 24.7479L89.3323 23.7039C89.4403 22.2999 89.8723 20.1759 90.4123 18.4479ZM90.0883 18.3759C90.1603 18.2679 90.2323 18.2319 90.2323 18.3039C90.2323 18.3759 90.1603 18.5559 90.0883 18.6639C90.0163 18.7719 89.9443 18.8079 89.9443 18.7359C89.9443 18.6639 90.0163 18.4839 90.0883 18.3759ZM89.6923 19.6719C89.6923 19.5279 89.7283 19.4919 89.7643 19.5999C89.8003 19.6719 89.8003 19.8159 89.7643 19.8519C89.7283 19.8879 89.6923 19.8159 89.6923 19.6719ZM89.5483 20.2119C89.5483 20.0679 89.5843 20.0319 89.6203 20.1399C89.6923 20.2479 89.6563 20.3559 89.6203 20.3919C89.5843 20.4639 89.5483 20.3559 89.5483 20.2119ZM89.4043 20.7879C89.4403 20.6079 89.4403 20.5719 89.5123 20.6799C89.5483 20.7879 89.5483 20.8959 89.4763 20.9679C89.4403 21.0039 89.4043 20.9319 89.4043 20.7879ZM89.2603 21.4719C89.3683 21.1119 89.3683 21.0759 89.3683 21.3999C89.3683 21.5799 89.3323 21.9039 89.2603 22.0839C89.1883 22.3719 89.1523 22.3719 89.1523 22.1559C89.1523 22.0119 89.2243 21.6879 89.2603 21.4719ZM89.0803 22.8039C89.1163 22.9479 89.1163 23.1279 89.0803 23.2359C89.0443 23.3079 89.0083 23.1999 89.0083 22.9839C89.0083 22.7679 89.0443 22.6599 89.0803 22.8039Z" fill="url(#paint7_linear)"/>
<path d="M107.988 13.8759C106.296 14.3799 104.82 15.5319 103.344 17.3679C100.788 20.5359 99.8159 24.7839 101.004 27.2679C101.436 28.1319 102.336 28.9599 103.632 29.7159C104.712 30.3279 104.82 30.3279 105.72 30.2919C106.332 30.2559 106.908 30.1479 107.232 29.9679C109.248 28.9959 112.596 24.0999 111.516 23.7039C111.372 23.6319 111.084 23.9199 110.688 24.5319C110.328 25.0359 109.608 25.8999 109.068 26.4759C107.808 27.7359 106.224 28.5639 104.964 28.6719L104.136 28.7079L103.848 28.0599C103.596 27.4839 103.56 27.2319 103.632 25.9359C103.704 24.6039 104.208 22.5519 104.424 22.6959C106.116 23.6319 107.628 23.3799 109.32 21.9039C111.264 20.1759 112.56 16.5759 111.66 15.2799C111.48 15.0279 111.3 14.8119 111.264 14.8119C111.228 14.8119 110.904 14.5959 110.544 14.2719C109.68 13.5879 109.14 13.5159 107.988 13.8759ZM101.76 23.7039C101.724 23.7399 101.688 23.6679 101.688 23.5239C101.688 23.3799 101.724 23.3439 101.76 23.4519C101.832 23.5599 101.796 23.6679 101.76 23.7039ZM101.832 22.9119C101.832 22.8039 101.904 22.5879 101.976 22.4439C102.048 22.2639 102.084 22.2279 102.084 22.3719C102.084 22.4799 102.012 22.6959 101.976 22.8399C101.868 23.0199 101.832 23.0559 101.832 22.9119ZM101.904 24.4959C102.012 23.6679 102.3 22.4439 102.588 21.7599C102.912 20.9319 102.912 21.2559 102.552 22.3719C102.372 22.9479 102.156 23.8119 102.048 24.2799C101.868 25.1079 101.832 25.1439 101.904 24.4959ZM102.588 23.8479C102.552 23.8839 102.516 23.8119 102.516 23.6679C102.516 23.4879 102.552 23.4879 102.588 23.5959C102.624 23.6679 102.624 23.8119 102.588 23.8479ZM103.164 21.8319C103.164 21.9399 103.056 22.3359 102.912 22.7319C102.696 23.2359 102.66 23.3079 102.732 22.9479C102.84 22.4079 103.2 21.5079 103.164 21.8319ZM105.072 18.3759C105.288 18.1959 105.288 18.1959 105.144 18.4119C104.964 18.6639 104.856 18.7359 104.856 18.6279C104.856 18.5919 104.964 18.4839 105.072 18.3759ZM103.596 19.8879C103.524 20.0679 103.416 20.1759 103.38 20.1759C103.344 20.1759 103.38 20.0679 103.452 19.8879C103.56 19.7439 103.632 19.6359 103.668 19.6359C103.704 19.6359 103.668 19.7439 103.596 19.8879ZM104.352 19.5999C104.064 20.0679 103.812 20.4639 103.776 20.4639C103.668 20.4639 104.46 19.0959 104.676 18.9159C104.784 18.8439 104.64 19.1319 104.352 19.5999ZM110.472 18.4839C110.472 18.5559 110.364 18.7359 110.256 18.8799C110.04 19.1319 110.04 19.1319 110.184 18.8079C110.4 18.3759 110.472 18.3039 110.472 18.4839ZM110.148 15.8199C110.292 15.9999 109.86 17.5119 109.428 18.4119C108.78 19.7079 107.736 20.8239 106.692 21.2919C105.936 21.6519 104.856 21.8319 104.856 21.5799C104.856 21.3639 106.008 19.5999 106.8 18.5559C107.916 17.1879 109.896 15.5679 110.148 15.8199Z" fill="url(#paint8_linear)"/>
<defs>
<linearGradient id="paint0_linear" x1="114.252" y1="44.396" x2="-1.01749" y2="-5.15065" gradientUnits="userSpaceOnUse">
<stop stop-color="#212530"/>
<stop offset="1" stop-color="#50555C"/>
</linearGradient>
<linearGradient id="paint1_linear" x1="114.252" y1="44.396" x2="-1.01749" y2="-5.15065" gradientUnits="userSpaceOnUse">
<stop stop-color="#212530"/>
<stop offset="1" stop-color="#50555C"/>
</linearGradient>
<linearGradient id="paint2_linear" x1="114.252" y1="44.396" x2="-1.01749" y2="-5.15065" gradientUnits="userSpaceOnUse">
<stop stop-color="#212530"/>
<stop offset="1" stop-color="#50555C"/>
</linearGradient>
<linearGradient id="paint3_linear" x1="114.252" y1="44.396" x2="-1.01749" y2="-5.15065" gradientUnits="userSpaceOnUse">
<stop stop-color="#212530"/>
<stop offset="1" stop-color="#50555C"/>
</linearGradient>
<linearGradient id="paint4_linear" x1="114.252" y1="44.396" x2="-1.01749" y2="-5.15065" gradientUnits="userSpaceOnUse">
<stop stop-color="#212530"/>
<stop offset="1" stop-color="#50555C"/>
</linearGradient>
<linearGradient id="paint5_linear" x1="114.252" y1="44.396" x2="-1.01749" y2="-5.15065" gradientUnits="userSpaceOnUse">
<stop stop-color="#212530"/>
<stop offset="1" stop-color="#50555C"/>
</linearGradient>
<linearGradient id="paint6_linear" x1="114.252" y1="44.396" x2="-1.01749" y2="-5.15065" gradientUnits="userSpaceOnUse">
<stop stop-color="#212530"/>
<stop offset="1" stop-color="#50555C"/>
</linearGradient>
<linearGradient id="paint7_linear" x1="114.252" y1="44.396" x2="-1.01749" y2="-5.15065" gradientUnits="userSpaceOnUse">
<stop stop-color="#212530"/>
<stop offset="1" stop-color="#50555C"/>
</linearGradient>
<linearGradient id="paint8_linear" x1="114.252" y1="44.396" x2="-1.01749" y2="-5.15065" gradientUnits="userSpaceOnUse">
<stop stop-color="#212530"/>
<stop offset="1" stop-color="#50555C"/>
</linearGradient>
</defs>
</svg>
