<svg width="67" height="40" viewBox="0 0 67 40" fill="none" xmlns="http://www.w3.org/2000/svg">
<path d="M18.5628 27.3262C18.6708 27.2542 18.7428 26.8222 18.7428 26.4262C18.7428 25.8142 18.7068 25.6342 18.4548 25.4902C18.2748 25.3822 17.2308 25.3462 15.2508 25.3822C12.2268 25.4902 10.4268 25.7062 6.75481 26.4982C5.78281 26.7142 4.95481 26.8582 4.91881 26.8222C4.88281 26.8222 4.99081 26.2102 5.09881 25.4902C5.92681 20.2702 8.12281 13.8262 11.9388 5.51017C13.4148 2.34217 13.6668 1.55017 13.3428 1.55017C13.2708 1.55017 13.2348 1.47817 13.2708 1.37017C13.3428 1.29817 13.2348 1.19017 13.0908 1.11817C12.9108 1.08217 12.8028 0.974167 12.8028 0.902165C12.8028 0.830166 12.6948 0.758164 12.6228 0.758164C12.5148 0.758164 12.3348 0.614167 12.2628 0.398166C11.9748 -0.285834 11.1468 -0.0698351 10.3188 0.902165C9.23881 2.19817 6.82681 7.09417 5.56681 10.5502C4.12681 14.5822 3.37081 17.3182 2.86681 20.6662C2.25481 24.4822 2.25481 25.5262 2.86681 27.2182C2.90281 27.3622 2.61481 27.5422 1.96681 27.8302C0.562807 28.4422 0.382807 28.6582 0.346807 29.6302C0.310807 30.0622 0.238807 30.4582 0.130807 30.4942C-0.0491928 30.5662 -0.0491927 31.0342 0.166807 31.2502C0.418807 31.5382 0.742807 31.4662 2.97481 30.8182C10.0308 28.6942 14.1708 27.7222 16.7628 27.5422C17.6628 27.5062 18.4908 27.3982 18.5628 27.3262ZM5.42281 18.2902C5.38681 18.5782 5.17081 19.0822 5.13481 18.8302C5.13481 18.7222 5.20681 18.5062 5.27881 18.3622C5.35081 18.2542 5.42281 18.2182 5.42281 18.2902ZM5.49481 18.0382C5.45881 18.0742 5.42281 18.0022 5.42281 17.8222C5.42281 17.6422 5.45881 17.6062 5.53081 17.7502C5.56681 17.8582 5.56681 17.9662 5.49481 18.0382ZM5.81881 16.8502C5.67481 17.1382 5.67481 16.8862 5.81881 16.4902C5.92681 16.2742 5.96281 16.2382 5.96281 16.4182C5.96281 16.5262 5.92681 16.7422 5.81881 16.8502ZM6.43081 14.9782C6.10681 15.9862 5.85481 16.5622 6.03481 15.8062C6.25081 15.0142 6.68281 13.7902 6.75481 13.8622C6.79081 13.8982 6.64681 14.4022 6.43081 14.9782ZM12.2628 1.62217C12.3708 1.51417 12.2628 1.73017 12.0828 2.05417C10.6068 4.86217 9.41881 7.38217 8.41081 9.86617C6.97081 13.4302 6.82681 13.7902 6.82681 13.6102C6.79081 13.3582 8.80681 8.35417 9.74281 6.37417C10.6788 4.35817 11.9748 1.91016 12.2628 1.62217ZM9.38281 5.04216C9.41881 5.04216 9.16681 5.65417 8.80681 6.41016C8.15881 7.85017 8.05081 8.03016 8.05081 7.85017C8.05081 7.70617 9.31081 5.04216 9.38281 5.04216ZM8.01481 8.06616C8.05081 8.06616 7.97881 8.28217 7.87081 8.60617C7.61881 9.18217 7.36681 9.68616 7.36681 9.54216C7.36681 9.39816 7.94281 8.06616 8.01481 8.06616ZM7.15081 10.0462C7.25881 9.83016 7.36681 9.72216 7.36681 9.79417C7.36681 9.90216 7.25881 10.1182 7.15081 10.3342C7.04281 10.5502 6.97081 10.6582 6.97081 10.5502C6.97081 10.4782 7.04281 10.2262 7.15081 10.0462ZM6.61081 11.4142C6.75481 11.0542 6.86281 10.8022 6.89881 10.8382C6.93481 10.8742 6.79081 11.2702 6.61081 11.7022C6.21481 12.6022 6.21481 12.4582 6.61081 11.4142ZM5.63881 14.1142C5.71081 13.9342 5.85481 13.4662 5.99881 13.1422C6.14281 12.8182 6.21481 12.7102 6.17881 12.9262C6.10681 13.1062 5.96281 13.5742 5.81881 13.8982C5.67481 14.2222 5.60281 14.3302 5.63881 14.1142ZM4.84681 16.9222C4.84681 17.0302 4.73881 17.5342 4.59481 18.0742C4.45081 18.6142 4.34281 18.9382 4.30681 18.7582C4.30681 18.4342 4.81081 16.6702 4.84681 16.9222ZM3.76681 21.3142C3.76681 21.1342 3.80281 21.0982 3.83881 21.2422C3.87481 21.3502 3.87481 21.4582 3.83881 21.5302C3.80281 21.5662 3.76681 21.4942 3.76681 21.3142ZM3.62281 22.2502C3.62281 22.0702 3.65881 22.0342 3.69481 22.1422C3.73081 22.2502 3.73081 22.3942 3.69481 22.4302C3.65881 22.4662 3.62281 22.3942 3.62281 22.2502ZM3.47881 25.7062C3.47881 25.5622 3.51481 25.5262 3.55081 25.6342C3.62281 25.7422 3.58681 25.8862 3.55081 25.9222C3.51481 25.9582 3.47881 25.8862 3.47881 25.7062ZM3.51481 29.1262C3.37081 29.1262 3.33481 29.0902 3.44281 29.0542C3.55081 29.0182 3.65881 29.0182 3.69481 29.0542C3.76681 29.1262 3.65881 29.1622 3.51481 29.1262ZM3.76681 24.2662L3.62281 25.2742L3.69481 24.2302C3.80281 22.2142 4.55881 18.7942 5.56681 15.5902C6.86281 11.4862 9.41881 5.36616 10.7868 3.13417C11.6508 1.69416 12.0108 1.33417 11.2188 2.66617C8.51881 7.27417 5.35081 15.8062 4.23481 21.4582C4.05481 22.4302 3.83881 23.6902 3.76681 24.2662ZM4.88281 19.9102C4.88281 19.7662 4.91881 19.5142 4.99081 19.3702C5.06281 19.1902 5.13481 19.1542 5.13481 19.2982C5.13481 19.4062 5.06281 19.6582 4.99081 19.8022C4.91881 20.0182 4.88281 20.0542 4.88281 19.9102ZM6.39481 28.4062C6.21481 28.4422 5.92681 28.5142 5.78281 28.5142C5.53081 28.5142 5.56681 28.4782 5.81881 28.4062C6.03481 28.3342 6.32281 28.2622 6.46681 28.2622C6.68281 28.2622 6.68281 28.2982 6.39481 28.4062ZM12.1188 26.6062C12.2628 26.5702 12.4788 26.5702 12.6228 26.6062C12.7668 26.6422 12.6588 26.6782 12.3708 26.6782C12.1188 26.6782 12.0108 26.6422 12.1188 26.6062ZM11.3628 26.7862C11.4708 26.7142 11.5788 26.7502 11.6508 26.7862C11.6868 26.8222 11.6148 26.8582 11.4708 26.8582C11.2908 26.8582 11.2548 26.8222 11.3628 26.7862ZM10.5348 26.9302C10.6428 26.8942 10.7508 26.8942 10.8228 26.9302C10.8588 27.0022 10.7868 27.0382 10.6428 27.0022C10.4628 27.0022 10.4268 26.9662 10.5348 26.9302ZM8.55481 27.8662C7.79881 28.0462 7.07881 28.2262 6.93481 28.2262C6.82681 28.2262 7.33081 28.0462 8.05081 27.8662C8.80681 27.6502 9.52681 27.5062 9.67081 27.5062C9.81481 27.5062 9.31081 27.6862 8.55481 27.8662ZM9.92281 27.1822C9.77881 27.1462 9.74281 27.1102 9.85081 27.0742C9.95881 27.0382 10.0668 27.0382 10.1028 27.0742C10.1748 27.1462 10.0668 27.1822 9.92281 27.1822ZM11.8308 27.1822C11.0748 27.3262 10.3908 27.4702 10.2108 27.4702C10.0668 27.4342 10.4988 27.3262 11.1828 27.1822C11.8668 27.0022 12.5868 26.8942 12.8028 26.8942C12.9828 26.8942 12.5508 27.0382 11.8308 27.1822ZM13.1268 26.4622C13.2348 26.4262 13.4508 26.4262 13.5228 26.4622C13.6308 26.4982 13.5228 26.5342 13.2708 26.5342C13.0548 26.5342 12.9828 26.4982 13.1268 26.4622ZM13.6308 26.8222C13.3428 26.8222 13.2348 26.8222 13.3788 26.7862C13.5228 26.7502 13.7388 26.7502 13.8828 26.7862C13.9908 26.8222 13.8828 26.8222 13.6308 26.8222ZM14.4228 26.3182C14.5308 26.2822 14.6748 26.2822 14.7828 26.3182C14.8548 26.3542 14.7828 26.3902 14.6028 26.3902C14.4228 26.3902 14.3508 26.3542 14.4228 26.3182ZM14.8908 26.6782C14.5308 26.6782 14.3868 26.6422 14.5668 26.6062C14.7468 26.5702 15.0348 26.5702 15.1788 26.6062C15.3588 26.6422 15.2148 26.6782 14.8908 26.6782ZM16.3668 26.4622C16.6188 26.4262 17.0148 26.4262 17.2308 26.4622C17.4108 26.4982 17.2308 26.5342 16.7628 26.5342C16.2948 26.5342 16.1148 26.4982 16.3668 26.4622Z" fill="url(#paint0_linear)"/>
<path d="M24.0933 11.8462C23.9133 11.9182 23.8413 11.8462 23.8413 11.7382C23.8413 11.6302 23.7333 11.5942 23.6253 11.6302C23.5173 11.6662 23.4093 11.5942 23.3373 11.4142C23.2293 11.0182 22.8693 10.8742 22.5093 11.0182C21.6093 11.3422 19.9533 16.5622 19.3773 20.8462C18.7293 25.2742 19.6293 27.8662 22.2213 29.1982C23.1573 29.6662 23.5533 29.5942 23.1933 28.9822C22.6893 28.0462 22.5453 27.4702 22.4733 25.9942C22.4013 23.9782 22.5453 23.0422 23.7693 17.9302C25.0293 12.6022 25.0293 12.5302 24.6693 12.0982C24.4893 11.8822 24.2733 11.8102 24.0933 11.8462ZM22.1493 14.5462C22.1853 14.6182 22.1853 14.7622 22.1133 14.7982C22.0773 14.8342 22.0413 14.7622 22.0413 14.6182C22.0413 14.4742 22.0773 14.4382 22.1493 14.5462ZM21.5733 16.3462C21.6093 16.0942 21.7173 15.7342 21.7893 15.5902C21.8613 15.4102 21.8613 15.4462 21.8253 15.8062C21.7533 16.0582 21.6813 16.3822 21.6093 16.5622C21.5373 16.7422 21.5013 16.6702 21.5733 16.3462ZM20.8893 19.1902C21.0333 18.3982 21.4653 16.8142 21.4653 16.9942C21.5013 17.1022 21.3573 17.7142 21.2133 18.3982C20.9253 19.5862 20.7093 20.0902 20.8893 19.1902ZM20.7813 19.9462C20.7813 20.0902 20.7813 20.2702 20.7453 20.3422C20.7093 20.4502 20.7093 20.3422 20.7093 20.1262C20.7093 19.8742 20.7453 19.8022 20.7813 19.9462ZM20.3493 23.0422C20.2773 23.0782 20.2773 23.0062 20.2773 22.8622C20.2773 22.6822 20.3133 22.6462 20.3493 22.7542C20.3853 22.8622 20.3853 22.9702 20.3493 23.0422ZM20.5293 21.0622C20.6013 20.6302 20.6373 20.5942 20.6373 20.9542C20.6373 21.1702 20.6013 21.5302 20.5293 21.7462C20.3853 22.3222 20.3853 21.7822 20.5293 21.0622ZM20.6373 24.1942C20.6013 24.3022 20.5653 24.1942 20.5653 23.9422C20.5653 23.7262 20.6013 23.6542 20.6373 23.7982C20.6733 23.9062 20.6733 24.1222 20.6373 24.1942ZM20.8173 22.6462C20.7093 23.4742 20.7093 23.4742 20.6733 22.9342C20.6373 21.6742 21.6453 17.1742 22.6893 13.8262C22.9413 12.9622 23.2293 12.2422 23.3013 12.2422C23.3733 12.2422 23.3733 12.2782 23.3373 12.3502C23.0853 12.7822 21.6093 18.3982 21.1413 20.6662C21.0333 21.2782 20.8893 22.1782 20.8173 22.6462ZM21.5733 20.9182C21.5373 20.9902 21.5013 20.9182 21.5013 20.7382C21.5013 20.5582 21.5373 20.4502 21.5733 20.5582C21.6093 20.6662 21.6093 20.8102 21.5733 20.9182ZM21.7173 20.2702C21.6813 20.3422 21.6453 20.2342 21.6453 20.0902C21.6453 19.9462 21.6813 19.9102 21.7173 20.0182C21.7533 20.1262 21.7533 20.2342 21.7173 20.2702ZM21.9693 19.0462C21.9333 19.0822 21.8973 19.0102 21.8973 18.8662C21.9333 18.7222 21.9693 18.6862 22.0053 18.7942C22.0413 18.9022 22.0413 19.0102 21.9693 19.0462ZM22.1853 18.2542C22.0773 18.5422 22.0773 18.5422 22.0773 18.3262C22.0773 18.1822 22.1133 17.8942 22.1853 17.7142C22.2573 17.4262 22.2933 17.4262 22.2933 17.6422C22.2933 17.7862 22.2213 18.0742 22.1853 18.2542ZM22.4013 17.2822C22.3653 17.3182 22.3293 17.2462 22.3293 17.1022C22.3293 16.9222 22.3653 16.8862 22.4013 16.9942C22.4373 17.1022 22.4373 17.2102 22.4013 17.2822ZM22.5453 16.7062C22.4733 16.7782 22.4733 16.6702 22.4733 16.5262C22.4733 16.3822 22.5093 16.3462 22.5453 16.4542C22.5813 16.5622 22.5813 16.6702 22.5453 16.7062ZM23.2293 14.2942C22.9413 15.1582 22.7253 15.7702 22.7253 15.6982C22.7253 15.4102 23.5893 12.4582 23.6613 12.6022C23.6613 12.6742 23.4813 13.4302 23.2293 14.2942ZM26.0373 5.51017C25.5333 5.51017 24.2013 6.33817 23.0853 7.34617C22.4373 7.92217 22.4373 7.95817 22.6173 8.35417C22.7253 8.64217 22.8693 8.75017 23.0133 8.71417C23.1573 8.67817 23.2653 8.75017 23.2653 8.82217C23.2653 8.89417 23.4093 8.85817 23.5893 8.71417C23.7693 8.57017 23.8053 8.53417 23.7333 8.64217C23.5533 8.85817 23.4813 9.36217 23.6253 9.50617C23.8053 9.68616 24.2013 9.54217 24.4173 9.18217C24.8133 8.53417 26.0373 7.41816 26.6493 7.13017C26.9733 6.98617 27.2613 6.77017 27.2613 6.66217C27.2613 6.48217 26.2533 5.51017 26.0373 5.51017Z" fill="url(#paint1_linear)"/>
<path d="M38.9661 16.4542C39.0741 14.4382 39.0741 14.4382 38.7501 14.1142C38.3901 13.7902 37.9581 13.5382 37.7421 13.5742C37.7061 13.6102 37.6341 13.5022 37.6341 13.3942C37.6341 13.2862 37.5981 13.1782 37.5261 13.1782C37.4541 13.1782 37.3821 13.1062 37.3821 12.9982C37.3821 12.7822 37.3101 12.7462 36.8781 12.7462C36.4821 12.7462 36.4461 12.7822 36.2661 13.2502L36.1221 13.7542L35.7261 13.4302C35.5101 13.2502 35.0781 12.9262 34.7541 12.6742C33.7101 11.8462 32.7021 11.7742 31.2621 12.4222C27.1581 14.2942 23.9901 22.8982 25.5381 26.2822C26.3661 28.0462 27.4461 27.9742 28.1661 28.6222C28.4181 28.8382 28.6701 28.9102 29.2461 28.9102C29.9301 28.9102 30.1461 28.8382 30.6861 28.4422C31.5141 27.8662 32.3061 26.8942 33.2421 25.2022C33.6381 24.4822 33.9981 23.9062 34.0341 23.9422C34.1061 24.0142 33.1341 27.2542 32.7021 28.3342C32.2701 29.5222 32.0181 30.0262 30.9381 32.3662C28.9221 36.6142 27.1221 38.4142 24.9621 38.3422C24.4941 38.3422 23.9181 38.2342 23.7021 38.1262C23.0901 37.8022 22.9101 38.0902 23.4501 38.5222C23.9181 38.8822 25.5021 39.6742 26.0421 39.8182C26.5461 39.9622 27.5181 39.8542 28.3101 39.6022C29.6781 39.1702 31.4781 37.4422 33.1701 34.8862C34.3581 33.1222 35.1501 31.6102 36.0501 29.3782C37.0221 26.9662 37.5261 25.2022 38.2821 21.4942C38.7861 19.0462 38.9301 18.1102 38.9661 16.4542ZM35.6181 22.7182C35.6181 22.5742 35.6541 22.5382 35.6901 22.6462C35.7261 22.7182 35.7261 22.8622 35.6901 22.8982C35.6181 22.9342 35.5821 22.8622 35.6181 22.7182ZM35.5821 23.2942C35.5821 23.4382 35.5101 23.6902 35.4381 23.8342C35.2941 24.1942 35.2941 23.7982 35.4381 23.3302C35.5461 23.0782 35.5821 23.0422 35.5821 23.2942ZM26.4741 22.9702C26.4381 23.0782 26.4381 22.9702 26.4381 22.7182C26.4381 22.5022 26.4741 22.4302 26.5101 22.5742C26.5461 22.6822 26.5101 22.8622 26.4741 22.9702ZM26.5461 22.0342C26.5461 21.7462 26.9061 20.5582 26.9421 20.8102C26.9421 20.8822 26.8701 21.2422 26.7621 21.6382C26.6541 21.9982 26.5461 22.1782 26.5461 22.0342ZM26.8701 23.2942L26.6901 24.5182L26.7261 23.4742C26.7621 22.8982 26.9421 21.8902 27.1581 21.2422C27.5181 20.0182 28.5261 17.7502 28.9221 17.2462C29.0301 17.1022 28.8861 17.4982 28.5621 18.1462C28.2021 18.7942 27.7341 19.9462 27.5181 20.7022C27.2661 21.4222 26.9781 22.6102 26.8701 23.2942ZM27.7341 21.7102C27.3381 23.0062 27.2301 22.9702 27.5901 21.6382C27.9861 20.0182 29.4621 17.0302 30.2901 16.0222C30.5061 15.7702 30.3261 16.1302 29.9301 16.7782C29.4981 17.4262 28.9221 18.5422 28.6341 19.2622C28.3101 19.9462 27.9141 21.0622 27.7341 21.7102ZM33.8181 19.5142C32.4501 22.6462 30.5421 25.7422 29.5341 26.4982C28.5621 27.1822 28.5261 27.1462 28.6341 25.2382C28.7061 24.0142 28.8141 23.2222 29.0661 22.3222C30.0741 18.9022 31.9821 15.8422 33.7101 14.8342C34.1061 14.6182 34.5021 14.4382 34.6461 14.4382C34.7541 14.4382 34.9701 14.7622 35.1501 15.2662L35.4741 16.1302L34.9341 17.1742C34.6101 17.7142 34.1061 18.7942 33.8181 19.5142ZM35.2941 24.3022C35.3301 24.5542 34.7901 26.2462 34.7901 26.0302C34.7901 25.9582 34.8981 25.4902 35.0421 24.9862C35.1861 24.5182 35.2941 24.1942 35.2941 24.3022ZM34.0701 29.1262C34.1421 28.9822 34.2141 28.9822 34.2141 29.0542C34.2141 29.1262 34.1421 29.2702 34.0701 29.3782C33.9981 29.4862 33.9621 29.5222 33.9621 29.4502C33.9621 29.3782 33.9981 29.2342 34.0701 29.1262ZM35.4741 27.0022C35.1501 27.9742 34.5741 29.3782 34.2141 30.1342C33.4581 31.7182 33.3141 31.8622 33.9981 30.3142C34.5021 29.2342 35.2941 27.1822 35.6901 25.9222C35.7981 25.4902 35.9421 25.1662 35.9781 25.2022C36.0141 25.2382 35.7981 26.0302 35.4741 27.0022ZM36.0861 24.9502C36.0501 24.9862 36.0141 24.9142 36.0141 24.7702C36.0141 24.6262 36.0501 24.5902 36.0861 24.6982C36.1221 24.8062 36.1221 24.9142 36.0861 24.9502ZM36.2301 24.4102C36.1941 24.4462 36.1581 24.3742 36.1581 24.2302C36.1581 24.0502 36.1941 24.0502 36.2301 24.1582C36.2661 24.2302 36.2661 24.3742 36.2301 24.4102ZM34.8261 27.4702C34.3941 28.6582 34.2141 29.0182 34.2141 28.8022C34.2141 28.7302 34.3221 28.3702 34.5021 27.9742C34.9341 26.7862 35.6901 24.0862 36.1581 21.9262C36.4101 20.8462 36.6261 19.9462 36.6621 19.9822C36.8421 20.1622 35.5461 25.4182 34.8261 27.4702ZM36.7701 19.6582C36.7341 19.7662 36.6981 19.6942 36.6981 19.5142C36.6981 19.2982 36.7341 19.2262 36.7701 19.3342C36.8061 19.4422 36.8061 19.5862 36.7701 19.6582ZM36.9141 19.0462C36.8781 19.1182 36.8421 19.0102 36.8421 18.8662C36.8421 18.7222 36.8781 18.6862 36.9141 18.7942C36.9501 18.9022 36.9501 19.0102 36.9141 19.0462Z" fill="url(#paint2_linear)"/>
<path d="M50.5637 29.3062C50.8877 29.5582 51.4277 29.5582 51.8237 29.3062C52.2557 28.9822 52.2197 28.8742 51.5717 28.5862C50.8877 28.2982 50.7077 27.7942 50.7077 26.0302C50.7077 24.5542 50.9957 22.9702 51.6437 20.3782C52.2197 18.2542 52.3997 16.5262 52.1477 15.7702C51.9317 15.1222 51.2837 14.5102 50.6357 14.2942C50.3477 14.2222 49.9877 14.0422 49.8797 13.8622C49.4477 13.4302 48.6917 13.5022 48.0797 14.0422C47.4677 14.5462 46.0277 16.7062 44.9117 18.6862C44.4797 19.5142 44.0837 20.1622 44.0477 20.1262C43.9757 20.0182 44.6597 17.6782 45.5237 15.1582C46.2797 12.9982 46.6757 11.8822 48.1877 7.95817C49.1957 5.33017 49.8077 3.49417 49.8077 2.95417C49.8077 2.48617 49.5557 2.09016 49.2677 2.09016C49.1597 2.09016 49.0877 2.01817 49.0877 1.91016C49.0877 1.83817 49.0517 1.80217 48.9797 1.83817C48.9077 1.91017 48.7997 1.76617 48.7277 1.58617C48.3677 0.830166 47.7197 1.29817 46.7477 2.95417C44.9117 6.08617 42.0317 13.2502 40.9517 17.4982C39.6557 22.5382 39.4397 26.4982 40.4117 27.2542C40.5917 27.4342 40.8797 27.5422 40.9877 27.5062C41.1317 27.4702 41.3837 27.5782 41.5637 27.7222C42.0317 28.1542 42.2477 28.0822 42.5717 27.2902C43.1837 25.8142 45.5597 21.1702 46.4237 19.7662C47.3237 18.3622 48.5477 16.8142 48.6557 16.9582C48.6917 16.9942 48.5477 17.7862 48.3677 18.6862C47.8637 21.0622 47.7197 22.3582 47.7197 24.0862C47.7197 25.7782 47.9357 26.7502 48.4757 27.6502C48.8717 28.3342 49.7357 29.0902 50.0597 29.0902C50.2037 29.0902 50.4197 29.1982 50.5637 29.3062ZM50.7797 17.3542C50.7797 17.2102 50.8157 17.1742 50.8517 17.2822C50.8877 17.3902 50.8877 17.4982 50.8517 17.5342C50.7797 17.5702 50.7437 17.4982 50.7797 17.3542ZM48.6917 3.24217C48.6917 3.31417 48.5477 3.60217 48.4037 3.85416C48.2597 4.10617 48.1517 4.28617 48.1517 4.21417C48.1517 4.10617 48.2597 3.85417 48.4037 3.56616C48.5477 3.31417 48.6917 3.17017 48.6917 3.24217ZM47.3957 4.14217C47.4317 4.14217 47.3597 4.32217 47.2517 4.57416C46.9997 5.07816 46.9277 5.18616 46.9277 5.04216C46.9277 4.89816 47.3237 4.14217 47.3957 4.14217ZM41.4197 23.6902C41.1317 25.7782 40.9877 26.3542 41.0957 25.0582C41.4197 21.2062 42.6077 16.7782 44.9477 10.5862C46.0277 7.77817 48.5117 2.12617 48.6557 2.27017C48.6917 2.30617 48.4757 2.81017 48.2237 3.38616C47.1797 5.61817 45.2357 10.2262 44.3717 12.6022C42.7517 17.1022 41.9237 20.1982 41.4197 23.6902ZM41.8157 23.6902C41.8157 23.9062 41.7437 24.2662 41.7077 24.4462L41.5997 24.7702V24.4462C41.5997 24.2662 41.6357 23.9062 41.7077 23.6902L41.8157 23.2582V23.6902ZM42.1037 22.0342C41.9237 22.9342 41.8517 23.0782 41.8877 22.5382C42.0677 21.1342 43.1477 17.1382 44.2637 13.9702C45.2357 11.1262 47.9717 4.32217 48.1157 4.46617C48.1157 4.46617 47.5757 5.94217 46.8557 7.67017C46.1357 9.39816 45.3437 11.3782 45.1277 12.0262C43.9037 15.4462 43.4357 16.9222 42.9317 18.7942C42.6437 19.8742 42.2477 21.3502 42.1037 22.0342ZM50.6717 18.3262C50.5997 19.0102 50.0957 20.8822 50.0957 20.5942C50.0597 20.4862 50.2397 19.8022 50.4197 19.0822C50.5997 18.3622 50.7077 18.0382 50.6717 18.3262ZM49.9157 16.8502C49.9877 16.4902 49.9877 16.4542 50.0237 16.7422C50.0597 16.9222 50.0237 17.1022 49.9517 17.1742C49.8797 17.2462 49.8797 17.1382 49.9157 16.8502ZM49.8077 17.6422C49.8077 17.4622 49.8437 17.4262 49.8797 17.5342C49.9157 17.6422 49.9157 17.7862 49.8797 17.8222C49.8437 17.8582 49.8077 17.7862 49.8077 17.6422ZM49.7357 18.1102C49.7717 18.1822 49.7717 18.3262 49.7357 18.4342C49.6997 18.5422 49.6637 18.4342 49.6637 18.2542C49.6637 18.0742 49.6997 18.0022 49.7357 18.1102ZM49.5197 18.8662C49.5197 18.7222 49.5557 18.6862 49.6277 18.7942C49.6637 18.9022 49.6637 19.0102 49.5917 19.0462C49.5557 19.0822 49.5197 19.0102 49.5197 18.8662ZM49.3757 19.5502C49.4117 19.4062 49.4477 19.3702 49.4837 19.4782C49.5197 19.5862 49.5197 19.6942 49.4477 19.7302C49.4117 19.7662 49.3757 19.6942 49.3757 19.5502ZM49.2677 20.0902C49.2677 19.9462 49.3037 19.9102 49.3397 20.0182C49.3757 20.1262 49.3757 20.2342 49.3397 20.2702C49.2677 20.3422 49.2317 20.2342 49.2677 20.0902ZM49.1957 20.7022C49.2317 20.8102 49.2317 20.9542 49.1957 21.0262C49.1597 21.1342 49.1237 21.0622 49.1237 20.8822C49.1237 20.6662 49.1597 20.5942 49.1957 20.7022ZM48.7637 23.9782C48.7277 24.0502 48.6917 23.9422 48.6917 23.7982C48.7277 23.6542 48.7277 23.6182 48.7997 23.7262C48.8357 23.8342 48.8357 23.9422 48.7637 23.9782ZM48.9077 22.6822C48.8717 22.7902 48.8717 22.6822 48.8717 22.4302C48.8717 22.2142 48.9077 22.1422 48.9437 22.2862C48.9437 22.4302 48.9437 22.6102 48.9077 22.6822ZM48.9797 21.6382C49.0157 21.3862 49.0157 21.3142 49.0517 21.4582C49.0877 21.6022 49.0877 21.7822 49.0517 21.8542C49.0157 21.9622 48.9797 21.8542 48.9797 21.6382ZM49.0517 24.1582C49.1597 22.6102 49.3037 21.5662 49.7717 19.3702C50.0237 18.3262 50.2397 17.1742 50.3117 16.7422C50.4557 16.0222 50.4557 16.0222 50.4557 16.5622C50.4557 16.8502 50.3477 17.6782 50.2037 18.3262C50.0597 19.0102 49.8437 20.0182 49.6997 20.5942C49.5917 21.1342 49.3757 22.4302 49.2317 23.4742C49.0157 25.0222 48.9797 25.1302 49.0517 24.1582ZM49.7357 22.8262C49.6997 22.9342 49.6637 22.8262 49.6997 22.5742C49.6997 22.3582 49.6997 22.2862 49.7357 22.4302C49.7717 22.5382 49.7717 22.7182 49.7357 22.8262ZM49.9157 21.7462C49.8437 22.1422 49.8077 22.1422 49.8077 21.8182C49.8077 21.6382 49.8797 21.3502 49.9157 21.1342C50.0237 20.8822 50.0237 20.8462 50.0237 21.0622C50.0237 21.2422 49.9877 21.5302 49.9157 21.7462Z" fill="url(#paint3_linear)"/>
<path d="M55.0294 8.03017C55.7854 8.10217 56.4334 8.17417 56.4334 8.17417C56.4334 8.21017 56.1814 9.00216 55.8574 10.0102C53.7694 16.2022 52.7974 21.8902 53.3374 25.0222C53.6614 26.8942 54.5254 28.0102 56.3974 28.9822C57.4774 29.5582 58.1254 29.6302 58.2334 29.3062C58.2694 29.1982 58.0174 29.0182 57.6574 28.8382C56.8654 28.5142 56.5414 27.9022 56.3254 26.3182C55.9654 23.7262 56.7214 19.8382 59.3494 10.9462L60.1054 8.46217H62.3014C65.1454 8.42617 65.6494 8.35417 65.9734 7.74217C66.1174 7.49017 66.1894 7.23817 66.1534 7.20217C66.0814 7.05817 63.3094 6.66217 61.6894 6.55417L60.6454 6.48217L60.8974 5.47417C61.0414 4.93417 61.1494 4.21416 61.1494 3.81817C61.1854 3.20616 61.1494 3.09816 60.7894 2.84617C60.5734 2.70217 60.2494 2.41416 60.0694 2.23416C59.6734 1.87416 59.5294 1.80217 59.2414 2.01817C59.0254 2.19817 58.1974 3.85417 57.6214 5.22217C57.2614 6.19417 57.2254 6.23017 56.8294 6.15817C56.6134 6.12217 55.8574 6.05017 55.1734 6.01417C53.8774 5.90617 53.3374 6.05016 53.3374 6.44617C53.3374 6.55416 53.1934 6.77017 53.0494 6.91416C52.4374 7.52617 52.9414 7.77817 55.0294 8.03017ZM54.4894 20.7382C54.4534 20.7742 54.4174 20.7022 54.4174 20.5582C54.4534 20.3782 54.4534 20.3422 54.5254 20.4502C54.5614 20.5582 54.5614 20.6662 54.4894 20.7382ZM54.6334 22.5742C54.5974 22.6822 54.5974 22.6102 54.5974 22.3942C54.5974 22.2142 54.5974 22.1422 54.6334 22.2502C54.6694 22.3222 54.6694 22.5022 54.6334 22.5742ZM55.7494 14.5822C55.7854 14.3302 55.8934 13.9702 55.9654 13.8262C56.0374 13.6462 56.0374 13.7182 55.9654 14.0422C55.9294 14.2942 55.8574 14.6542 55.7854 14.7982C55.6774 14.9782 55.6774 14.9062 55.7494 14.5822ZM55.5334 15.3382C55.5334 15.1582 55.5694 15.1222 55.6054 15.2662C55.6414 15.3382 55.6414 15.4822 55.6054 15.5182C55.5694 15.5542 55.5334 15.4822 55.5334 15.3382ZM55.3894 15.8782C55.3894 15.7342 55.4254 15.6982 55.4614 15.8062C55.4974 15.8782 55.4974 16.0222 55.4614 16.0582C55.4254 16.0942 55.3894 16.0222 55.3894 15.8782ZM55.2454 16.4182C55.2454 16.2742 55.2814 16.2382 55.3534 16.3462C55.3894 16.4542 55.3894 16.5622 55.3174 16.5982C55.2814 16.6702 55.2454 16.5622 55.2454 16.4182ZM55.1014 16.9942C55.1374 16.8142 55.1734 16.7782 55.2094 16.8862C55.2454 16.9942 55.2454 17.1022 55.1734 17.1742C55.1374 17.2102 55.1014 17.1382 55.1014 16.9942ZM54.9934 17.6782C54.9934 17.4982 55.0294 17.4622 55.0654 17.5702C55.1014 17.6782 55.1014 17.7862 55.0654 17.8582C54.9934 17.8942 54.9574 17.8222 54.9934 17.6782ZM54.8494 18.3622C54.9214 18.0022 54.9214 17.9662 54.9214 18.2902C54.9574 18.4702 54.8854 18.7942 54.8494 18.9742C54.7414 19.2622 54.7054 19.2622 54.7414 19.0462C54.7414 18.9022 54.7774 18.5782 54.8494 18.3622ZM59.9614 3.09816C60.1054 2.95417 60.0334 3.20617 59.4934 4.71817C58.9894 6.19417 58.8094 6.55417 58.8094 6.26617C58.8094 6.12217 59.8894 3.17017 59.9614 3.09816ZM58.8094 5.25816C58.8814 5.15017 58.9534 5.11417 58.9534 5.18617C58.9534 5.25816 58.8814 5.40216 58.8094 5.54616C58.7374 5.65417 58.6654 5.69017 58.6654 5.61817C58.6654 5.51017 58.7374 5.36617 58.8094 5.25816ZM57.7654 9.79417C57.2614 11.3782 55.9654 15.8422 55.5694 17.4622C55.4614 18.0382 55.2094 19.2982 55.0294 20.2702C54.8494 21.2782 54.7054 21.8902 54.7054 21.6382C54.7054 21.1342 55.1374 18.5782 55.4974 17.0302C56.1454 14.3302 57.8734 8.64217 58.1254 8.35417C58.3054 8.17417 58.3054 8.24616 57.7654 9.79417ZM57.5854 8.67817C57.6574 8.57017 57.6934 8.53416 57.6934 8.60617C57.6934 8.67817 57.6574 8.85817 57.5854 8.96617C57.5134 9.07417 57.4414 9.11017 57.4414 9.03817C57.4414 8.96617 57.5134 8.78617 57.5854 8.67817ZM57.3694 9.39817C57.4054 9.43417 57.1174 10.3702 56.7574 11.5222C56.3974 12.6382 56.0734 13.5022 56.0734 13.3942C56.0734 13.1782 57.2974 9.32617 57.3694 9.39817Z" fill="url(#paint4_linear)"/>
<defs>
<linearGradient id="paint0_linear" x1="59.9229" y1="43.5901" x2="-7.42338" y2="28.6084" gradientUnits="userSpaceOnUse">
<stop stop-color="#212530"/>
<stop offset="1" stop-color="#50555C"/>
</linearGradient>
<linearGradient id="paint1_linear" x1="59.9229" y1="43.5901" x2="-7.42338" y2="28.6084" gradientUnits="userSpaceOnUse">
<stop stop-color="#212530"/>
<stop offset="1" stop-color="#50555C"/>
</linearGradient>
<linearGradient id="paint2_linear" x1="59.9229" y1="43.5901" x2="-7.42338" y2="28.6084" gradientUnits="userSpaceOnUse">
<stop stop-color="#212530"/>
<stop offset="1" stop-color="#50555C"/>
</linearGradient>
<linearGradient id="paint3_linear" x1="59.9229" y1="43.5901" x2="-7.42338" y2="28.6084" gradientUnits="userSpaceOnUse">
<stop stop-color="#212530"/>
<stop offset="1" stop-color="#50555C"/>
</linearGradient>
<linearGradient id="paint4_linear" x1="59.9229" y1="43.5901" x2="-7.42338" y2="28.6084" gradientUnits="userSpaceOnUse">
<stop stop-color="#212530"/>
<stop offset="1" stop-color="#50555C"/>
</linearGradient>
</defs>
</svg>
